<svg width="389" height="158" viewBox="0 0 389 158" fill="none" xmlns="http://www.w3.org/2000/svg">
<rect width="389" height="158" fill="#2E3440"/>
<mask id="mask0" mask-type="alpha" maskUnits="userSpaceOnUse" x="0" y="0" width="389" height="158">
<rect width="389" height="158" fill="#2E3440"/>
</mask>
<g mask="url(#mask0)">
<rect width="472.681" height="466.969" rx="23" transform="matrix(0.984325 0.176362 -0.201063 0.979578 230.89 109)" fill="#4FF7FF"/>
<rect width="1459.02" height="127.402" transform="matrix(0.98478 0.173806 -0.19852 0.980097 -771.708 -46)" fill="#FF4500"/>
</g>
<path d="M96.2932 29.9956C98.1286 27.2366 101.908 26.4023 104.734 28.1322L120.087 37.5288C122.913 39.2587 123.716 42.8976 121.881 45.6566L111.911 60.6433C110.076 63.4023 106.296 64.2365 103.47 62.5066L88.1175 53.11C85.2911 51.3801 84.4878 47.7412 86.3232 44.9822L96.2932 29.9956Z" fill="white"/>
</svg>
