<svg width="253" height="250" viewBox="0 0 253 250" fill="none" xmlns="http://www.w3.org/2000/svg">
<rect width="253" height="250" rx="30" fill="#C07DBC"/>
<path d="M119.715 29.047C124.246 26.5302 129.754 26.5302 134.285 29.047L209.285 70.7137C214.047 73.3592 217 78.3785 217 83.826V166.174C217 171.621 214.047 176.641 209.285 179.286L134.285 220.953C129.754 223.47 124.246 223.47 119.715 220.953L44.7154 179.286C39.9534 176.641 37 171.621 37 166.174V83.826C37 78.3785 39.9534 73.3592 44.7154 70.7137L119.715 29.047Z" fill="#9B5096"/>
<path d="M46.4409 180.245C42.326 177.959 42.326 172.041 46.4409 169.755L208.086 79.9521C212.085 77.7304 217 80.6222 217 85.1971V171.47C217 173.649 215.819 175.656 213.914 176.715L129.914 223.381C128.102 224.388 125.898 224.388 124.086 223.381L46.4409 180.245Z" fill="#6A3E7A"/>
<path d="M76.8404 157.924C72.4145 151.182 69.3935 143.616 67.958 135.679C66.5225 127.742 66.7019 119.597 68.4855 111.732C70.2691 103.866 73.6203 96.4403 78.3388 89.8989C83.0573 83.3576 89.0462 77.8348 95.9475 73.6605C102.849 69.4863 110.521 66.7463 118.505 65.6044C126.49 64.4625 134.622 64.9421 142.417 67.0145C150.212 69.0869 157.509 72.7096 163.871 77.6661C170.234 82.6225 175.533 88.811 179.45 95.8616L158.049 107.751C155.73 103.577 152.594 99.9137 148.827 96.9796C145.06 94.0455 140.741 91.901 136.126 90.6742C131.512 89.4474 126.698 89.1634 121.971 89.8394C117.245 90.5154 112.703 92.1374 108.618 94.6084C104.532 97.0795 100.987 100.349 98.1939 104.221C95.4007 108.093 93.4169 112.489 92.361 117.145C91.3052 121.802 91.199 126.623 92.0488 131.322C92.8985 136.02 94.6869 140.499 97.3069 144.49L76.8404 157.924Z" fill="white"/>
<path d="M179.441 154.155C175.495 161.252 170.149 167.475 163.727 172.446C157.305 177.417 149.941 181.033 142.081 183.074C134.221 185.115 126.028 185.539 117.999 184.321C109.97 183.103 102.272 180.267 95.3711 175.986C88.4702 171.706 82.5102 166.068 77.852 159.416C73.1938 152.764 69.9345 145.236 68.2715 137.287C66.6085 129.338 66.5764 121.134 68.1772 113.173C69.778 105.211 72.9784 97.6575 77.5844 90.9692L97.8884 104.952C95.175 108.892 93.2896 113.342 92.3465 118.032C91.4035 122.723 91.4224 127.556 92.4021 132.238C93.3818 136.921 95.3019 141.356 98.0461 145.275C100.79 149.194 104.301 152.515 108.367 155.037C112.432 157.559 116.967 159.229 121.697 159.947C126.427 160.665 131.254 160.415 135.885 159.212C140.515 158.01 144.853 155.88 148.637 152.951C152.42 150.023 155.569 146.357 157.894 142.175L179.441 154.155Z" fill="white"/>
<path d="M179.774 111H186L177.226 139H171L179.774 111Z" fill="white"/>
<path d="M191.774 111H197.774L189 139H183L191.774 111Z" fill="white"/>
<rect x="169" y="116" width="32" height="6" fill="white"/>
<rect x="168" y="128" width="32" height="6" fill="white"/>
</svg>
