<svg width="304" height="300" viewBox="0 0 304 300" fill="none" xmlns="http://www.w3.org/2000/svg">
<rect width="303.6" height="300" fill="#C07DBC"/>
<path d="M145.115 34.047C149.646 31.5302 155.154 31.5302 159.685 34.047L252.685 85.7137C257.447 88.3592 260.4 93.3785 260.4 98.8261V201.174C260.4 206.621 257.447 211.641 252.685 214.286L159.685 265.953C155.154 268.47 149.646 268.47 145.115 265.953L52.1154 214.286C47.3534 211.641 44.4 206.621 44.4 201.174V98.8261C44.4 93.3785 47.3534 88.3592 52.1154 85.7137L145.115 34.047Z" fill="#9B5096"/>
<path d="M53.8409 215.245C49.726 212.959 49.726 207.041 53.8409 204.755L251.486 94.9521C255.485 92.7304 260.4 95.6222 260.4 100.197V206.47C260.4 208.649 259.219 210.656 257.314 211.715L155.314 268.381C153.502 269.388 151.298 269.388 149.486 268.381L53.8409 215.245Z" fill="#6A3E7A"/>
<path d="M92.2085 189.509C86.8974 181.418 83.2722 172.339 81.5496 162.815C79.8269 153.291 80.0422 143.517 82.1826 134.078C84.3229 124.639 88.3443 115.728 94.0065 107.879C99.6687 100.029 106.855 93.4017 115.137 88.3926C123.419 83.3835 132.625 80.0956 142.206 78.7253C151.787 77.355 161.547 77.9305 170.9 80.4174C180.254 82.9043 189.01 87.2515 196.646 93.1993C204.281 99.1471 210.639 106.573 215.339 115.034L189.658 129.301C186.876 124.293 183.112 119.896 178.592 116.376C174.072 112.855 168.889 110.281 163.352 108.809C157.815 107.337 152.037 106.996 146.366 107.807C140.694 108.618 135.244 110.565 130.341 113.53C125.439 116.495 121.185 120.419 117.833 125.065C114.481 129.712 112.1 134.987 110.833 140.575C109.566 146.162 109.439 151.948 110.459 157.586C111.478 163.224 113.624 168.599 116.768 173.388L92.2085 189.509Z" fill="white"/>
<path d="M215.329 184.985C210.593 193.503 204.179 200.97 196.472 206.935C188.766 212.9 179.93 217.239 170.497 219.688C161.065 222.138 151.234 222.647 141.599 221.185C131.964 219.723 122.726 216.321 114.445 211.184C106.164 206.047 99.0122 199.282 93.4224 191.299C87.8326 183.317 83.9214 174.283 81.9258 164.744C79.9302 155.206 79.8917 145.361 81.8127 135.807C83.7336 126.253 87.574 117.189 93.1013 109.163L117.466 125.942C114.21 130.67 111.948 136.011 110.816 141.639C109.684 147.267 109.707 153.067 110.882 158.686C112.058 164.305 114.362 169.628 117.655 174.33C120.948 179.033 125.162 183.018 130.04 186.044C134.919 189.071 140.361 191.075 146.037 191.936C151.713 192.798 157.505 192.498 163.061 191.055C168.618 189.612 173.824 187.056 178.364 183.541C182.904 180.027 186.683 175.628 189.472 170.61L215.329 184.985Z" fill="white"/>
<path d="M215.729 133.2H223.2L212.671 166.8H205.2L215.729 133.2Z" fill="white"/>
<path d="M230.129 133.2H237.329L226.8 166.8H219.6L230.129 133.2Z" fill="white"/>
<rect x="202.8" y="139.2" width="38.4" height="7.20001" fill="white"/>
<rect x="201.6" y="153.6" width="38.4" height="7.2" fill="white"/>
</svg>
