<svg width="253" height="250" viewBox="0 0 253 250" fill="none" xmlns="http://www.w3.org/2000/svg">
<rect width="253" height="250" rx="30" fill="#0170BA"/>
<g filter="url(#filter0_d)">
<path d="M61 50.7291C61 50.3289 61.3244 50.0044 61.7246 50.0044C101.258 50.0009 140.789 49.9975 180.322 50.0025C187.366 50.0034 192.894 56.0433 192.275 63.0602C190.237 86.1625 188.207 109.264 186.077 132.36C184.812 147.12 183.514 161.88 182.16 176.634C181.7 181.645 178.154 185.827 173.31 187.189C166.617 189.072 159.944 191.033 153.225 192.821C144.617 195.348 135.939 197.636 127.326 200.141C127.245 200.164 127.162 200.176 127.078 200.176V200.176C126.992 200.176 126.907 200.164 126.825 200.139C118.631 197.706 110.357 195.56 102.164 193.124C95.1238 191.226 88.1281 189.17 81.1109 187.189C76.2945 185.83 72.7692 181.674 72.3067 176.69C71.3432 166.309 70.4428 155.924 69.5521 145.539C67.4248 121.246 65.1114 96.9695 63.0654 72.6732C62.3563 65.3611 61.8486 58.0257 61 50.7291V50.7291ZM137.523 60.8127C131.91 60.8201 129.097 65.0166 133.265 68.7748V68.7748C137.415 72.5156 134.554 76.6452 128.967 76.6386C118.165 76.6258 105.017 76.6361 93.9432 76.6476C87.3853 76.6544 85.5409 80.7974 91.5096 83.5142V83.5142C96.573 85.819 102.759 89.1875 108.311 88.836C110.554 88.6939 112.981 88.5066 115.533 88.2881C128.227 87.2012 130.262 96.9693 118.42 101.672C117.268 102.129 116.196 102.573 115.219 103C114.452 103.341 99.7838 106.489 91.3388 108.47C87.6499 109.335 85.5184 112.269 85.8624 116.042V116.042C86.4164 122.12 91.6517 126.814 97.7541 126.757C101.648 126.72 105.542 126.685 109.438 126.679C111.239 126.67 113.041 126.674 114.843 126.681C121.72 126.708 127.655 132.419 128.744 139.208C129.34 142.927 130.054 146.854 130.667 150.601C131.826 157.688 126.741 160.722 121.263 156.078C118.916 154.087 116.735 152.434 115.219 152.165C114.219 151.947 113.211 151.762 112.202 151.582C108.213 150.872 105.38 147.559 105.048 143.521C104.943 142.243 104.84 140.966 104.734 139.689C104.593 137.984 103.398 136.631 101.688 136.603V136.603C101.286 136.605 100.884 136.607 100.482 136.609C93.6816 136.633 88.2897 142.304 88.9332 149.074C89.1009 150.839 89.287 152.602 89.4934 154.363C90.0504 159.115 93.5508 162.946 98.1801 164.158C100.126 164.668 102.071 165.183 104.013 165.712C110.875 167.58 117.823 169.134 124.697 170.97V170.97C126.067 171.262 127.284 172.509 127.344 173.908C127.481 177.088 127.419 180.276 127.384 183.463C127.355 185.999 129.629 187.901 132.052 187.152V187.152C142.488 184.318 152.914 181.441 163.342 178.572C168.018 177.286 171.458 173.313 171.871 168.481C172.082 166.006 172.28 163.529 172.527 161.058C173.879 145.473 175.243 129.888 176.661 114.306C177.915 100.859 179.041 87.401 180.238 73.9485C180.864 66.9016 175.319 60.8164 168.244 60.814C158.003 60.8104 147.763 60.7993 137.523 60.8127Z" fill="#0170BA"/>
</g>
<path d="M127.422 60.8351C145.425 60.777 163.428 60.8274 181.435 60.8119C179.761 78.6369 178.324 96.4812 176.661 114.306C175.243 129.888 173.879 145.473 172.527 161.058C172.015 166.185 171.713 171.335 171.066 176.45C158.061 180.019 145.064 183.618 132.052 187.152C130.522 187.625 128.964 188.017 127.379 188.272C127.294 182.642 127.646 176.992 127.189 171.377C127.305 171.354 127.542 171.308 127.658 171.284C139.76 168.246 151.78 164.902 163.854 161.756C165.381 144.628 167.074 127.508 168.148 110.346C157.879 110.4 147.606 110.369 137.338 110.412C135.842 110.42 134.346 110.412 132.858 110.303C138.384 107.459 144.196 105.204 149.869 102.666C155.314 100.197 160.824 97.884 166.288 95.4621C167.342 94.9778 168.466 94.5747 169.392 93.854C169.756 92.5171 169.737 91.1182 169.88 89.7504C170.194 85.4104 170.752 81.0936 170.961 76.7497C156.418 76.6335 141.875 76.7342 127.329 76.6567C127.491 71.3867 127.329 66.109 127.422 60.8351Z" fill="#29A9DF"/>
<path d="M127.495 126.637C134.517 126.516 141.542 126.706 148.567 126.66C148.176 133.84 147.579 141.009 147.207 148.189C142.902 149.596 138.531 150.785 134.191 152.087C131.878 152.793 129.502 153.351 127.301 154.385C127.584 145.14 127.208 135.882 127.495 126.637Z" fill="#29A9DF"/>
<path d="M81.894 76.6606C97.0376 76.6451 112.185 76.6025 127.328 76.6568C127.526 93.3193 127.278 109.982 127.495 126.636C121.477 126.768 115.455 126.648 109.438 126.679C101.928 126.691 94.4219 126.811 86.9122 126.838C86.5131 121.227 85.6063 115.635 85.5017 110.013C86.4511 109.323 87.5864 108.967 88.6482 108.494C101.029 103.08 113.506 97.8724 125.833 92.3428C111.743 91.9204 97.6343 92.4629 83.5448 91.9398C82.8395 86.8635 82.1537 81.7795 81.894 76.6606Z" fill="#CFCFCF"/>
<path d="M88.032 136.657C92.5852 136.587 97.1383 136.63 101.688 136.603C102.625 136.618 103.586 136.591 104.493 136.87C104.888 141.311 105.198 145.763 105.644 150.2C108.779 151.111 112.038 151.471 115.219 152.165C119.253 152.882 123.252 153.785 127.301 154.385C127.689 160.012 127.011 165.677 127.658 171.284C127.542 171.307 127.305 171.354 127.189 171.377C126.34 171.447 125.515 171.145 124.697 170.97C117.823 169.134 110.875 167.58 104.013 165.712C99.5331 164.491 95.0381 163.344 90.5508 162.174C89.2449 153.719 88.4777 145.194 88.032 136.657Z" fill="#CFCFCF"/>
<path d="M127.329 76.6568C141.875 76.7343 156.418 76.6335 170.961 76.7497C170.752 81.0936 170.194 85.4104 169.88 89.7504C169.737 91.1183 169.756 92.5171 169.392 93.854C168.466 94.5748 167.342 94.9778 166.288 95.4621C160.824 97.884 155.314 100.197 149.869 102.666C144.196 105.204 138.384 107.459 132.858 110.303C134.346 110.412 135.842 110.42 137.338 110.412C147.606 110.369 157.879 110.4 168.148 110.346C167.074 127.508 165.381 144.628 163.854 161.756C151.78 164.902 139.76 168.246 127.658 171.284C127.011 165.677 127.689 160.012 127.301 154.385C129.502 153.351 131.878 152.793 134.191 152.088C138.531 150.786 142.902 149.596 147.207 148.189C147.579 141.009 148.176 133.84 148.567 126.66C141.542 126.706 134.517 126.516 127.495 126.637C127.278 109.982 127.526 93.3193 127.329 76.6568Z" fill="white"/>
<defs>
<filter id="filter0_d" x="61" y="50" width="135.322" height="154.176" filterUnits="userSpaceOnUse" color-interpolation-filters="sRGB">
<feFlood flood-opacity="0" result="BackgroundImageFix"/>
<feColorMatrix in="SourceAlpha" type="matrix" values="0 0 0 0 0 0 0 0 0 0 0 0 0 0 0 0 0 0 127 0"/>
<feOffset dx="4" dy="4"/>
<feColorMatrix type="matrix" values="0 0 0 0 0 0 0 0 0 0 0 0 0 0 0 0 0 0 0.25 0"/>
<feBlend mode="normal" in2="BackgroundImageFix" result="effect1_dropShadow"/>
<feBlend mode="normal" in="SourceGraphic" in2="effect1_dropShadow" result="shape"/>
</filter>
</defs>
</svg>
