<svg width="304" height="300" viewBox="0 0 304 300" fill="none" xmlns="http://www.w3.org/2000/svg">
<rect width="303.6" height="300" fill="#0170BA"/>
<g filter="url(#filter0_d)">
<path d="M73.2 60.8749C73.2 60.3947 73.5893 60.0053 74.0696 60.0053C122.384 60.0011 170.694 59.9969 219.007 60.0033C226.051 60.0043 231.58 66.0442 230.96 73.0611C228.437 101.654 225.928 130.247 223.293 158.832C221.727 177.101 220.119 195.369 218.439 213.629C217.978 218.64 214.432 222.821 209.585 224.175C201.011 226.571 192.472 229.096 183.87 231.386C173.54 234.417 163.127 237.163 152.791 240.169C152.694 240.197 152.594 240.211 152.493 240.211V240.211C152.391 240.211 152.288 240.197 152.19 240.167C142.357 237.247 132.429 234.673 122.597 231.748C113.613 229.327 104.69 226.69 95.7312 224.176C90.9127 222.824 87.3875 218.669 86.9223 213.686C85.7077 200.676 84.5788 187.661 83.4626 174.646C80.9097 145.496 78.1337 116.363 75.6785 87.2079C74.8275 78.4333 74.2184 69.6309 73.2 60.8749V60.8749ZM164.658 72.9758C158.128 72.9847 154.779 77.8942 159.628 82.2677C159.81 82.4321 159.992 82.5965 160.174 82.7609C165 87.1153 161.625 91.9748 155.125 91.9668C141.489 91.9499 124.656 91.9644 110.878 91.9791C104.017 91.9864 101.651 96.5454 107.909 99.3594C108.927 99.8175 109.952 100.275 110.942 100.739C116.213 103.209 122.699 107.025 128.511 106.692C134.429 106.352 141.543 105.716 149.039 104.983C161.719 103.744 163.908 114.099 151.901 118.361C146.618 120.236 141.894 122.013 138.263 123.6C137.312 124.023 118.566 128.038 108.633 130.394C104.818 131.298 102.617 134.354 102.948 138.26C103.026 139.188 103.114 140.115 103.207 141.042C103.834 147.324 109.198 152.183 115.512 152.125C120.782 152.076 126.053 152.023 131.325 152.015C134.33 151.999 137.336 152.015 140.343 152.028C147.219 152.056 153.083 157.748 154.103 164.549C155.01 170.591 156.285 177.288 157.224 183.387C158.317 190.485 152.97 193.776 147.559 189.055C143.994 185.946 140.516 182.998 138.263 182.598C137.063 182.336 135.854 182.114 134.643 181.899C129.856 181.047 126.456 177.071 126.058 172.225C125.932 170.692 125.809 169.159 125.681 167.626C125.511 165.581 124.077 163.958 122.025 163.924V163.924C120.713 163.931 119.401 163.934 118.089 163.936C111.288 163.942 105.904 169.634 106.494 176.409C106.796 179.879 107.155 183.343 107.58 186.801C108.164 191.55 111.66 195.385 116.291 196.591C119.135 197.333 121.977 198.081 124.815 198.854C133.05 201.096 141.388 202.96 149.637 205.164V205.164C151.28 205.515 152.741 207.011 152.813 208.69C152.978 212.506 152.903 216.331 152.86 220.156C152.826 223.198 155.555 225.481 158.463 224.583V224.583C171.501 221.042 184.527 217.445 197.555 213.862C202.231 212.576 205.681 208.604 206.107 203.773C206.415 200.272 206.683 196.766 207.032 193.27C208.655 174.567 210.291 155.865 211.993 137.167C213.58 120.155 214.996 103.129 216.52 86.1104C217.151 79.0639 211.606 72.9791 204.531 72.9775C191.239 72.9745 177.948 72.9577 164.658 72.9758Z" fill="#0170BA"/>
</g>
<path d="M152.906 73.0021C174.51 72.9324 196.114 72.9928 217.722 72.9742C215.713 94.3643 213.988 115.778 211.993 137.168C210.292 155.865 208.655 174.567 207.032 193.27C206.418 199.422 206.055 205.602 205.279 211.74C189.673 216.022 174.077 220.342 158.463 224.583C156.626 225.15 154.757 225.62 152.855 225.927C152.752 219.17 153.176 212.391 152.627 205.653C152.766 205.625 153.05 205.569 153.19 205.541C167.711 201.896 182.136 197.883 196.625 194.107C198.457 173.554 200.489 153.01 201.777 132.415C189.455 132.48 177.128 132.443 164.805 132.494C163.01 132.504 161.215 132.494 159.43 132.364C166.061 128.951 173.036 126.245 179.843 123.199C186.377 120.237 192.989 117.461 199.545 114.555C200.81 113.973 202.159 113.49 203.27 112.625C203.707 111.021 203.684 109.342 203.856 107.7C204.233 102.492 204.902 97.3124 205.153 92.0997C187.702 91.9602 170.25 92.0811 152.794 91.9881C152.99 85.6641 152.794 79.3308 152.906 73.0021Z" fill="#29A9DF"/>
<path d="M152.994 151.964C161.42 151.82 169.85 152.048 178.281 151.992C177.811 160.608 177.095 169.211 176.649 177.827C171.483 179.515 166.237 180.943 161.029 182.505C158.253 183.351 155.403 184.021 152.762 185.262C153.101 174.168 152.65 163.059 152.994 151.964Z" fill="#29A9DF"/>
<path d="M98.2728 91.9928C116.445 91.9742 134.622 91.923 152.794 91.9881C153.031 111.983 152.734 131.978 152.994 151.964C145.773 152.122 138.547 151.978 131.325 152.015C122.313 152.029 113.306 152.173 104.295 152.206C103.816 145.472 102.728 138.762 102.602 132.015C103.741 131.188 105.104 130.76 106.378 130.193C121.235 123.696 136.208 117.447 150.999 110.811C134.092 110.304 117.161 110.955 100.254 110.328C99.4074 104.236 98.5844 98.1354 98.2728 91.9928Z" fill="#CFCFCF"/>
<path d="M105.638 163.989C111.102 163.905 116.566 163.956 122.025 163.924C123.15 163.942 124.304 163.91 125.392 164.244C125.866 169.573 126.238 174.916 126.773 180.24C130.535 181.333 134.445 181.766 138.263 182.598C143.104 183.458 147.902 184.542 152.762 185.262C153.227 192.014 152.413 198.812 153.189 205.541C153.05 205.569 152.766 205.625 152.627 205.653C151.608 205.736 150.618 205.374 149.637 205.164C141.388 202.96 133.05 201.096 124.815 198.854C119.44 197.39 114.046 196.013 108.661 194.609C107.094 184.463 106.173 174.233 105.638 163.989Z" fill="#CFCFCF"/>
<path d="M152.794 91.9881C170.25 92.0811 187.702 91.9602 205.153 92.0997C204.902 97.3123 204.233 102.492 203.856 107.7C203.684 109.342 203.707 111.021 203.27 112.625C202.159 113.49 200.81 113.973 199.545 114.555C192.989 117.461 186.377 120.237 179.843 123.199C173.036 126.245 166.061 128.951 159.43 132.364C161.215 132.494 163.01 132.504 164.805 132.494C177.128 132.443 189.455 132.48 201.777 132.415C200.489 153.01 198.457 173.554 196.625 194.107C182.136 197.883 167.711 201.896 153.189 205.541C152.413 198.813 153.227 192.014 152.762 185.262C155.403 184.021 158.253 183.351 161.029 182.505C166.237 180.943 171.483 179.515 176.649 177.827C177.095 169.211 177.811 160.608 178.281 151.992C169.85 152.048 161.42 151.82 152.994 151.964C152.734 131.978 153.031 111.983 152.794 91.9881Z" fill="white"/>
<defs>
<filter id="filter0_d" x="73.2" y="60" width="161.808" height="184.211" filterUnits="userSpaceOnUse" color-interpolation-filters="sRGB">
<feFlood flood-opacity="0" result="BackgroundImageFix"/>
<feColorMatrix in="SourceAlpha" type="matrix" values="0 0 0 0 0 0 0 0 0 0 0 0 0 0 0 0 0 0 127 0"/>
<feOffset dx="4" dy="4"/>
<feColorMatrix type="matrix" values="0 0 0 0 0 0 0 0 0 0 0 0 0 0 0 0 0 0 0.25 0"/>
<feBlend mode="normal" in2="BackgroundImageFix" result="effect1_dropShadow"/>
<feBlend mode="normal" in="SourceGraphic" in2="effect1_dropShadow" result="shape"/>
</filter>
</defs>
</svg>
