<svg width="116" height="89" viewBox="0 0 116 89" fill="none" xmlns="http://www.w3.org/2000/svg">
<rect x="5" y="2.97241" width="106" height="4.95402" fill="#DC486A"/>
<path d="M108 52.5126C108 46.0069 106.707 39.5649 104.194 33.5544C101.681 27.5439 97.9983 22.0826 93.3553 17.4824C88.7124 12.8822 83.2004 9.23306 77.1342 6.74343C71.0679 4.2538 64.5661 2.97241 58 2.97241C51.4339 2.97241 44.9321 4.25381 38.8658 6.74344C32.7995 9.23306 27.2876 12.8822 22.6447 17.4824C18.0017 22.0826 14.3188 27.5439 11.806 33.5544C9.29328 39.5649 8 46.0069 8 52.5126H14C14 46.7555 14.8977 41.0547 17.1213 35.7358C19.3449 30.4169 22.6041 25.5841 26.7128 21.5131C30.8215 17.4422 35.6992 14.213 41.0675 12.0099C46.4358 9.8067 52.1894 8.67275 58 8.67275C63.8106 8.67275 69.5642 9.8067 74.9325 12.0099C80.3008 14.213 85.1785 17.4422 89.2872 21.5131C93.3959 25.584 96.6551 30.4169 98.8787 35.7358C101.102 41.0547 102 46.7554 102 52.5126H108Z" fill="#DC486A"/>
<ellipse cx="11" cy="52.5126" rx="6" ry="5.94482" fill="#DC486A"/>
<ellipse cx="105" cy="52.5126" rx="6" ry="5.94482" fill="black"/>
<ellipse cx="105" cy="52.5126" rx="6" ry="5.94482" fill="#DC486A"/>
<ellipse cx="58" cy="5.94482" rx="6" ry="5.94482" fill="#DC486A"/>
<ellipse cx="11" cy="52.5125" rx="4" ry="3.96321" fill="#15161C"/>
<ellipse cx="105" cy="52.5125" rx="4" ry="3.96321" fill="#15161C"/>
<ellipse cx="58" cy="5.94478" rx="4" ry="3.96321" fill="#15161C"/>
<rect width="11" height="10.8988" rx="1" fill="#DC486A"/>
<rect x="2" y="1.98157" width="7" height="6.93562" rx="1" fill="#15161C"/>
<rect x="105" width="11" height="10.8988" rx="1" fill="#DC486A"/>
<rect x="107" y="1.98157" width="7" height="6.93562" rx="1" fill="#15161C"/>
<path d="M34.8464 64.2084L58 20.0725L81.1536 64.2084L58 86.8997L34.8464 64.2084ZM58.4424 19.2292L58.4428 19.2285L58 18.9962L58.4428 19.2285C58.4427 19.2287 58.4425 19.229 58.4424 19.2292Z" fill="#15161C" stroke="#DC486A" stroke-width="3"/>
<mask id="mask0" mask-type="alpha" maskUnits="userSpaceOnUse" x="33" y="17" width="50" height="72">
<path d="M57.1145 18.5317C57.489 17.8177 58.511 17.8177 58.8855 18.5317L83 64.4991L58 89L33 64.4991L57.1145 18.5317Z" fill="white"/>
</mask>
<g mask="url(#mask0)">
<path d="M51.0649 77.1535C51.0649 86.4235 43.4766 93.9619 34.0867 93.9619C24.6967 93.9619 17.1084 86.4235 17.1084 77.1535C17.1084 67.8836 24.6967 60.3452 34.0867 60.3452C43.4766 60.3452 51.0649 67.8836 51.0649 77.1535Z" fill="#15161C" stroke="#DC486A" stroke-width="3"/>
<path d="M99.978 77.1535C99.978 86.4235 92.3897 93.9619 82.9997 93.9619C73.6098 93.9619 66.0215 86.4235 66.0215 77.1535C66.0215 67.8836 73.6098 60.3452 82.9997 60.3452C92.3897 60.3452 99.978 67.8836 99.978 77.1535Z" fill="#15161C" stroke="#DC486A" stroke-width="3"/>
<path d="M63.435 54.5373C63.435 57.5112 61.0018 59.9221 58.0002 59.9221C54.9987 59.9221 52.5654 57.5112 52.5654 54.5373C52.5654 51.5633 54.9987 49.1525 58.0002 49.1525C61.0018 49.1525 63.435 51.5633 63.435 54.5373ZM54.4113 54.5373C54.4113 56.5011 56.0181 58.0932 58.0002 58.0932C59.9823 58.0932 61.5891 56.5011 61.5891 54.5373C61.5891 52.5734 59.9823 50.9814 58.0002 50.9814C56.0181 50.9814 54.4113 52.5734 54.4113 54.5373Z" fill="#DC486A"/>
</g>
<rect x="57" y="22.7885" width="2" height="27.7425" fill="#DC486A"/>
</svg>
