<svg width="390" height="158" viewBox="0 0 390 158" fill="none" xmlns="http://www.w3.org/2000/svg">
<rect width="390" height="158" fill="#15161C"/>
<path d="M139.703 99.75H144.728C146.478 99.75 147.745 100.225 148.528 101.175C149.328 102.125 149.728 103.517 149.728 105.35C149.728 107 149.303 108.283 148.453 109.2C147.603 110.117 146.37 110.575 144.753 110.575H142.528V120H139.703V99.75ZM143.828 108.55C144.661 108.55 145.303 108.458 145.753 108.275C146.22 108.092 146.553 107.775 146.753 107.325C146.953 106.875 147.053 106.225 147.053 105.375C147.053 104.342 146.978 103.583 146.828 103.1C146.678 102.617 146.378 102.275 145.928 102.075C145.495 101.875 144.803 101.775 143.853 101.775H142.528V108.55H143.828ZM151.565 105.55H154.24V107.6C154.74 106.783 155.248 106.208 155.765 105.875C156.298 105.542 156.856 105.375 157.44 105.375C157.59 105.375 157.731 105.383 157.865 105.4V108.35C157.331 108.15 156.84 108.05 156.39 108.05C155.956 108.05 155.565 108.158 155.215 108.375C154.881 108.575 154.556 108.933 154.24 109.45V120H151.565V105.55ZM163.497 120.2C161.964 120.2 160.872 119.75 160.222 118.85C159.589 117.933 159.272 116.608 159.272 114.875V110.675C159.272 108.942 159.589 107.625 160.222 106.725C160.872 105.808 161.964 105.35 163.497 105.35C165.014 105.35 166.089 105.808 166.722 106.725C167.372 107.625 167.697 108.942 167.697 110.675V114.875C167.697 116.608 167.372 117.933 166.722 118.85C166.089 119.75 165.014 120.2 163.497 120.2ZM163.497 118.225C163.98 118.225 164.33 118.083 164.547 117.8C164.764 117.517 164.897 117.167 164.947 116.75C164.997 116.333 165.022 115.767 165.022 115.05V110.525C165.022 109.808 164.997 109.242 164.947 108.825C164.897 108.392 164.764 108.033 164.547 107.75C164.33 107.467 163.98 107.325 163.497 107.325C163.014 107.325 162.655 107.467 162.422 107.75C162.205 108.033 162.072 108.392 162.022 108.825C161.972 109.242 161.947 109.808 161.947 110.525V115.05C161.947 115.767 161.972 116.333 162.022 116.75C162.072 117.167 162.205 117.517 162.422 117.8C162.655 118.083 163.014 118.225 163.497 118.225ZM173.892 124.475C172.492 124.475 171.375 124.25 170.542 123.8C169.709 123.367 169.292 122.683 169.292 121.75C169.292 121.117 169.484 120.567 169.867 120.1C170.267 119.633 170.767 119.258 171.367 118.975C170.917 118.842 170.567 118.633 170.317 118.35C170.084 118.067 169.967 117.758 169.967 117.425C169.967 116.925 170.092 116.492 170.342 116.125C170.592 115.758 171 115.317 171.567 114.8C171 114.367 170.575 113.825 170.292 113.175C170.025 112.508 169.892 111.617 169.892 110.5C169.892 108.817 170.234 107.542 170.917 106.675C171.617 105.792 172.634 105.35 173.967 105.35C174.734 105.35 175.359 105.483 175.842 105.75C176.325 106.017 176.692 106.417 176.942 106.95C177.059 106.767 177.3 106.525 177.667 106.225C178.05 105.908 178.459 105.65 178.892 105.45L179.292 105.275L179.967 107C179.634 107.067 179.167 107.208 178.567 107.425C177.984 107.642 177.634 107.808 177.517 107.925C177.634 108.225 177.734 108.642 177.817 109.175C177.917 109.708 177.967 110.175 177.967 110.575C177.967 112.158 177.659 113.392 177.042 114.275C176.425 115.142 175.4 115.575 173.967 115.575C173.517 115.575 173.059 115.517 172.592 115.4C172.275 115.867 172.117 116.233 172.117 116.5C172.117 116.683 172.209 116.833 172.392 116.95C172.592 117.05 172.9 117.117 173.317 117.15L175.567 117.35C176.7 117.45 177.542 117.792 178.092 118.375C178.642 118.958 178.917 119.792 178.917 120.875C178.917 123.275 177.242 124.475 173.892 124.475ZM173.967 113.7C174.684 113.7 175.15 113.45 175.367 112.95C175.584 112.45 175.692 111.633 175.692 110.5C175.692 109.35 175.584 108.517 175.367 108C175.15 107.467 174.692 107.2 173.992 107.2C173.292 107.2 172.817 107.467 172.567 108C172.334 108.517 172.217 109.35 172.217 110.5C172.217 111.533 172.334 112.325 172.567 112.875C172.817 113.425 173.284 113.7 173.967 113.7ZM174.092 122.375C175.042 122.375 175.742 122.258 176.192 122.025C176.642 121.808 176.867 121.45 176.867 120.95C176.867 120.483 176.725 120.142 176.442 119.925C176.159 119.692 175.642 119.542 174.892 119.475L172.617 119.275C172.267 119.625 172 119.933 171.817 120.2C171.634 120.467 171.542 120.758 171.542 121.075C171.542 121.525 171.725 121.85 172.092 122.05C172.475 122.267 173.142 122.375 174.092 122.375ZM181.081 105.55H183.756V107.6C184.256 106.783 184.765 106.208 185.281 105.875C185.815 105.542 186.373 105.375 186.956 105.375C187.106 105.375 187.248 105.383 187.381 105.4V108.35C186.848 108.15 186.356 108.05 185.906 108.05C185.473 108.05 185.081 108.158 184.731 108.375C184.398 108.575 184.073 108.933 183.756 109.45V120H181.081V105.55ZM191.638 120.2C191.088 120.2 190.588 120.042 190.138 119.725C189.705 119.408 189.363 118.992 189.113 118.475C188.863 117.958 188.738 117.417 188.738 116.85C188.738 115.717 188.98 114.8 189.463 114.1C189.947 113.383 190.563 112.817 191.313 112.4C192.063 111.983 193.105 111.508 194.438 110.975V109.95C194.438 109 194.338 108.333 194.138 107.95C193.955 107.55 193.572 107.35 192.988 107.35C191.972 107.35 191.463 108.033 191.463 109.4V110.125L188.813 110.025C188.847 108.425 189.213 107.25 189.913 106.5C190.613 105.733 191.697 105.35 193.163 105.35C194.547 105.35 195.547 105.733 196.163 106.5C196.797 107.25 197.113 108.392 197.113 109.925V116.525C197.113 117.608 197.197 118.767 197.363 120H194.913C194.73 119.05 194.613 118.342 194.563 117.875C194.363 118.525 194.013 119.075 193.513 119.525C193.03 119.975 192.405 120.2 191.638 120.2ZM192.688 117.9C193.038 117.9 193.38 117.767 193.713 117.5C194.047 117.217 194.288 116.95 194.438 116.7V112.6C193.722 113 193.163 113.35 192.763 113.65C192.38 113.933 192.055 114.267 191.788 114.65C191.538 115.033 191.413 115.492 191.413 116.025C191.413 116.625 191.522 117.092 191.738 117.425C191.955 117.742 192.272 117.9 192.688 117.9ZM199.683 105.55H202.158V106.925C202.641 106.392 203.166 105.992 203.733 105.725C204.316 105.442 204.925 105.3 205.558 105.3C206.791 105.3 207.575 105.908 207.908 107.125C208.908 105.908 210.108 105.3 211.508 105.3C212.258 105.3 212.866 105.575 213.333 106.125C213.816 106.675 214.058 107.517 214.058 108.65V120H211.608V108.825C211.608 108.158 211.5 107.7 211.283 107.45C211.066 107.183 210.758 107.05 210.358 107.05C209.991 107.05 209.608 107.158 209.208 107.375C208.808 107.575 208.441 107.858 208.108 108.225V108.65V120H205.658V108.825C205.658 108.158 205.55 107.7 205.333 107.45C205.116 107.183 204.808 107.05 204.408 107.05C204.058 107.05 203.683 107.158 203.283 107.375C202.883 107.575 202.508 107.858 202.158 108.225V120H199.683V105.55ZM216.675 105.55H219.15V106.925C219.634 106.392 220.159 105.992 220.725 105.725C221.309 105.442 221.917 105.3 222.55 105.3C223.784 105.3 224.567 105.908 224.9 107.125C225.9 105.908 227.1 105.3 228.5 105.3C229.25 105.3 229.859 105.575 230.325 106.125C230.809 106.675 231.05 107.517 231.05 108.65V120H228.6V108.825C228.6 108.158 228.492 107.7 228.275 107.45C228.059 107.183 227.75 107.05 227.35 107.05C226.984 107.05 226.6 107.158 226.2 107.375C225.8 107.575 225.434 107.858 225.1 108.225V108.65V120H222.65V108.825C222.65 108.158 222.542 107.7 222.325 107.45C222.109 107.183 221.8 107.05 221.4 107.05C221.05 107.05 220.675 107.158 220.275 107.375C219.875 107.575 219.5 107.858 219.15 108.225V120H216.675V105.55ZM237.667 120.2C236.551 120.2 235.684 119.992 235.067 119.575C234.451 119.142 234.017 118.508 233.767 117.675C233.517 116.842 233.392 115.758 233.392 114.425V111.125C233.392 109.125 233.701 107.667 234.317 106.75C234.951 105.817 236.067 105.35 237.667 105.35C238.834 105.35 239.709 105.592 240.292 106.075C240.892 106.558 241.284 107.242 241.467 108.125C241.667 108.992 241.767 110.167 241.767 111.65V112.825H236.067V115.725C236.067 116.608 236.192 117.25 236.442 117.65C236.709 118.033 237.126 118.225 237.692 118.225C238.259 118.225 238.642 118.033 238.842 117.65C239.042 117.25 239.142 116.65 239.142 115.85V114.975H241.742V115.525C241.742 117.042 241.417 118.2 240.767 119C240.117 119.8 239.084 120.2 237.667 120.2ZM239.142 111.375V110.075C239.142 109.092 239.042 108.392 238.842 107.975C238.659 107.542 238.259 107.325 237.642 107.325C237.209 107.325 236.876 107.425 236.642 107.625C236.426 107.825 236.276 108.158 236.192 108.625C236.109 109.075 236.067 109.733 236.067 110.6V111.375H239.142ZM244.265 105.55H246.94V107.6C247.44 106.783 247.948 106.208 248.465 105.875C248.998 105.542 249.557 105.375 250.14 105.375C250.29 105.375 250.432 105.383 250.565 105.4V108.35C250.032 108.15 249.54 108.05 249.09 108.05C248.657 108.05 248.265 108.158 247.915 108.375C247.582 108.575 247.257 108.933 246.94 109.45V120H244.265V105.55Z" fill="#DC486A"/>
<path d="M35.655 36.4H45.435C50.355 36.4 53.955 37.42 56.235 39.46C58.555 41.46 59.715 44.74 59.715 49.3C59.715 55.54 57.715 59.32 53.715 60.64L60.615 85H54.075L47.715 62.2H42.435V85H35.655V36.4ZM45.015 57.34C47.935 57.34 50.015 56.76 51.255 55.6C52.535 54.44 53.175 52.34 53.175 49.3C53.175 47.3 52.955 45.74 52.515 44.62C52.075 43.46 51.295 42.62 50.175 42.1C49.055 41.54 47.475 41.26 45.435 41.26H42.435V57.34H45.015ZM75.7683 85.48C72.0883 85.48 69.4683 84.4 67.9083 82.24C66.3883 80.04 65.6283 76.86 65.6283 72.7V62.62C65.6283 58.46 66.3883 55.3 67.9083 53.14C69.4683 50.94 72.0883 49.84 75.7683 49.84C79.4083 49.84 81.9883 50.94 83.5083 53.14C85.0683 55.3 85.8483 58.46 85.8483 62.62V72.7C85.8483 76.86 85.0683 80.04 83.5083 82.24C81.9883 84.4 79.4083 85.48 75.7683 85.48ZM75.7683 80.74C76.9283 80.74 77.7683 80.4 78.2883 79.72C78.8083 79.04 79.1283 78.2 79.2483 77.2C79.3683 76.2 79.4283 74.84 79.4283 73.12V62.26C79.4283 60.54 79.3683 59.18 79.2483 58.18C79.1283 57.14 78.8083 56.28 78.2883 55.6C77.7683 54.92 76.9283 54.58 75.7683 54.58C74.6083 54.58 73.7483 54.92 73.1883 55.6C72.6683 56.28 72.3483 57.14 72.2283 58.18C72.1083 59.18 72.0483 60.54 72.0483 62.26V73.12C72.0483 74.84 72.1083 76.2 72.2283 77.2C72.3483 78.2 72.6683 79.04 73.1883 79.72C73.7483 80.4 74.6083 80.74 75.7683 80.74ZM99.7566 85.48C96.7566 85.48 94.5566 84.4 93.1566 82.24C91.7566 80.04 91.0566 76.42 91.0566 71.38V64.66C91.0566 60.06 91.6566 56.44 92.8566 53.8C94.0966 51.16 96.3366 49.84 99.5766 49.84C101.617 49.84 103.537 50.74 105.337 52.54V36.4H111.757V85H105.337V82.78C103.657 84.58 101.797 85.48 99.7566 85.48ZM101.377 80.44C102.657 80.44 103.977 80 105.337 79.12V56.38C103.857 55.38 102.497 54.88 101.257 54.88C98.7366 54.88 97.4766 57.3 97.4766 62.14V71.92C97.4766 74.72 97.7366 76.84 98.2566 78.28C98.7766 79.72 99.8166 80.44 101.377 80.44ZM118.44 50.32H124.86V55.24C126.06 53.28 127.28 51.9 128.52 51.1C129.8 50.3 131.14 49.9 132.54 49.9C132.9 49.9 133.24 49.92 133.56 49.96V57.04C132.28 56.56 131.1 56.32 130.02 56.32C128.98 56.32 128.04 56.58 127.2 57.1C126.4 57.58 125.62 58.44 124.86 59.68V85H118.44V50.32ZM137.957 38.44H144.377V45.16H137.957V38.44ZM137.957 50.32H144.377V85H137.957V50.32ZM160.248 95.74C156.888 95.74 154.208 95.2 152.208 94.12C150.208 93.08 149.208 91.44 149.208 89.2C149.208 87.68 149.668 86.36 150.588 85.24C151.548 84.12 152.748 83.22 154.188 82.54C153.108 82.22 152.268 81.72 151.668 81.04C151.108 80.36 150.828 79.62 150.828 78.82C150.828 77.62 151.128 76.58 151.728 75.7C152.328 74.82 153.308 73.76 154.668 72.52C153.308 71.48 152.288 70.18 151.608 68.62C150.968 67.02 150.648 64.88 150.648 62.2C150.648 58.16 151.468 55.1 153.108 53.02C154.788 50.9 157.228 49.84 160.428 49.84C162.268 49.84 163.768 50.16 164.928 50.8C166.088 51.44 166.968 52.4 167.568 53.68C167.848 53.24 168.428 52.66 169.308 51.94C170.228 51.18 171.208 50.56 172.248 50.08L173.208 49.66L174.828 53.8C174.028 53.96 172.908 54.3 171.468 54.82C170.068 55.34 169.228 55.74 168.948 56.02C169.228 56.74 169.468 57.74 169.668 59.02C169.908 60.3 170.028 61.42 170.028 62.38C170.028 66.18 169.288 69.14 167.808 71.26C166.328 73.34 163.868 74.38 160.428 74.38C159.348 74.38 158.248 74.24 157.128 73.96C156.368 75.08 155.988 75.96 155.988 76.6C155.988 77.04 156.208 77.4 156.648 77.68C157.128 77.92 157.868 78.08 158.868 78.16L164.268 78.64C166.988 78.88 169.008 79.7 170.328 81.1C171.648 82.5 172.308 84.5 172.308 87.1C172.308 92.86 168.288 95.74 160.248 95.74ZM160.428 69.88C162.148 69.88 163.268 69.28 163.788 68.08C164.308 66.88 164.568 64.92 164.568 62.2C164.568 59.44 164.308 57.44 163.788 56.2C163.268 54.92 162.168 54.28 160.488 54.28C158.808 54.28 157.668 54.92 157.068 56.2C156.508 57.44 156.228 59.44 156.228 62.2C156.228 64.68 156.508 66.58 157.068 67.9C157.668 69.22 158.788 69.88 160.428 69.88ZM160.728 90.7C163.008 90.7 164.688 90.42 165.768 89.86C166.848 89.34 167.388 88.48 167.388 87.28C167.388 86.16 167.048 85.34 166.368 84.82C165.688 84.26 164.448 83.9 162.648 83.74L157.188 83.26C156.348 84.1 155.708 84.84 155.268 85.48C154.828 86.12 154.608 86.82 154.608 87.58C154.608 88.66 155.048 89.44 155.928 89.92C156.848 90.44 158.448 90.7 160.728 90.7ZM186.628 85.48C182.948 85.48 180.328 84.4 178.768 82.24C177.248 80.04 176.488 76.86 176.488 72.7V62.62C176.488 58.46 177.248 55.3 178.768 53.14C180.328 50.94 182.948 49.84 186.628 49.84C190.268 49.84 192.848 50.94 194.368 53.14C195.928 55.3 196.708 58.46 196.708 62.62V72.7C196.708 76.86 195.928 80.04 194.368 82.24C192.848 84.4 190.268 85.48 186.628 85.48ZM186.628 80.74C187.788 80.74 188.628 80.4 189.148 79.72C189.668 79.04 189.988 78.2 190.108 77.2C190.228 76.2 190.288 74.84 190.288 73.12V62.26C190.288 60.54 190.228 59.18 190.108 58.18C189.988 57.14 189.668 56.28 189.148 55.6C188.628 54.92 187.788 54.58 186.628 54.58C185.468 54.58 184.608 54.92 184.048 55.6C183.528 56.28 183.208 57.14 183.088 58.18C182.968 59.18 182.908 60.54 182.908 62.26V73.12C182.908 74.84 182.968 76.2 183.088 77.2C183.208 78.2 183.528 79.04 184.048 79.72C184.608 80.4 185.468 80.74 186.628 80.74ZM228.287 85.54C224.207 85.54 221.087 84.28 218.927 81.76C216.807 79.24 215.627 75.78 215.387 71.38L221.387 69.76C221.587 72.88 222.187 75.4 223.187 77.32C224.227 79.24 225.927 80.2 228.287 80.2C230.047 80.2 231.367 79.72 232.247 78.76C233.167 77.76 233.627 76.34 233.627 74.5C233.627 72.5 233.207 70.84 232.367 69.52C231.527 68.2 230.187 66.74 228.347 65.14L220.187 57.94C218.547 56.5 217.347 54.96 216.587 53.32C215.867 51.64 215.507 49.6 215.507 47.2C215.507 43.64 216.527 40.88 218.567 38.92C220.607 36.96 223.387 35.98 226.907 35.98C230.747 35.98 233.647 37 235.607 39.04C237.567 41.08 238.747 44.24 239.147 48.52L233.387 50.08C233.187 47.24 232.627 45.06 231.707 43.54C230.827 41.98 229.227 41.2 226.907 41.2C225.187 41.2 223.867 41.66 222.947 42.58C222.027 43.46 221.567 44.78 221.567 46.54C221.567 47.98 221.807 49.2 222.287 50.2C222.767 51.16 223.587 52.14 224.747 53.14L232.967 60.34C235.087 62.22 236.767 64.26 238.007 66.46C239.287 68.66 239.927 71.16 239.927 73.96C239.927 77.52 238.847 80.34 236.687 82.42C234.527 84.5 231.727 85.54 228.287 85.54ZM254.246 85.48C251.566 85.48 249.486 84.98 248.006 83.98C246.526 82.94 245.486 81.42 244.886 79.42C244.286 77.42 243.986 74.82 243.986 71.62V63.7C243.986 58.9 244.726 55.4 246.206 53.2C247.726 50.96 250.406 49.84 254.246 49.84C257.046 49.84 259.146 50.42 260.546 51.58C261.986 52.74 262.926 54.38 263.366 56.5C263.846 58.58 264.086 61.4 264.086 64.96V67.78H250.406V74.74C250.406 76.86 250.706 78.4 251.306 79.36C251.946 80.28 252.946 80.74 254.306 80.74C255.666 80.74 256.586 80.28 257.066 79.36C257.546 78.4 257.786 76.96 257.786 75.04V72.94H264.026V74.26C264.026 77.9 263.246 80.68 261.686 82.6C260.126 84.52 257.646 85.48 254.246 85.48ZM257.786 64.3V61.18C257.786 58.82 257.546 57.14 257.066 56.14C256.626 55.1 255.666 54.58 254.186 54.58C253.146 54.58 252.346 54.82 251.786 55.3C251.266 55.78 250.906 56.58 250.706 57.7C250.506 58.78 250.406 60.36 250.406 62.44V64.3H257.786ZM278.9 95.74C275.54 95.74 272.86 95.2 270.86 94.12C268.86 93.08 267.86 91.44 267.86 89.2C267.86 87.68 268.32 86.36 269.24 85.24C270.2 84.12 271.4 83.22 272.84 82.54C271.76 82.22 270.92 81.72 270.32 81.04C269.76 80.36 269.48 79.62 269.48 78.82C269.48 77.62 269.78 76.58 270.38 75.7C270.98 74.82 271.96 73.76 273.32 72.52C271.96 71.48 270.94 70.18 270.26 68.62C269.62 67.02 269.3 64.88 269.3 62.2C269.3 58.16 270.12 55.1 271.76 53.02C273.44 50.9 275.88 49.84 279.08 49.84C280.92 49.84 282.42 50.16 283.58 50.8C284.74 51.44 285.62 52.4 286.22 53.68C286.5 53.24 287.08 52.66 287.96 51.94C288.88 51.18 289.86 50.56 290.9 50.08L291.86 49.66L293.48 53.8C292.68 53.96 291.56 54.3 290.12 54.82C288.72 55.34 287.88 55.74 287.6 56.02C287.88 56.74 288.12 57.74 288.32 59.02C288.56 60.3 288.68 61.42 288.68 62.38C288.68 66.18 287.94 69.14 286.46 71.26C284.98 73.34 282.52 74.38 279.08 74.38C278 74.38 276.9 74.24 275.78 73.96C275.02 75.08 274.64 75.96 274.64 76.6C274.64 77.04 274.86 77.4 275.3 77.68C275.78 77.92 276.52 78.08 277.52 78.16L282.92 78.64C285.64 78.88 287.66 79.7 288.98 81.1C290.3 82.5 290.96 84.5 290.96 87.1C290.96 92.86 286.94 95.74 278.9 95.74ZM279.08 69.88C280.8 69.88 281.92 69.28 282.44 68.08C282.96 66.88 283.22 64.92 283.22 62.2C283.22 59.44 282.96 57.44 282.44 56.2C281.92 54.92 280.82 54.28 279.14 54.28C277.46 54.28 276.32 54.92 275.72 56.2C275.16 57.44 274.88 59.44 274.88 62.2C274.88 64.68 275.16 66.58 275.72 67.9C276.32 69.22 277.44 69.88 279.08 69.88ZM279.38 90.7C281.66 90.7 283.34 90.42 284.42 89.86C285.5 89.34 286.04 88.48 286.04 87.28C286.04 86.16 285.7 85.34 285.02 84.82C284.34 84.26 283.1 83.9 281.3 83.74L275.84 83.26C275 84.1 274.36 84.84 273.92 85.48C273.48 86.12 273.26 86.82 273.26 87.58C273.26 88.66 273.7 89.44 274.58 89.92C275.5 90.44 277.1 90.7 279.38 90.7ZM300.954 85.48C299.074 85.48 297.734 84.8 296.934 83.44C296.134 82.08 295.734 80.4 295.734 78.4V50.32H302.154V76.48C302.154 77.8 302.354 78.8 302.754 79.48C303.154 80.12 303.874 80.44 304.914 80.44C306.194 80.44 307.694 79.72 309.414 78.28V50.32H315.834V85H309.414V81.58C306.654 84.18 303.834 85.48 300.954 85.48ZM332 85.48C329.32 85.48 327.24 84.98 325.76 83.98C324.28 82.94 323.24 81.42 322.64 79.42C322.04 77.42 321.74 74.82 321.74 71.62V63.7C321.74 58.9 322.48 55.4 323.96 53.2C325.48 50.96 328.16 49.84 332 49.84C334.8 49.84 336.9 50.42 338.3 51.58C339.74 52.74 340.68 54.38 341.12 56.5C341.6 58.58 341.84 61.4 341.84 64.96V67.78H328.16V74.74C328.16 76.86 328.46 78.4 329.06 79.36C329.7 80.28 330.7 80.74 332.06 80.74C333.42 80.74 334.34 80.28 334.82 79.36C335.3 78.4 335.54 76.96 335.54 75.04V72.94H341.78V74.26C341.78 77.9 341 80.68 339.44 82.6C337.88 84.52 335.4 85.48 332 85.48ZM335.54 64.3V61.18C335.54 58.82 335.3 57.14 334.82 56.14C334.38 55.1 333.42 54.58 331.94 54.58C330.9 54.58 330.1 54.82 329.54 55.3C329.02 55.78 328.66 56.58 328.46 57.7C328.26 58.78 328.16 60.36 328.16 62.44V64.3H335.54ZM348.254 36.4H354.674V85H348.254V36.4Z" fill="white"/>
<path d="M35.655 36.4V35.9H35.155V36.4H35.655ZM56.235 39.46L55.9015 39.8327L55.9085 39.8387L56.235 39.46ZM53.715 60.64L53.5583 60.1652L53.1034 60.3153L53.2339 60.7763L53.715 60.64ZM60.615 85V85.5H61.2763L61.0961 84.8637L60.615 85ZM54.075 85L53.5934 85.1343L53.6954 85.5H54.075V85ZM47.715 62.2L48.1966 62.0657L48.0946 61.7H47.715V62.2ZM42.435 62.2V61.7H41.935V62.2H42.435ZM42.435 85V85.5H42.935V85H42.435ZM35.655 85H35.155V85.5H35.655V85ZM51.255 55.6L50.9192 55.2295L50.9134 55.2349L51.255 55.6ZM52.515 44.62L52.0475 44.7973L52.0496 44.8028L52.515 44.62ZM50.175 42.1L49.9514 42.5472L49.9579 42.5505L49.9644 42.5535L50.175 42.1ZM42.435 41.26V40.76H41.935V41.26H42.435ZM42.435 57.34H41.935V57.84H42.435V57.34ZM35.655 36.9H45.435V35.9H35.655V36.9ZM45.435 36.9C50.3027 36.9 53.755 37.912 55.9016 39.8326L56.5684 39.0874C54.155 36.928 50.4073 35.9 45.435 35.9V36.9ZM55.9085 39.8387C58.0735 41.705 59.215 44.8133 59.215 49.3H60.215C60.215 44.6667 59.0365 41.215 56.5615 39.0813L55.9085 39.8387ZM59.215 49.3C59.215 52.3733 58.7214 54.7887 57.7731 56.5812C56.8324 58.359 55.4336 59.5463 53.5583 60.1652L53.8717 61.1148C55.9964 60.4137 57.5976 59.051 58.657 57.0488C59.7086 55.0613 60.215 52.4667 60.215 49.3H59.215ZM53.2339 60.7763L60.1339 85.1363L61.0961 84.8637L54.1961 60.5037L53.2339 60.7763ZM60.615 84.5H54.075V85.5H60.615V84.5ZM54.5566 84.8657L48.1966 62.0657L47.2334 62.3343L53.5934 85.1343L54.5566 84.8657ZM47.715 61.7H42.435V62.7H47.715V61.7ZM41.935 62.2V85H42.935V62.2H41.935ZM42.435 84.5H35.655V85.5H42.435V84.5ZM36.155 85V36.4H35.155V85H36.155ZM45.015 57.84C47.9775 57.84 50.2167 57.256 51.5966 55.9651L50.9134 55.2349C49.8133 56.264 47.8925 56.84 45.015 56.84V57.84ZM51.5908 55.9705C53.0318 54.6645 53.675 52.3807 53.675 49.3H52.675C52.675 52.2993 52.0382 54.2155 50.9192 55.2295L51.5908 55.9705ZM53.675 49.3C53.675 47.2733 53.4535 45.6414 52.9804 44.4372L52.0496 44.8028C52.4565 45.8386 52.675 47.3267 52.675 49.3H53.675ZM52.9825 44.4427C52.4964 43.1612 51.6246 42.2218 50.3856 41.6465L49.9644 42.5535C50.9654 43.0182 51.6536 43.7588 52.0475 44.7973L52.9825 44.4427ZM50.3986 41.6528C49.1788 41.0429 47.5094 40.76 45.435 40.76V41.76C47.4406 41.76 48.9312 42.0371 49.9514 42.5472L50.3986 41.6528ZM45.435 40.76H42.435V41.76H45.435V40.76ZM41.935 41.26V57.34H42.935V41.26H41.935ZM42.435 57.84H45.015V56.84H42.435V57.84ZM67.9083 82.24L67.4968 82.5243L67.5029 82.5327L67.9083 82.24ZM67.9083 53.14L67.5004 52.8508L67.4994 52.8523L67.9083 53.14ZM83.5083 53.14L83.0968 53.4243L83.1029 53.4327L83.5083 53.14ZM83.5083 82.24L83.1004 81.9508L83.0994 81.9523L83.5083 82.24ZM78.2883 79.72L78.6855 80.0237L78.6855 80.0237L78.2883 79.72ZM79.2483 77.2L79.7447 77.2596L79.7447 77.2596L79.2483 77.2ZM79.2483 58.18L78.7516 58.2373L78.7518 58.2396L79.2483 58.18ZM78.2883 55.6L78.6855 55.2963L78.6855 55.2963L78.2883 55.6ZM73.1883 55.6L72.8023 55.2821L72.7966 55.2891L72.7911 55.2963L73.1883 55.6ZM72.2283 58.18L72.7247 58.2396L72.725 58.2373L72.2283 58.18ZM72.2283 77.2L72.7247 77.1404L72.7247 77.1404L72.2283 77.2ZM73.1883 79.72L72.7911 80.0237L72.7966 80.0309L72.8023 80.0379L73.1883 79.72ZM75.7683 84.98C72.1829 84.98 69.7467 83.9315 68.3136 81.9473L67.5029 82.5327C69.1898 84.8685 71.9937 85.98 75.7683 85.98V84.98ZM68.3196 81.9558C66.8813 79.874 66.1283 76.8108 66.1283 72.7H65.1283C65.1283 76.9092 65.8953 80.206 67.4969 82.5242L68.3196 81.9558ZM66.1283 72.7V62.62H65.1283V72.7H66.1283ZM66.1283 62.62C66.1283 58.5082 66.8817 55.4677 68.3172 53.4277L67.4994 52.8523C65.8949 55.1323 65.1283 58.4118 65.1283 62.62H66.1283ZM68.3161 53.4292C69.7506 51.4063 72.1862 50.34 75.7683 50.34V49.34C71.9904 49.34 69.186 50.4737 67.5004 52.8508L68.3161 53.4292ZM75.7683 50.34C79.3089 50.34 81.7019 51.4051 83.0969 53.4242L83.9196 52.8558C82.2747 50.4749 79.5077 49.34 75.7683 49.34V50.34ZM83.1029 53.4327C84.5756 55.4718 85.3483 58.5102 85.3483 62.62H86.3483C86.3483 58.4098 85.561 55.1282 83.9136 52.8473L83.1029 53.4327ZM85.3483 62.62V72.7H86.3483V62.62H85.3483ZM85.3483 72.7C85.3483 76.8089 84.576 79.8699 83.1004 81.9508L83.9161 82.5292C85.5606 80.2101 86.3483 76.9111 86.3483 72.7H85.3483ZM83.0994 81.9523C81.7058 83.9327 79.3123 84.98 75.7683 84.98V85.98C79.5043 85.98 82.2708 84.8673 83.9172 82.5277L83.0994 81.9523ZM75.7683 81.24C77.0246 81.24 78.0398 80.868 78.6855 80.0237L77.8911 79.4163C77.4967 79.932 76.832 80.24 75.7683 80.24V81.24ZM78.6855 80.0237C79.2687 79.261 79.616 78.3325 79.7447 77.2596L78.7518 77.1404C78.6406 78.0675 78.3479 78.819 77.8911 79.4163L78.6855 80.0237ZM79.7447 77.2596C79.8682 76.2308 79.9283 74.8481 79.9283 73.12H78.9283C78.9283 74.8319 78.8684 76.1692 78.7518 77.1404L79.7447 77.2596ZM79.9283 73.12V62.26H78.9283V73.12H79.9283ZM79.9283 62.26C79.9283 60.5319 79.8682 59.1492 79.7447 58.1204L78.7518 58.2396C78.8684 59.2108 78.9283 60.5481 78.9283 62.26H79.9283ZM79.745 58.1227C79.6169 57.013 79.2713 56.0624 78.6855 55.2963L77.8911 55.9037C78.3453 56.4976 78.6396 57.267 78.7516 58.2373L79.745 58.1227ZM78.6855 55.2963C78.0398 54.452 77.0246 54.08 75.7683 54.08V55.08C76.832 55.08 77.4967 55.388 77.8911 55.9037L78.6855 55.2963ZM75.7683 54.08C74.5096 54.08 73.4854 54.4527 72.8023 55.2821L73.5742 55.9179C74.0111 55.3873 74.707 55.08 75.7683 55.08V54.08ZM72.7911 55.2963C72.2053 56.0624 71.8596 57.013 71.7316 58.1227L72.725 58.2373C72.8369 57.267 73.1313 56.4976 73.5855 55.9037L72.7911 55.2963ZM71.7318 58.1204C71.6084 59.1492 71.5483 60.5319 71.5483 62.26H72.5483C72.5483 60.5481 72.6082 59.2108 72.7247 58.2396L71.7318 58.1204ZM71.5483 62.26V73.12H72.5483V62.26H71.5483ZM71.5483 73.12C71.5483 74.8481 71.6084 76.2308 71.7318 77.2596L72.7247 77.1404C72.6082 76.1692 72.5483 74.8319 72.5483 73.12H71.5483ZM71.7318 77.2596C71.8606 78.3325 72.2079 79.261 72.7911 80.0237L73.5855 79.4163C73.1287 78.819 72.836 78.0675 72.7247 77.1404L71.7318 77.2596ZM72.8023 80.0379C73.4854 80.8673 74.5096 81.24 75.7683 81.24V80.24C74.707 80.24 74.0111 79.9327 73.5742 79.4021L72.8023 80.0379ZM93.1566 82.24L92.7347 82.5084L92.737 82.5119L93.1566 82.24ZM92.8566 53.8L92.404 53.5874L92.4014 53.5931L92.8566 53.8ZM105.337 52.54L104.983 52.8936L105.837 53.7471V52.54H105.337ZM105.337 36.4V35.9H104.837V36.4H105.337ZM111.757 36.4H112.257V35.9H111.757V36.4ZM111.757 85V85.5H112.257V85H111.757ZM105.337 85H104.837V85.5H105.337V85ZM105.337 82.78H105.837V81.5115L104.971 82.4388L105.337 82.78ZM105.337 79.12L105.608 79.5398L105.837 79.392V79.12H105.337ZM105.337 56.38H105.837V56.1144L105.616 55.9657L105.337 56.38ZM98.2566 78.28L97.7863 78.4498L97.7863 78.4498L98.2566 78.28ZM99.7566 84.98C96.8933 84.98 94.8675 83.9604 93.5761 81.9681L92.737 82.5119C94.2456 84.8396 96.6198 85.98 99.7566 85.98V84.98ZM93.5784 81.9716C92.2584 79.8972 91.5566 76.3991 91.5566 71.38H90.5566C90.5566 76.4409 91.2548 80.1828 92.7347 82.5084L93.5784 81.9716ZM91.5566 71.38V64.66H90.5566V71.38H91.5566ZM91.5566 64.66C91.5566 60.0941 92.1536 56.5549 93.3117 54.0069L92.4014 53.5931C91.1596 56.3251 90.5566 60.0259 90.5566 64.66H91.5566ZM93.3091 54.0126C93.8918 52.7721 94.6974 51.8636 95.7204 51.2608C96.7467 50.656 98.0241 50.34 99.5766 50.34V49.34C97.8891 49.34 96.4264 49.684 95.2127 50.3992C93.9957 51.1164 93.0614 52.1879 92.404 53.5874L93.3091 54.0126ZM99.5766 50.34C101.453 50.34 103.252 51.1628 104.983 52.8936L105.69 52.1864C103.821 50.3172 101.78 49.34 99.5766 49.34V50.34ZM105.837 52.54V36.4H104.837V52.54H105.837ZM105.337 36.9H111.757V35.9H105.337V36.9ZM111.257 36.4V85H112.257V36.4H111.257ZM111.757 84.5H105.337V85.5H111.757V84.5ZM105.837 85V82.78H104.837V85H105.837ZM104.971 82.4388C103.364 84.1602 101.63 84.98 99.7566 84.98V85.98C101.963 85.98 103.949 84.9998 105.702 83.1212L104.971 82.4388ZM101.377 80.94C102.776 80.94 104.189 80.4583 105.608 79.5398L105.065 78.7002C103.764 79.5417 102.538 79.94 101.377 79.94V80.94ZM105.837 79.12V56.38H104.837V79.12H105.837ZM105.616 55.9657C104.089 54.9333 102.631 54.38 101.257 54.38V55.38C102.362 55.38 103.625 55.8267 105.057 56.7943L105.616 55.9657ZM101.257 54.38C100.543 54.38 99.8958 54.5525 99.3332 54.9127C98.7728 55.2715 98.3248 55.7983 97.9781 56.4641C97.2924 57.7811 96.9766 59.6929 96.9766 62.14H97.9766C97.9766 59.7471 98.2908 58.0289 98.8651 56.9259C99.1484 56.3817 99.4878 56.001 99.8724 55.7548C100.255 55.51 100.71 55.38 101.257 55.38V54.38ZM96.9766 62.14V71.92H97.9766V62.14H96.9766ZM96.9766 71.92C96.9766 74.7382 97.2366 76.9275 97.7863 78.4498L98.7268 78.1102C98.2366 76.7525 97.9766 74.7018 97.9766 71.92H96.9766ZM97.7863 78.4498C98.074 79.2466 98.5198 79.8804 99.142 80.3111C99.7633 80.7413 100.519 80.94 101.377 80.94V79.94C100.674 79.94 100.13 79.7787 99.7112 79.4889C99.2933 79.1996 98.9591 78.7534 98.7268 78.1102L97.7863 78.4498ZM118.44 50.32V49.82H117.94V50.32H118.44ZM124.86 50.32H125.36V49.82H124.86V50.32ZM124.86 55.24H124.36V57.0142L125.286 55.5011L124.86 55.24ZM128.52 51.1L128.255 50.676L128.248 50.6799L128.52 51.1ZM133.56 49.96H134.06V49.5186L133.622 49.4639L133.56 49.96ZM133.56 57.04L133.384 57.5082L134.06 57.7615V57.04H133.56ZM127.2 57.1L127.457 57.5288L127.463 57.5251L127.2 57.1ZM124.86 59.68L124.433 59.4187L124.36 59.539V59.68H124.86ZM124.86 85V85.5H125.36V85H124.86ZM118.44 85H117.94V85.5H118.44V85ZM118.44 50.82H124.86V49.82H118.44V50.82ZM124.36 50.32V55.24H125.36V50.32H124.36ZM125.286 55.5011C126.466 53.573 127.639 52.2631 128.791 51.5201L128.248 50.6799C126.92 51.5369 125.653 52.987 124.433 54.9789L125.286 55.5011ZM128.785 51.524C129.992 50.7696 131.241 50.4 132.54 50.4V49.4C131.038 49.4 129.608 49.8304 128.255 50.676L128.785 51.524ZM132.54 50.4C132.881 50.4 133.2 50.419 133.498 50.4561L133.622 49.4639C133.279 49.421 132.918 49.4 132.54 49.4V50.4ZM133.06 49.96V57.04H134.06V49.96H133.06ZM133.735 56.5718C132.413 56.0761 131.173 55.82 130.02 55.82V56.82C131.026 56.82 132.146 57.0439 133.384 57.5082L133.735 56.5718ZM130.02 55.82C128.892 55.82 127.86 56.1033 126.936 56.6749L127.463 57.5251C128.219 57.0567 129.067 56.82 130.02 56.82V55.82ZM126.942 56.6713C126.045 57.2095 125.214 58.1448 124.433 59.4187L125.286 59.9413C126.025 58.7352 126.754 57.9505 127.457 57.5287L126.942 56.6713ZM124.36 59.68V85H125.36V59.68H124.36ZM124.86 84.5H118.44V85.5H124.86V84.5ZM118.94 85V50.32H117.94V85H118.94ZM137.957 38.44V37.94H137.457V38.44H137.957ZM144.377 38.44H144.877V37.94H144.377V38.44ZM144.377 45.16V45.66H144.877V45.16H144.377ZM137.957 45.16H137.457V45.66H137.957V45.16ZM137.957 50.32V49.82H137.457V50.32H137.957ZM144.377 50.32H144.877V49.82H144.377V50.32ZM144.377 85V85.5H144.877V85H144.377ZM137.957 85H137.457V85.5H137.957V85ZM137.957 38.94H144.377V37.94H137.957V38.94ZM143.877 38.44V45.16H144.877V38.44H143.877ZM144.377 44.66H137.957V45.66H144.377V44.66ZM138.457 45.16V38.44H137.457V45.16H138.457ZM137.957 50.82H144.377V49.82H137.957V50.82ZM143.877 50.32V85H144.877V50.32H143.877ZM144.377 84.5H137.957V85.5H144.377V84.5ZM138.457 85V50.32H137.457V85H138.457ZM152.208 94.12L152.445 93.68L152.438 93.6764L152.208 94.12ZM150.588 85.24L150.208 84.9145L150.201 84.9226L150.588 85.24ZM154.188 82.54L154.401 82.9921L155.586 82.4328L154.33 82.0606L154.188 82.54ZM151.668 81.04L151.282 81.3579L151.287 81.3644L151.293 81.3708L151.668 81.04ZM151.728 75.7L151.315 75.4183L151.315 75.4183L151.728 75.7ZM154.668 72.52L155.005 72.8895L155.447 72.4863L154.972 72.1228L154.668 72.52ZM151.608 68.62L151.144 68.8057L151.146 68.8128L151.149 68.8198L151.608 68.62ZM153.108 53.02L152.716 52.7095L152.715 52.7104L153.108 53.02ZM164.928 50.8L165.169 50.3622L165.169 50.3622L164.928 50.8ZM167.568 53.68L167.115 53.8922L167.501 54.716L167.99 53.9484L167.568 53.68ZM169.308 51.94L169.624 52.327L169.626 52.3255L169.308 51.94ZM172.248 50.08L172.047 49.6218L172.038 49.626L172.248 50.08ZM173.208 49.66L173.673 49.4778L173.484 48.9934L173.007 49.2019L173.208 49.66ZM174.828 53.8L174.926 54.2903L175.511 54.1733L175.293 53.6178L174.828 53.8ZM171.468 54.82L171.298 54.3497L171.294 54.3513L171.468 54.82ZM168.948 56.02L168.594 55.6664L168.364 55.8971L168.482 56.2012L168.948 56.02ZM169.668 59.02L169.174 59.0972L169.175 59.1047L169.176 59.1121L169.668 59.02ZM167.808 71.26L168.215 71.5499L168.218 71.5462L167.808 71.26ZM157.128 73.96L157.249 73.4749L156.91 73.3902L156.714 73.6792L157.128 73.96ZM156.648 77.68L156.379 78.1018L156.401 78.1157L156.424 78.1272L156.648 77.68ZM158.868 78.16L158.912 77.6619L158.908 77.6616L158.868 78.16ZM164.268 78.64L164.224 79.138L164.224 79.1381L164.268 78.64ZM170.328 81.1L169.964 81.443L169.964 81.443L170.328 81.1ZM163.788 68.08L164.247 68.2788L163.788 68.08ZM163.788 56.2L163.325 56.3882L163.327 56.3934L163.788 56.2ZM157.068 56.2L156.615 55.9878L156.612 55.9942L157.068 56.2ZM157.068 67.9L156.607 68.0953L156.613 68.1069L157.068 67.9ZM165.768 89.86L165.551 89.4095L165.544 89.4127L165.538 89.4161L165.768 89.86ZM166.368 84.82L166.05 85.206L166.057 85.2117L166.064 85.2172L166.368 84.82ZM162.648 83.74L162.692 83.242L162.692 83.2419L162.648 83.74ZM157.188 83.26L157.232 82.7619L156.999 82.7415L156.834 82.9064L157.188 83.26ZM155.268 85.48L155.68 85.7633L155.68 85.7633L155.268 85.48ZM155.928 89.92L156.174 89.4847L156.167 89.4811L155.928 89.92ZM160.248 95.24C156.934 95.24 154.346 94.7063 152.445 93.68L151.97 94.56C154.07 95.6937 156.842 96.24 160.248 96.24V95.24ZM152.438 93.6764C151.505 93.1911 150.83 92.5792 150.385 91.8497C149.94 91.1203 149.708 90.2437 149.708 89.2H148.708C148.708 90.3963 148.976 91.4597 149.531 92.3703C150.086 93.2808 150.91 94.0089 151.977 94.5636L152.438 93.6764ZM149.708 89.2C149.708 87.7897 150.131 86.5833 150.974 85.5574L150.201 84.9226C149.204 86.1367 148.708 87.5703 148.708 89.2H149.708ZM150.967 85.5654C151.878 84.503 153.02 83.6445 154.401 82.9921L153.974 82.0879C152.476 82.7955 151.218 83.737 150.208 84.9146L150.967 85.5654ZM154.33 82.0606C153.318 81.7608 152.567 81.3035 152.043 80.7092L151.293 81.3708C151.968 82.1365 152.897 82.6792 154.046 83.0194L154.33 82.0606ZM152.054 80.7221C151.56 80.122 151.328 79.4921 151.328 78.82H150.328C150.328 79.7479 150.656 80.598 151.282 81.3579L152.054 80.7221ZM151.328 78.82C151.328 77.7073 151.605 76.7684 152.141 75.9817L151.315 75.4183C150.651 76.3916 150.328 77.5327 150.328 78.82H151.328ZM152.141 75.9817C152.709 75.1488 153.656 74.1193 155.005 72.8895L154.331 72.1505C152.96 73.4007 151.947 74.4912 151.315 75.4183L152.141 75.9817ZM154.972 72.1228C153.679 71.1341 152.712 69.9019 152.066 68.4202L151.149 68.8198C151.864 70.4581 152.937 71.8259 154.364 72.9172L154.972 72.1228ZM152.072 68.4343C151.465 66.9169 151.148 64.8479 151.148 62.2H150.148C150.148 64.9121 150.471 67.1231 151.144 68.8057L152.072 68.4343ZM151.148 62.2C151.148 58.2163 151.958 55.2856 153.5 53.3296L152.715 52.7104C150.977 54.9143 150.148 58.1037 150.148 62.2H151.148ZM153.5 53.3305C155.067 51.3527 157.349 50.34 160.428 50.34V49.34C157.106 49.34 154.509 50.4473 152.716 52.7095L153.5 53.3305ZM160.428 50.34C162.215 50.34 163.623 50.6514 164.686 51.2378L165.169 50.3622C163.912 49.6686 162.321 49.34 160.428 49.34V50.34ZM164.686 51.2378C165.747 51.8233 166.557 52.701 167.115 53.8922L168.021 53.4678C167.379 52.099 166.428 51.0567 165.169 50.3622L164.686 51.2378ZM167.99 53.9484C168.224 53.5809 168.749 53.0434 169.624 52.327L168.991 51.553C168.107 52.2765 167.472 52.8991 167.146 53.4116L167.99 53.9484ZM169.626 52.3255C170.514 51.5918 171.458 50.9952 172.457 50.534L172.038 49.626C170.958 50.1248 169.941 50.7682 168.989 51.5545L169.626 52.3255ZM172.448 50.5381L173.408 50.1181L173.007 49.2019L172.047 49.6219L172.448 50.5381ZM172.742 49.8422L174.362 53.9822L175.293 53.6178L173.673 49.4778L172.742 49.8422ZM174.73 53.3097C173.893 53.4771 172.745 53.8272 171.298 54.3497L171.638 55.2903C173.071 54.7728 174.163 54.4429 174.926 54.2903L174.73 53.3097ZM171.294 54.3513C170.587 54.6138 170.012 54.8496 169.573 55.0586C169.152 55.2589 168.801 55.4597 168.594 55.6664L169.301 56.3736C169.375 56.3003 169.583 56.1611 170.003 55.9614C170.404 55.7704 170.949 55.5462 171.642 55.2887L171.294 54.3513ZM168.482 56.2012C168.743 56.8727 168.976 57.8323 169.174 59.0972L170.162 58.9428C169.959 57.6477 169.713 56.6073 169.414 55.8388L168.482 56.2012ZM169.176 59.1121C169.413 60.3717 169.528 61.4596 169.528 62.38H170.528C170.528 61.3804 170.403 60.2283 170.159 58.9279L169.176 59.1121ZM169.528 62.38C169.528 66.1233 168.798 68.9687 167.398 70.9738L168.218 71.5462C169.778 69.3113 170.528 66.2367 170.528 62.38H169.528ZM167.4 70.9701C166.045 72.8752 163.767 73.88 160.428 73.88V74.88C163.968 74.88 166.611 73.8048 168.215 71.5499L167.4 70.9701ZM160.428 73.88C159.391 73.88 158.332 73.7457 157.249 73.4749L157.007 74.4451C158.163 74.7343 159.304 74.88 160.428 74.88V73.88ZM156.714 73.6792C155.948 74.8077 155.488 75.7973 155.488 76.6H156.488C156.488 76.1227 156.787 75.3523 157.542 74.2407L156.714 73.6792ZM155.488 76.6C155.488 77.2448 155.826 77.7498 156.379 78.1018L156.916 77.2582C156.589 77.0502 156.488 76.8352 156.488 76.6H155.488ZM156.424 78.1272C156.992 78.4111 157.81 78.577 158.828 78.6584L158.908 77.6616C157.926 77.583 157.264 77.4289 156.871 77.2328L156.424 78.1272ZM158.824 78.658L164.224 79.138L164.312 78.142L158.912 77.662L158.824 78.658ZM164.224 79.1381C166.873 79.3718 168.757 80.1633 169.964 81.443L170.692 80.757C169.258 79.2367 167.103 78.3882 164.312 78.1419L164.224 79.1381ZM169.964 81.443C171.17 82.7216 171.808 84.5819 171.808 87.1H172.808C172.808 84.4181 172.126 82.2784 170.692 80.757L169.964 81.443ZM171.808 87.1C171.808 89.8492 170.858 91.8438 169.002 93.1735C167.115 94.5253 164.223 95.24 160.248 95.24V96.24C164.312 96.24 167.451 95.5147 169.584 93.9865C171.748 92.4362 172.808 90.1108 172.808 87.1H171.808ZM160.428 70.38C161.342 70.38 162.14 70.221 162.794 69.8707C163.456 69.5158 163.943 68.979 164.247 68.2788L163.329 67.8812C163.112 68.381 162.779 68.7442 162.322 68.9893C161.855 69.239 161.233 69.38 160.428 69.38V70.38ZM164.247 68.2788C164.81 66.9787 165.068 64.9304 165.068 62.2H164.068C164.068 64.9096 163.806 66.7813 163.329 67.8812L164.247 68.2788ZM165.068 62.2C165.068 59.4288 164.81 57.3438 164.249 56.0066L163.327 56.3934C163.806 57.5362 164.068 59.4512 164.068 62.2H165.068ZM164.251 56.0118C163.953 55.2786 163.478 54.7083 162.824 54.3278C162.177 53.9514 161.389 53.78 160.488 53.78V54.78C161.267 54.78 161.868 54.9286 162.321 55.1922C162.767 55.4517 163.102 55.8414 163.325 56.3882L164.251 56.0118ZM160.488 53.78C159.586 53.78 158.791 53.9517 158.128 54.324C157.46 54.6993 156.956 55.2614 156.615 55.9878L157.521 56.4122C157.78 55.8586 158.146 55.4607 158.618 55.196C159.094 54.9283 159.71 54.78 160.488 54.78V53.78ZM156.612 55.9942C156.006 57.3365 155.728 59.4272 155.728 62.2H156.728C156.728 59.4528 157.01 57.5435 157.523 56.4058L156.612 55.9942ZM155.728 62.2C155.728 64.7052 156.009 66.6841 156.608 68.0953L157.528 67.7047C157.007 66.4759 156.728 64.6548 156.728 62.2H155.728ZM156.613 68.1069C156.95 68.8492 157.445 69.4277 158.104 69.8158C158.759 70.2015 159.542 70.38 160.428 70.38V69.38C159.674 69.38 159.077 69.2285 158.612 68.9542C158.15 68.6823 157.786 68.2708 157.523 67.6931L156.613 68.1069ZM160.728 91.2C163.029 91.2 164.809 90.9206 165.998 90.3039L165.538 89.4161C164.567 89.9194 162.986 90.2 160.728 90.2V91.2ZM165.985 90.3105C166.594 90.0171 167.078 89.6141 167.406 89.0909C167.735 88.5677 167.888 87.9567 167.888 87.28H166.888C166.888 87.8033 166.771 88.2223 166.559 88.5591C166.348 88.8959 166.022 89.1829 165.551 89.4095L165.985 90.3105ZM167.888 87.28C167.888 86.0565 167.512 85.0652 166.672 84.4228L166.064 85.2172C166.584 85.6148 166.888 86.2635 166.888 87.28H167.888ZM166.686 84.434C165.881 83.771 164.506 83.4032 162.692 83.242L162.604 84.238C164.39 84.3968 165.495 84.749 166.05 85.206L166.686 84.434ZM162.692 83.2419L157.232 82.7619L157.144 83.7581L162.604 84.2381L162.692 83.2419ZM156.834 82.9064C155.983 83.758 155.32 84.5221 154.856 85.1967L155.68 85.7633C156.096 85.1579 156.713 84.442 157.541 83.6136L156.834 82.9064ZM154.856 85.1967C154.36 85.9181 154.108 86.7165 154.108 87.58H155.108C155.108 86.9235 155.296 86.3219 155.68 85.7633L154.856 85.1967ZM154.108 87.58C154.108 88.1884 154.232 88.7417 154.502 89.2207C154.774 89.7016 155.176 90.0796 155.688 90.3589L156.167 89.4811C155.799 89.2804 155.542 89.0284 155.373 88.7293C155.204 88.4283 155.108 88.0516 155.108 87.58H154.108ZM155.682 90.3553C156.724 90.9443 158.44 91.2 160.728 91.2V90.2C158.456 90.2 156.972 89.9357 156.174 89.4847L155.682 90.3553ZM178.768 82.24L178.356 82.5243L178.362 82.5327L178.768 82.24ZM178.768 53.14L178.36 52.8508L178.359 52.8523L178.768 53.14ZM194.368 53.14L193.956 53.4243L193.962 53.4327L194.368 53.14ZM194.368 82.24L193.96 81.9508L193.959 81.9523L194.368 82.24ZM189.148 79.72L189.545 80.0237L189.545 80.0237L189.148 79.72ZM190.108 77.2L190.604 77.2596L190.604 77.2596L190.108 77.2ZM190.108 58.18L189.611 58.2373L189.611 58.2396L190.108 58.18ZM189.148 55.6L189.545 55.2963L189.545 55.2963L189.148 55.6ZM184.048 55.6L183.662 55.2821L183.656 55.2891L183.65 55.2963L184.048 55.6ZM183.088 58.18L183.584 58.2396L183.584 58.2373L183.088 58.18ZM183.088 77.2L183.584 77.1404L183.584 77.1404L183.088 77.2ZM184.048 79.72L183.65 80.0237L183.656 80.0309L183.662 80.0379L184.048 79.72ZM186.628 84.98C183.042 84.98 180.606 83.9315 179.173 81.9473L178.362 82.5327C180.049 84.8685 182.853 85.98 186.628 85.98V84.98ZM179.179 81.9558C177.741 79.874 176.988 76.8108 176.988 72.7H175.988C175.988 76.9092 176.755 80.206 178.356 82.5242L179.179 81.9558ZM176.988 72.7V62.62H175.988V72.7H176.988ZM176.988 62.62C176.988 58.5082 177.741 55.4677 179.177 53.4277L178.359 52.8523C176.754 55.1323 175.988 58.4118 175.988 62.62H176.988ZM179.176 53.4292C180.61 51.4063 183.046 50.34 186.628 50.34V49.34C182.85 49.34 180.045 50.4737 178.36 52.8508L179.176 53.4292ZM186.628 50.34C190.168 50.34 192.561 51.4051 193.956 53.4242L194.779 52.8558C193.134 50.4749 190.367 49.34 186.628 49.34V50.34ZM193.962 53.4327C195.435 55.4718 196.208 58.5102 196.208 62.62H197.208C197.208 58.4098 196.42 55.1282 194.773 52.8473L193.962 53.4327ZM196.208 62.62V72.7H197.208V62.62H196.208ZM196.208 72.7C196.208 76.8089 195.435 79.8699 193.96 81.9508L194.776 82.5292C196.42 80.2101 197.208 76.9111 197.208 72.7H196.208ZM193.959 81.9523C192.565 83.9327 190.172 84.98 186.628 84.98V85.98C190.364 85.98 193.13 84.8673 194.777 82.5277L193.959 81.9523ZM186.628 81.24C187.884 81.24 188.899 80.868 189.545 80.0237L188.75 79.4163C188.356 79.932 187.691 80.24 186.628 80.24V81.24ZM189.545 80.0237C190.128 79.261 190.475 78.3325 190.604 77.2596L189.611 77.1404C189.5 78.0675 189.207 78.819 188.75 79.4163L189.545 80.0237ZM190.604 77.2596C190.728 76.2308 190.788 74.8481 190.788 73.12H189.788C189.788 74.8319 189.728 76.1692 189.611 77.1404L190.604 77.2596ZM190.788 73.12V62.26H189.788V73.12H190.788ZM190.788 62.26C190.788 60.5319 190.728 59.1492 190.604 58.1204L189.611 58.2396C189.728 59.2108 189.788 60.5481 189.788 62.26H190.788ZM190.604 58.1227C190.476 57.013 190.131 56.0624 189.545 55.2963L188.75 55.9037C189.205 56.4976 189.499 57.267 189.611 58.2373L190.604 58.1227ZM189.545 55.2963C188.899 54.452 187.884 54.08 186.628 54.08V55.08C187.691 55.08 188.356 55.388 188.75 55.9037L189.545 55.2963ZM186.628 54.08C185.369 54.08 184.345 54.4527 183.662 55.2821L184.434 55.9179C184.871 55.3873 185.566 55.08 186.628 55.08V54.08ZM183.65 55.2963C183.065 56.0624 182.719 57.013 182.591 58.1227L183.584 58.2373C183.696 57.267 183.991 56.4976 184.445 55.9037L183.65 55.2963ZM182.591 58.1204C182.468 59.1492 182.408 60.5319 182.408 62.26H183.408C183.408 60.5481 183.468 59.2108 183.584 58.2396L182.591 58.1204ZM182.408 62.26V73.12H183.408V62.26H182.408ZM182.408 73.12C182.408 74.8481 182.468 76.2308 182.591 77.2596L183.584 77.1404C183.468 76.1692 183.408 74.8319 183.408 73.12H182.408ZM182.591 77.2596C182.72 78.3325 183.067 79.261 183.65 80.0237L184.445 79.4163C183.988 78.819 183.695 78.0675 183.584 77.1404L182.591 77.2596ZM183.662 80.0379C184.345 80.8673 185.369 81.24 186.628 81.24V80.24C185.566 80.24 184.871 79.9327 184.434 79.4021L183.662 80.0379ZM218.927 81.76L218.544 82.0819L218.547 82.0854L218.927 81.76ZM215.387 71.38L215.257 70.8973L214.866 71.0028L214.888 71.4072L215.387 71.38ZM221.387 69.76L221.886 69.728L221.847 69.1179L221.257 69.2773L221.387 69.76ZM223.187 77.32L222.743 77.551L222.747 77.5581L223.187 77.32ZM232.247 78.76L231.879 78.4215L231.878 78.4221L232.247 78.76ZM232.367 69.52L232.789 69.2516L232.789 69.2516L232.367 69.52ZM228.347 65.14L228.016 65.5149L228.019 65.5173L228.347 65.14ZM220.187 57.94L220.518 57.5651L220.517 57.5643L220.187 57.94ZM216.587 53.32L216.127 53.517L216.13 53.5236L216.133 53.5302L216.587 53.32ZM218.567 38.92L218.913 39.2806L218.913 39.2806L218.567 38.92ZM239.147 48.52L239.278 49.0026L239.684 48.8926L239.645 48.4735L239.147 48.52ZM233.387 50.08L232.888 50.1151L232.931 50.7215L233.518 50.5626L233.387 50.08ZM231.707 43.54L231.271 43.7857L231.275 43.7923L231.279 43.7989L231.707 43.54ZM222.947 42.58L223.293 42.9414L223.3 42.9336L222.947 42.58ZM222.287 50.2L221.836 50.4164L221.84 50.4236L222.287 50.2ZM224.747 53.14L225.076 52.7639L225.073 52.7613L224.747 53.14ZM232.967 60.34L233.299 59.9659L233.296 59.9639L232.967 60.34ZM238.007 66.46L237.571 66.7055L237.575 66.7114L238.007 66.46ZM236.687 82.42L237.034 82.7802L237.034 82.7802L236.687 82.42ZM228.287 85.04C224.316 85.04 221.35 83.8188 219.307 81.4346L218.547 82.0854C220.824 84.7412 224.097 86.04 228.287 86.04V85.04ZM219.309 81.4381C217.28 79.0252 216.122 75.6808 215.886 71.3528L214.888 71.4072C215.132 75.8792 216.334 79.4548 218.544 82.0819L219.309 81.4381ZM215.517 71.8627L221.517 70.2427L221.257 69.2773L215.257 70.8973L215.517 71.8627ZM220.888 69.792C221.091 72.953 221.7 75.5482 222.743 77.551L223.63 77.089C222.673 75.2518 222.083 72.807 221.886 69.728L220.888 69.792ZM222.747 77.5581C223.307 78.5907 224.055 79.3838 224.996 79.9154C225.935 80.4458 227.039 80.7 228.287 80.7V79.7C227.175 79.7 226.249 79.4742 225.488 79.0446C224.729 78.6162 224.107 77.9693 223.627 77.0819L222.747 77.5581ZM228.287 80.7C230.136 80.7 231.611 80.1938 232.615 79.0979L231.878 78.4221C231.123 79.2462 229.958 79.7 228.287 79.7V80.7ZM232.615 79.0985C233.646 77.9777 234.127 76.4203 234.127 74.5H233.127C233.127 76.2597 232.688 77.5423 231.879 78.4215L232.615 79.0985ZM234.127 74.5C234.127 72.4311 233.692 70.6713 232.789 69.2516L231.945 69.7884C232.722 71.0087 233.127 72.5689 233.127 74.5H234.127ZM232.789 69.2516C231.913 67.8749 230.533 66.3788 228.675 64.7627L228.019 65.5173C229.84 67.1012 231.141 68.5251 231.945 69.7884L232.789 69.2516ZM228.678 64.7651L220.518 57.5651L219.856 58.3149L228.016 65.5149L228.678 64.7651ZM220.517 57.5643C218.918 56.1609 217.766 54.6749 217.041 53.1098L216.133 53.5302C216.928 55.2451 218.175 56.8391 219.857 58.3157L220.517 57.5643ZM217.046 53.123C216.36 51.5215 216.007 49.5525 216.007 47.2H215.007C215.007 49.6475 215.374 51.7585 216.127 53.517L217.046 53.123ZM216.007 47.2C216.007 43.7388 216.995 41.1232 218.913 39.2806L218.22 38.5594C216.058 40.6368 215.007 43.5412 215.007 47.2H216.007ZM218.913 39.2806C220.839 37.4306 223.483 36.48 226.907 36.48V35.48C223.291 35.48 220.375 36.4894 218.22 38.5594L218.913 39.2806ZM226.907 36.48C230.661 36.48 233.411 37.4757 235.246 39.3864L235.967 38.6936C233.883 36.5243 230.833 35.48 226.907 35.48V36.48ZM235.246 39.3864C237.096 41.312 238.254 44.3434 238.649 48.5665L239.645 48.4735C239.239 44.1366 238.037 40.848 235.967 38.6936L235.246 39.3864ZM239.016 48.0374L233.256 49.5974L233.518 50.5626L239.278 49.0026L239.016 48.0374ZM233.886 50.0449C233.683 47.1683 233.113 44.898 232.135 43.2811L231.279 43.7989C232.14 45.222 232.691 47.3117 232.888 50.1151L233.886 50.0449ZM232.142 43.2943C231.147 41.53 229.346 40.7 226.907 40.7V41.7C229.108 41.7 230.507 42.4299 231.271 43.7857L232.142 43.2943ZM226.907 40.7C225.099 40.7 223.634 41.1854 222.593 42.2264L223.3 42.9336C224.099 42.1346 225.275 41.7 226.907 41.7V40.7ZM222.601 42.2187C221.55 43.2245 221.067 44.6971 221.067 46.54H222.067C222.067 44.8629 222.504 43.6954 223.292 42.9413L222.601 42.2187ZM221.067 46.54C221.067 48.0334 221.316 49.3318 221.836 50.4164L222.738 49.9836C222.298 49.0682 222.067 47.9266 222.067 46.54H221.067ZM221.84 50.4236C222.359 51.4623 223.23 52.4925 224.42 53.5187L225.073 52.7613C223.944 51.7875 223.175 50.8577 222.734 49.9764L221.84 50.4236ZM224.417 53.5161L232.637 60.7161L233.296 59.9639L225.076 52.7639L224.417 53.5161ZM232.635 60.7141C234.719 62.5617 236.362 64.5593 237.571 66.7055L238.442 66.2145C237.172 63.9607 235.455 61.8783 233.299 59.9659L232.635 60.7141ZM237.575 66.7114C238.806 68.8276 239.427 71.2392 239.427 73.96H240.427C240.427 71.0808 239.768 68.4924 238.439 66.2086L237.575 66.7114ZM239.427 73.96C239.427 77.4116 238.384 80.0916 236.34 82.0598L237.034 82.7802C239.31 80.5884 240.427 77.6284 240.427 73.96H239.427ZM236.34 82.0598C234.287 84.0368 231.618 85.04 228.287 85.04V86.04C231.836 86.04 234.767 84.9632 237.034 82.7802L236.34 82.0598ZM248.006 83.98L247.719 84.3892L247.726 84.3943L248.006 83.98ZM244.886 79.42L244.407 79.5637L244.407 79.5637L244.886 79.42ZM246.206 53.2L245.793 52.9192L245.791 52.9209L246.206 53.2ZM260.546 51.58L260.227 51.965L260.233 51.9694L260.546 51.58ZM263.366 56.5L262.877 56.6016L262.879 56.6124L263.366 56.5ZM264.086 67.78V68.28H264.586V67.78H264.086ZM250.406 67.78V67.28H249.906V67.78H250.406ZM251.306 79.36L250.882 79.625L250.889 79.6354L250.896 79.6455L251.306 79.36ZM257.066 79.36L257.51 79.5913L257.513 79.5836L257.066 79.36ZM257.786 72.94V72.44H257.286V72.94H257.786ZM264.026 72.94H264.526V72.44H264.026V72.94ZM261.686 82.6L262.074 82.9153L262.074 82.9153L261.686 82.6ZM257.786 64.3V64.8H258.286V64.3H257.786ZM257.066 56.14L256.606 56.3348L256.61 56.3457L256.615 56.3564L257.066 56.14ZM251.786 55.3L251.461 54.9204L251.454 54.9264L251.447 54.9326L251.786 55.3ZM250.706 57.7L251.198 57.791L251.198 57.7879L250.706 57.7ZM250.406 64.3H249.906V64.8H250.406V64.3ZM254.246 84.98C251.619 84.98 249.652 84.4884 248.286 83.5657L247.726 84.3943C249.321 85.4716 251.513 85.98 254.246 85.98V84.98ZM248.294 83.5709C246.919 82.6051 245.938 81.1862 245.365 79.2763L244.407 79.5637C245.034 81.6538 246.133 83.2749 247.719 84.3891L248.294 83.5709ZM245.365 79.2763C244.784 77.3408 244.486 74.7943 244.486 71.62H243.486C243.486 74.8457 243.788 77.4992 244.407 79.5637L245.365 79.2763ZM244.486 71.62V63.7H243.486V71.62H244.486ZM244.486 63.7C244.486 58.9296 245.226 55.5532 246.621 53.4791L245.791 52.9209C244.227 55.2468 243.486 58.8704 243.486 63.7H244.486ZM246.62 53.4807C248.012 51.43 250.497 50.34 254.246 50.34V49.34C250.315 49.34 247.441 50.49 245.793 52.9192L246.62 53.4807ZM254.246 50.34C256.99 50.34 258.954 50.9102 260.227 51.965L260.865 51.195C259.338 49.9298 257.103 49.34 254.246 49.34V50.34ZM260.233 51.9694C261.567 53.0447 262.456 54.5747 262.877 56.6016L263.856 56.3984C263.396 54.1853 262.405 52.4353 260.86 51.1906L260.233 51.9694ZM262.879 56.6124C263.347 58.6393 263.586 61.4163 263.586 64.96H264.586C264.586 61.3837 264.346 58.5207 263.853 56.3876L262.879 56.6124ZM263.586 64.96V67.78H264.586V64.96H263.586ZM264.086 67.28H250.406V68.28H264.086V67.28ZM249.906 67.78V74.74H250.906V67.78H249.906ZM249.906 74.74C249.906 76.8844 250.206 78.5422 250.882 79.625L251.73 79.095C251.207 78.2578 250.906 76.8356 250.906 74.74H249.906ZM250.896 79.6455C251.65 80.7295 252.822 81.24 254.306 81.24V80.24C253.07 80.24 252.243 79.8305 251.717 79.0745L250.896 79.6455ZM254.306 81.24C255.785 81.24 256.916 80.7288 257.51 79.5913L256.623 79.1287C256.256 79.8312 255.548 80.24 254.306 80.24V81.24ZM257.513 79.5836C258.046 78.5191 258.286 76.9855 258.286 75.04H257.286C257.286 76.9345 257.047 78.2809 256.619 79.1364L257.513 79.5836ZM258.286 75.04V72.94H257.286V75.04H258.286ZM257.786 73.44H264.026V72.44H257.786V73.44ZM263.526 72.94V74.26H264.526V72.94H263.526ZM263.526 74.26C263.526 77.8375 262.759 80.4874 261.298 82.2847L262.074 82.9153C263.734 80.8726 264.526 77.9625 264.526 74.26H263.526ZM261.298 82.2847C259.865 84.0483 257.555 84.98 254.246 84.98V85.98C257.737 85.98 260.387 84.9917 262.074 82.9153L261.298 82.2847ZM258.286 64.3V61.18H257.286V64.3H258.286ZM258.286 61.18C258.286 58.8111 258.049 57.0325 257.517 55.9236L256.615 56.3564C257.043 57.2475 257.286 58.8289 257.286 61.18H258.286ZM257.527 55.9452C257.264 55.3246 256.838 54.8463 256.254 54.5304C255.68 54.2192 254.981 54.08 254.186 54.08V55.08C254.871 55.08 255.393 55.2008 255.778 55.4096C256.155 55.6136 256.428 55.9154 256.606 56.3348L257.527 55.9452ZM254.186 54.08C253.075 54.08 252.142 54.3361 251.461 54.9204L252.112 55.6796C252.55 55.3039 253.217 55.08 254.186 55.08V54.08ZM251.447 54.9326C250.811 55.5195 250.422 56.4451 250.214 57.6121L251.198 57.7879C251.39 56.7149 251.721 56.0405 252.125 55.6674L251.447 54.9326ZM250.215 57.609C250.006 58.7348 249.906 60.3514 249.906 62.44H250.906C250.906 60.3686 251.006 58.8252 251.198 57.791L250.215 57.609ZM249.906 62.44V64.3H250.906V62.44H249.906ZM250.406 64.8H257.786V63.8H250.406V64.8ZM270.86 94.12L271.098 93.68L271.091 93.6764L270.86 94.12ZM269.24 85.24L268.86 84.9145L268.854 84.9226L269.24 85.24ZM272.84 82.54L273.054 82.9921L274.238 82.4328L272.982 82.0606L272.84 82.54ZM270.32 81.04L269.934 81.3579L269.94 81.3644L269.945 81.3708L270.32 81.04ZM270.38 75.7L269.967 75.4183L269.967 75.4183L270.38 75.7ZM273.32 72.52L273.657 72.8895L274.099 72.4863L273.624 72.1228L273.32 72.52ZM270.26 68.62L269.796 68.8057L269.799 68.8128L269.802 68.8198L270.26 68.62ZM271.76 53.02L271.368 52.7095L271.368 52.7104L271.76 53.02ZM283.58 50.8L283.822 50.3622L283.822 50.3622L283.58 50.8ZM286.22 53.68L285.767 53.8922L286.154 54.716L286.642 53.9484L286.22 53.68ZM287.96 51.94L288.277 52.327L288.279 52.3255L287.96 51.94ZM290.9 50.08L290.7 49.6218L290.691 49.626L290.9 50.08ZM291.86 49.66L292.326 49.4778L292.136 48.9934L291.66 49.2019L291.86 49.66ZM293.48 53.8L293.578 54.2903L294.163 54.1733L293.946 53.6178L293.48 53.8ZM290.12 54.82L289.95 54.3497L289.946 54.3513L290.12 54.82ZM287.6 56.02L287.247 55.6664L287.016 55.8971L287.134 56.2012L287.6 56.02ZM288.32 59.02L287.826 59.0972L287.827 59.1047L287.829 59.1121L288.32 59.02ZM286.46 71.26L286.868 71.5499L286.87 71.5462L286.46 71.26ZM275.78 73.96L275.901 73.4749L275.563 73.3902L275.366 73.6792L275.78 73.96ZM275.3 77.68L275.032 78.1018L275.053 78.1157L275.077 78.1272L275.3 77.68ZM277.52 78.16L277.564 77.6619L277.56 77.6616L277.52 78.16ZM282.92 78.64L282.876 79.138L282.876 79.1381L282.92 78.64ZM288.98 81.1L288.616 81.443L288.616 81.443L288.98 81.1ZM282.44 68.08L282.899 68.2788L282.44 68.08ZM282.44 56.2L281.977 56.3882L281.979 56.3934L282.44 56.2ZM275.72 56.2L275.267 55.9878L275.264 55.9942L275.72 56.2ZM275.72 67.9L275.26 68.0953L275.265 68.1069L275.72 67.9ZM284.42 89.86L284.203 89.4095L284.197 89.4127L284.19 89.4161L284.42 89.86ZM285.02 84.82L284.702 85.206L284.709 85.2117L284.716 85.2172L285.02 84.82ZM281.3 83.74L281.344 83.242L281.344 83.2419L281.3 83.74ZM275.84 83.26L275.884 82.7619L275.652 82.7415L275.487 82.9064L275.84 83.26ZM273.92 85.48L274.332 85.7633L274.332 85.7633L273.92 85.48ZM274.58 89.92L274.826 89.4847L274.82 89.4811L274.58 89.92ZM278.9 95.24C275.586 95.24 272.998 94.7063 271.098 93.68L270.623 94.56C272.722 95.6937 275.494 96.24 278.9 96.24V95.24ZM271.091 93.6764C270.158 93.1911 269.482 92.5792 269.037 91.8497C268.592 91.1203 268.36 90.2437 268.36 89.2H267.36C267.36 90.3963 267.628 91.4597 268.183 92.3703C268.738 93.2808 269.563 94.0089 270.629 94.5636L271.091 93.6764ZM268.36 89.2C268.36 87.7897 268.784 86.5833 269.627 85.5574L268.854 84.9226C267.857 86.1367 267.36 87.5703 267.36 89.2H268.36ZM269.62 85.5654C270.53 84.503 271.672 83.6445 273.054 82.9921L272.627 82.0879C271.128 82.7955 269.87 83.737 268.861 84.9146L269.62 85.5654ZM272.982 82.0606C271.97 81.7608 271.219 81.3035 270.695 80.7092L269.945 81.3708C270.621 82.1365 271.55 82.6792 272.698 83.0194L272.982 82.0606ZM270.706 80.7221C270.212 80.122 269.98 79.4921 269.98 78.82H268.98C268.98 79.7479 269.308 80.598 269.934 81.3579L270.706 80.7221ZM269.98 78.82C269.98 77.7073 270.257 76.7684 270.793 75.9817L269.967 75.4183C269.303 76.3916 268.98 77.5327 268.98 78.82H269.98ZM270.793 75.9817C271.361 75.1488 272.308 74.1193 273.657 72.8895L272.983 72.1505C271.612 73.4007 270.599 74.4912 269.967 75.4183L270.793 75.9817ZM273.624 72.1228C272.331 71.1341 271.364 69.9019 270.719 68.4202L269.802 68.8198C270.516 70.4581 271.589 71.8259 273.016 72.9172L273.624 72.1228ZM270.724 68.4343C270.117 66.9169 269.8 64.8479 269.8 62.2H268.8C268.8 64.9121 269.123 67.1231 269.796 68.8057L270.724 68.4343ZM269.8 62.2C269.8 58.2163 270.611 55.2856 272.153 53.3296L271.368 52.7104C269.63 54.9143 268.8 58.1037 268.8 62.2H269.8ZM272.152 53.3305C273.719 51.3527 276.002 50.34 279.08 50.34V49.34C275.759 49.34 273.161 50.4473 271.368 52.7095L272.152 53.3305ZM279.08 50.34C280.867 50.34 282.276 50.6514 283.339 51.2378L283.822 50.3622C282.565 49.6686 280.973 49.34 279.08 49.34V50.34ZM283.339 51.2378C284.4 51.8233 285.209 52.701 285.767 53.8922L286.673 53.4678C286.031 52.099 285.081 51.0567 283.822 50.3622L283.339 51.2378ZM286.642 53.9484C286.876 53.5809 287.401 53.0434 288.277 52.327L287.644 51.553C286.759 52.2765 286.124 52.8991 285.798 53.4116L286.642 53.9484ZM288.279 52.3255C289.167 51.5918 290.11 50.9952 291.11 50.534L290.691 49.626C289.61 50.1248 288.594 50.7682 287.642 51.5545L288.279 52.3255ZM291.101 50.5381L292.061 50.1181L291.66 49.2019L290.7 49.6219L291.101 50.5381ZM291.395 49.8422L293.015 53.9822L293.946 53.6178L292.326 49.4778L291.395 49.8422ZM293.382 53.3097C292.545 53.4771 291.397 53.8272 289.95 54.3497L290.29 55.2903C291.723 54.7728 292.815 54.4429 293.578 54.2903L293.382 53.3097ZM289.946 54.3513C289.239 54.6138 288.664 54.8496 288.225 55.0586C287.805 55.2589 287.453 55.4597 287.247 55.6664L287.954 56.3736C288.027 56.3003 288.236 56.1611 288.655 55.9614C289.056 55.7704 289.601 55.5462 290.294 55.2887L289.946 54.3513ZM287.134 56.2012C287.395 56.8727 287.629 57.8323 287.826 59.0972L288.814 58.9428C288.612 57.6477 288.365 56.6073 288.066 55.8388L287.134 56.2012ZM287.829 59.1121C288.065 60.3717 288.18 61.4596 288.18 62.38H289.18C289.18 61.3804 289.055 60.2283 288.812 58.9279L287.829 59.1121ZM288.18 62.38C288.18 66.1233 287.45 68.9687 286.05 70.9738L286.87 71.5462C288.43 69.3113 289.18 66.2367 289.18 62.38H288.18ZM286.053 70.9701C284.697 72.8752 282.42 73.88 279.08 73.88V74.88C282.621 74.88 285.263 73.8048 286.868 71.5499L286.053 70.9701ZM279.08 73.88C278.044 73.88 276.984 73.7457 275.901 73.4749L275.659 74.4451C276.816 74.7343 277.957 74.88 279.08 74.88V73.88ZM275.366 73.6792C274.601 74.8077 274.14 75.7973 274.14 76.6H275.14C275.14 76.1227 275.44 75.3523 276.194 74.2407L275.366 73.6792ZM274.14 76.6C274.14 77.2448 274.479 77.7498 275.032 78.1018L275.569 77.2582C275.242 77.0502 275.14 76.8352 275.14 76.6H274.14ZM275.077 78.1272C275.644 78.4111 276.462 78.577 277.48 78.6584L277.56 77.6616C276.578 77.583 275.916 77.4289 275.524 77.2328L275.077 78.1272ZM277.476 78.658L282.876 79.138L282.964 78.142L277.564 77.662L277.476 78.658ZM282.876 79.1381C285.525 79.3718 287.41 80.1633 288.616 81.443L289.344 80.757C287.911 79.2367 285.755 78.3882 282.964 78.1419L282.876 79.1381ZM288.616 81.443C289.822 82.7216 290.46 84.5819 290.46 87.1H291.46C291.46 84.4181 290.778 82.2784 289.344 80.757L288.616 81.443ZM290.46 87.1C290.46 89.8492 289.51 91.8438 287.654 93.1735C285.767 94.5253 282.876 95.24 278.9 95.24V96.24C282.965 96.24 286.103 95.5147 288.236 93.9865C290.4 92.4362 291.46 90.1108 291.46 87.1H290.46ZM279.08 70.38C279.995 70.38 280.793 70.221 281.446 69.8707C282.109 69.5158 282.596 68.979 282.899 68.2788L281.981 67.8812C281.765 68.381 281.432 68.7442 280.974 68.9893C280.508 69.239 279.886 69.38 279.08 69.38V70.38ZM282.899 68.2788C283.462 66.9787 283.72 64.9304 283.72 62.2H282.72C282.72 64.9096 282.458 66.7813 281.981 67.8812L282.899 68.2788ZM283.72 62.2C283.72 59.4288 283.462 57.3438 282.901 56.0066L281.979 56.3934C282.458 57.5362 282.72 59.4512 282.72 62.2H283.72ZM282.903 56.0118C282.606 55.2786 282.131 54.7083 281.477 54.3278C280.83 53.9514 280.041 53.78 279.14 53.78V54.78C279.919 54.78 280.521 54.9286 280.974 55.1922C281.42 55.4517 281.755 55.8414 281.977 56.3882L282.903 56.0118ZM279.14 53.78C278.238 53.78 277.444 53.9517 276.78 54.324C276.112 54.6993 275.608 55.2614 275.267 55.9878L276.173 56.4122C276.432 55.8586 276.798 55.4607 277.27 55.196C277.747 54.9283 278.362 54.78 279.14 54.78V53.78ZM275.264 55.9942C274.658 57.3365 274.38 59.4272 274.38 62.2H275.38C275.38 59.4528 275.662 57.5435 276.176 56.4058L275.264 55.9942ZM274.38 62.2C274.38 64.7052 274.661 66.6841 275.26 68.0953L276.18 67.7047C275.659 66.4759 275.38 64.6548 275.38 62.2H274.38ZM275.265 68.1069C275.602 68.8492 276.098 69.4277 276.756 69.8158C277.411 70.2015 278.194 70.38 279.08 70.38V69.38C278.326 69.38 277.729 69.2285 277.264 68.9542C276.803 68.6823 276.438 68.2708 276.175 67.6931L275.265 68.1069ZM279.38 91.2C281.682 91.2 283.461 90.9206 284.65 90.3039L284.19 89.4161C283.219 89.9194 281.639 90.2 279.38 90.2V91.2ZM284.637 90.3105C285.246 90.0171 285.73 89.6141 286.059 89.0909C286.387 88.5677 286.54 87.9567 286.54 87.28H285.54C285.54 87.8033 285.423 88.2223 285.212 88.5591C285 88.8959 284.674 89.1829 284.203 89.4095L284.637 90.3105ZM286.54 87.28C286.54 86.0565 286.164 85.0652 285.324 84.4228L284.716 85.2172C285.236 85.6148 285.54 86.2635 285.54 87.28H286.54ZM285.338 84.434C284.533 83.771 283.158 83.4032 281.344 83.242L281.256 84.238C283.042 84.3968 284.147 84.749 284.702 85.206L285.338 84.434ZM281.344 83.2419L275.884 82.7619L275.796 83.7581L281.256 84.2381L281.344 83.2419ZM275.487 82.9064C274.635 83.758 273.972 84.5221 273.508 85.1967L274.332 85.7633C274.748 85.1579 275.365 84.442 276.194 83.6136L275.487 82.9064ZM273.508 85.1967C273.012 85.9181 272.76 86.7165 272.76 87.58H273.76C273.76 86.9235 273.948 86.3219 274.332 85.7633L273.508 85.1967ZM272.76 87.58C272.76 88.1884 272.884 88.7417 273.155 89.2207C273.426 89.7016 273.829 90.0796 274.341 90.3589L274.82 89.4811C274.452 89.2804 274.194 89.0284 274.026 88.7293C273.856 88.4283 273.76 88.0516 273.76 87.58H272.76ZM274.334 90.3553C275.376 90.9443 277.092 91.2 279.38 91.2V90.2C277.108 90.2 275.624 89.9357 274.826 89.4847L274.334 90.3553ZM296.934 83.44L296.503 83.6935L296.503 83.6935L296.934 83.44ZM295.734 50.32V49.82H295.234V50.32H295.734ZM302.154 50.32H302.654V49.82H302.154V50.32ZM302.754 79.48L302.323 79.7336L302.33 79.745L302.754 79.48ZM309.414 78.28L309.735 78.6634L309.914 78.5135V78.28H309.414ZM309.414 50.32V49.82H308.914V50.32H309.414ZM315.834 50.32H316.334V49.82H315.834V50.32ZM315.834 85V85.5H316.334V85H315.834ZM309.414 85H308.914V85.5H309.414V85ZM309.414 81.58H309.914V80.4221L309.072 81.2161L309.414 81.58ZM300.954 84.98C299.212 84.98 298.057 84.3622 297.365 83.1865L296.503 83.6935C297.412 85.2378 298.937 85.98 300.954 85.98V84.98ZM297.365 83.1865C296.621 81.9213 296.234 80.3344 296.234 78.4H295.234C295.234 80.4656 295.648 82.2387 296.503 83.6935L297.365 83.1865ZM296.234 78.4V50.32H295.234V78.4H296.234ZM295.734 50.82H302.154V49.82H295.734V50.82ZM301.654 50.32V76.48H302.654V50.32H301.654ZM301.654 76.48C301.654 77.8359 301.857 78.9411 302.323 79.7335L303.185 79.2265C302.851 78.6589 302.654 77.7641 302.654 76.48H301.654ZM302.33 79.745C302.854 80.5834 303.774 80.94 304.914 80.94V79.94C303.975 79.94 303.454 79.6566 303.178 79.215L302.33 79.745ZM304.914 80.94C306.372 80.94 307.986 80.1276 309.735 78.6634L309.093 77.8966C307.402 79.3124 306.016 79.94 304.914 79.94V80.94ZM309.914 78.28V50.32H308.914V78.28H309.914ZM309.414 50.82H315.834V49.82H309.414V50.82ZM315.334 50.32V85H316.334V50.32H315.334ZM315.834 84.5H309.414V85.5H315.834V84.5ZM309.914 85V81.58H308.914V85H309.914ZM309.072 81.2161C306.374 83.7571 303.671 84.98 300.954 84.98V85.98C303.998 85.98 306.935 84.6029 309.757 81.9439L309.072 81.2161ZM325.76 83.98L325.473 84.3892L325.48 84.3943L325.76 83.98ZM322.64 79.42L322.161 79.5637L322.161 79.5637L322.64 79.42ZM323.96 53.2L323.546 52.9192L323.545 52.9209L323.96 53.2ZM338.3 51.58L337.981 51.965L337.986 51.9694L338.3 51.58ZM341.12 56.5L340.63 56.6016L340.633 56.6124L341.12 56.5ZM341.84 67.78V68.28H342.34V67.78H341.84ZM328.16 67.78V67.28H327.66V67.78H328.16ZM329.06 79.36L328.636 79.625L328.643 79.6354L328.65 79.6455L329.06 79.36ZM334.82 79.36L335.264 79.5913L335.267 79.5836L334.82 79.36ZM335.54 72.94V72.44H335.04V72.94H335.54ZM341.78 72.94H342.28V72.44H341.78V72.94ZM339.44 82.6L339.828 82.9153L339.828 82.9153L339.44 82.6ZM335.54 64.3V64.8H336.04V64.3H335.54ZM334.82 56.14L334.36 56.3348L334.364 56.3457L334.369 56.3564L334.82 56.14ZM329.54 55.3L329.215 54.9204L329.208 54.9264L329.201 54.9326L329.54 55.3ZM328.46 57.7L328.952 57.791L328.952 57.7879L328.46 57.7ZM328.16 64.3H327.66V64.8H328.16V64.3ZM332 84.98C329.373 84.98 327.406 84.4884 326.04 83.5657L325.48 84.3943C327.075 85.4716 329.267 85.98 332 85.98V84.98ZM326.048 83.5709C324.673 82.6051 323.692 81.1862 323.119 79.2763L322.161 79.5637C322.788 81.6538 323.887 83.2749 325.473 84.3891L326.048 83.5709ZM323.119 79.2763C322.538 77.3408 322.24 74.7943 322.24 71.62H321.24C321.24 74.8457 321.542 77.4992 322.161 79.5637L323.119 79.2763ZM322.24 71.62V63.7H321.24V71.62H322.24ZM322.24 63.7C322.24 58.9296 322.98 55.5532 324.375 53.4791L323.545 52.9209C321.981 55.2468 321.24 58.8704 321.24 63.7H322.24ZM324.374 53.4807C325.765 51.43 328.251 50.34 332 50.34V49.34C328.069 49.34 325.195 50.49 323.546 52.9192L324.374 53.4807ZM332 50.34C334.744 50.34 336.708 50.9102 337.981 51.965L338.619 51.195C337.092 49.9298 334.857 49.34 332 49.34V50.34ZM337.986 51.9694C339.321 53.0447 340.21 54.5747 340.631 56.6016L341.61 56.3984C341.15 54.1853 340.159 52.4353 338.614 51.1906L337.986 51.9694ZM340.633 56.6124C341.101 58.6393 341.34 61.4163 341.34 64.96H342.34C342.34 61.3837 342.1 58.5207 341.607 56.3876L340.633 56.6124ZM341.34 64.96V67.78H342.34V64.96H341.34ZM341.84 67.28H328.16V68.28H341.84V67.28ZM327.66 67.78V74.74H328.66V67.78H327.66ZM327.66 74.74C327.66 76.8844 327.959 78.5422 328.636 79.625L329.484 79.095C328.961 78.2578 328.66 76.8356 328.66 74.74H327.66ZM328.65 79.6455C329.404 80.7295 330.576 81.24 332.06 81.24V80.24C330.824 80.24 329.997 79.8305 329.471 79.0745L328.65 79.6455ZM332.06 81.24C333.539 81.24 334.67 80.7288 335.263 79.5913L334.377 79.1287C334.01 79.8312 333.301 80.24 332.06 80.24V81.24ZM335.267 79.5836C335.8 78.5191 336.04 76.9855 336.04 75.04H335.04C335.04 76.9345 334.801 78.2809 334.373 79.1364L335.267 79.5836ZM336.04 75.04V72.94H335.04V75.04H336.04ZM335.54 73.44H341.78V72.44H335.54V73.44ZM341.28 72.94V74.26H342.28V72.94H341.28ZM341.28 74.26C341.28 77.8375 340.512 80.4874 339.052 82.2847L339.828 82.9153C341.488 80.8726 342.28 77.9625 342.28 74.26H341.28ZM339.052 82.2847C337.619 84.0483 335.309 84.98 332 84.98V85.98C335.491 85.98 338.141 84.9917 339.828 82.9153L339.052 82.2847ZM336.04 64.3V61.18H335.04V64.3H336.04ZM336.04 61.18C336.04 58.8111 335.803 57.0325 335.271 55.9236L334.369 56.3564C334.797 57.2475 335.04 58.8289 335.04 61.18H336.04ZM335.281 55.9452C335.018 55.3246 334.592 54.8463 334.008 54.5304C333.434 54.2192 332.735 54.08 331.94 54.08V55.08C332.625 55.08 333.147 55.2008 333.532 55.4096C333.909 55.6136 334.182 55.9154 334.36 56.3348L335.281 55.9452ZM331.94 54.08C330.829 54.08 329.896 54.3361 329.215 54.9204L329.866 55.6796C330.304 55.3039 330.971 55.08 331.94 55.08V54.08ZM329.201 54.9326C328.565 55.5195 328.176 56.4451 327.968 57.6121L328.952 57.7879C329.144 56.7149 329.475 56.0405 329.879 55.6674L329.201 54.9326ZM327.969 57.609C327.76 58.7348 327.66 60.3514 327.66 62.44H328.66C328.66 60.3686 328.76 58.8252 328.952 57.791L327.969 57.609ZM327.66 62.44V64.3H328.66V62.44H327.66ZM328.16 64.8H335.54V63.8H328.16V64.8ZM348.254 36.4V35.9H347.754V36.4H348.254ZM354.674 36.4H355.174V35.9H354.674V36.4ZM354.674 85V85.5H355.174V85H354.674ZM348.254 85H347.754V85.5H348.254V85ZM348.254 36.9H354.674V35.9H348.254V36.9ZM354.174 36.4V85H355.174V36.4H354.174ZM354.674 84.5H348.254V85.5H354.674V84.5ZM348.754 85V36.4H347.754V85H348.754Z" fill="white"/>
</svg>
