<svg width="303" height="94" viewBox="0 0 303 94" fill="none" xmlns="http://www.w3.org/2000/svg">
<path d="M107.891 47.7822H103.76V56H100.054V34.6719H107.554C110.015 34.6719 111.914 35.2236 113.252 36.3271C114.59 37.4307 115.259 39.0273 115.259 41.1172C115.259 42.543 114.912 43.7393 114.219 44.7061C113.535 45.6631 112.578 46.4004 111.348 46.918L116.138 55.8096V56H112.168L107.891 47.7822ZM103.76 44.8086H107.568C108.818 44.8086 109.795 44.4961 110.498 43.8711C111.201 43.2363 111.553 42.3721 111.553 41.2783C111.553 40.1357 111.226 39.252 110.571 38.627C109.927 38.002 108.96 37.6797 107.671 37.6602H103.76V44.8086ZM117.764 47.9287C117.764 46.376 118.071 44.9795 118.687 43.7393C119.302 42.4893 120.166 41.5322 121.279 40.8682C122.393 40.1943 123.672 39.8574 125.117 39.8574C127.256 39.8574 128.989 40.5459 130.317 41.9229C131.655 43.2998 132.378 45.126 132.485 47.4014L132.5 48.2363C132.5 49.7988 132.197 51.1953 131.592 52.4258C130.996 53.6562 130.137 54.6084 129.014 55.2822C127.9 55.9561 126.611 56.293 125.146 56.293C122.91 56.293 121.118 55.5508 119.771 54.0664C118.433 52.5723 117.764 50.585 117.764 48.1045V47.9287ZM121.323 48.2363C121.323 49.8672 121.66 51.1465 122.334 52.0742C123.008 52.9922 123.945 53.4512 125.146 53.4512C126.348 53.4512 127.28 52.9824 127.944 52.0449C128.618 51.1074 128.955 49.7354 128.955 47.9287C128.955 46.3271 128.608 45.0576 127.915 44.1201C127.231 43.1826 126.299 42.7139 125.117 42.7139C123.955 42.7139 123.032 43.1777 122.349 44.1055C121.665 45.0234 121.323 46.4004 121.323 48.2363ZM134.844 47.958C134.844 45.5166 135.41 43.5586 136.543 42.084C137.676 40.5996 139.194 39.8574 141.099 39.8574C142.778 39.8574 144.136 40.4434 145.171 41.6152V33.5H148.73V56H145.508L145.332 54.3594C144.268 55.6484 142.847 56.293 141.069 56.293C139.214 56.293 137.71 55.5459 136.558 54.0518C135.415 52.5576 134.844 50.5264 134.844 47.958ZM138.403 48.2656C138.403 49.877 138.711 51.1367 139.326 52.0449C139.951 52.9434 140.835 53.3926 141.978 53.3926C143.433 53.3926 144.497 52.7432 145.171 51.4443V44.6768C144.517 43.4072 143.462 42.7725 142.007 42.7725C140.854 42.7725 139.966 43.2314 139.341 44.1494C138.716 45.0576 138.403 46.4297 138.403 48.2656ZM160.742 43.4023C160.273 43.3242 159.79 43.2852 159.292 43.2852C157.661 43.2852 156.562 43.9102 155.996 45.1602V56H152.437V40.1504H155.835L155.923 41.9229C156.782 40.5459 157.974 39.8574 159.497 39.8574C160.005 39.8574 160.425 39.9258 160.757 40.0625L160.742 43.4023ZM166.777 56H163.218V40.1504H166.777V56ZM162.998 36.0342C162.998 35.4873 163.169 35.0332 163.511 34.6719C163.862 34.3105 164.36 34.1299 165.005 34.1299C165.649 34.1299 166.147 34.3105 166.499 34.6719C166.851 35.0332 167.026 35.4873 167.026 36.0342C167.026 36.5713 166.851 37.0205 166.499 37.3818C166.147 37.7334 165.649 37.9092 165.005 37.9092C164.36 37.9092 163.862 37.7334 163.511 37.3818C163.169 37.0205 162.998 36.5713 162.998 36.0342ZM170.044 47.958C170.044 45.4971 170.62 43.5342 171.772 42.0693C172.935 40.5947 174.473 39.8574 176.387 39.8574C178.193 39.8574 179.614 40.4873 180.649 41.7471L180.811 40.1504H184.019V55.5166C184.019 57.5967 183.369 59.2373 182.07 60.4385C180.781 61.6396 179.038 62.2402 176.841 62.2402C175.679 62.2402 174.541 61.9961 173.428 61.5078C172.324 61.0293 171.484 60.3994 170.908 59.6182L172.593 57.4795C173.687 58.7783 175.034 59.4277 176.636 59.4277C177.817 59.4277 178.75 59.1055 179.434 58.4609C180.117 57.8262 180.459 56.8887 180.459 55.6484V54.5791C179.434 55.7217 178.066 56.293 176.357 56.293C174.502 56.293 172.983 55.5557 171.802 54.0811C170.63 52.6064 170.044 50.5654 170.044 47.958ZM173.589 48.2656C173.589 49.8574 173.911 51.1123 174.556 52.0303C175.21 52.9385 176.113 53.3926 177.266 53.3926C178.701 53.3926 179.766 52.7773 180.459 51.5469V44.5742C179.785 43.373 178.73 42.7725 177.295 42.7725C176.123 42.7725 175.21 43.2363 174.556 44.1641C173.911 45.0918 173.589 46.459 173.589 48.2656ZM187.021 47.9287C187.021 46.376 187.329 44.9795 187.944 43.7393C188.56 42.4893 189.424 41.5322 190.537 40.8682C191.65 40.1943 192.93 39.8574 194.375 39.8574C196.514 39.8574 198.247 40.5459 199.575 41.9229C200.913 43.2998 201.636 45.126 201.743 47.4014L201.758 48.2363C201.758 49.7988 201.455 51.1953 200.85 52.4258C200.254 53.6562 199.395 54.6084 198.271 55.2822C197.158 55.9561 195.869 56.293 194.404 56.293C192.168 56.293 190.376 55.5508 189.028 54.0664C187.69 52.5723 187.021 50.585 187.021 48.1045V47.9287ZM190.581 48.2363C190.581 49.8672 190.918 51.1465 191.592 52.0742C192.266 52.9922 193.203 53.4512 194.404 53.4512C195.605 53.4512 196.538 52.9824 197.202 52.0449C197.876 51.1074 198.213 49.7354 198.213 47.9287C198.213 46.3271 197.866 45.0576 197.173 44.1201C196.489 43.1826 195.557 42.7139 194.375 42.7139C193.213 42.7139 192.29 43.1777 191.606 44.1055C190.923 45.0234 190.581 46.4004 190.581 48.2363ZM223.73 50.5068C223.73 49.5693 223.398 48.8467 222.734 48.3389C222.08 47.8311 220.894 47.3184 219.175 46.8008C217.456 46.2832 216.089 45.707 215.073 45.0723C213.13 43.8516 212.158 42.2598 212.158 40.2969C212.158 38.5781 212.856 37.1621 214.253 36.0488C215.659 34.9355 217.48 34.3789 219.717 34.3789C221.201 34.3789 222.524 34.6523 223.687 35.1992C224.849 35.7461 225.762 36.5273 226.426 37.543C227.09 38.5488 227.422 39.667 227.422 40.8975H223.73C223.73 39.7842 223.379 38.915 222.676 38.29C221.982 37.6553 220.986 37.3379 219.688 37.3379C218.477 37.3379 217.534 37.5967 216.86 38.1143C216.196 38.6318 215.864 39.3545 215.864 40.2822C215.864 41.0635 216.226 41.7178 216.948 42.2451C217.671 42.7627 218.862 43.2705 220.522 43.7686C222.183 44.2568 223.516 44.8184 224.521 45.4531C225.527 46.0781 226.265 46.8008 226.733 47.6211C227.202 48.4316 227.437 49.3838 227.437 50.4775C227.437 52.2549 226.753 53.6709 225.386 54.7256C224.028 55.7705 222.183 56.293 219.849 56.293C218.306 56.293 216.885 56.0098 215.586 55.4434C214.297 54.8672 213.291 54.0762 212.568 53.0703C211.855 52.0645 211.499 50.8926 211.499 49.5547H215.205C215.205 50.7656 215.605 51.7031 216.406 52.3672C217.207 53.0312 218.354 53.3633 219.849 53.3633C221.138 53.3633 222.104 53.1045 222.749 52.5869C223.403 52.0596 223.73 51.3662 223.73 50.5068ZM237.324 56.293C235.068 56.293 233.237 55.585 231.831 54.1689C230.435 52.7432 229.736 50.8486 229.736 48.4854V48.0459C229.736 46.4639 230.039 45.0527 230.645 43.8125C231.26 42.5625 232.119 41.5908 233.223 40.8975C234.326 40.2041 235.557 39.8574 236.914 39.8574C239.072 39.8574 240.737 40.5459 241.909 41.9229C243.091 43.2998 243.682 45.248 243.682 47.7676V49.2031H233.325C233.433 50.5117 233.867 51.5469 234.629 52.3086C235.4 53.0703 236.367 53.4512 237.529 53.4512C239.16 53.4512 240.488 52.792 241.514 51.4736L243.433 53.3047C242.798 54.252 241.948 54.9893 240.884 55.5166C239.829 56.0342 238.643 56.293 237.324 56.293ZM236.899 42.7139C235.923 42.7139 235.132 43.0557 234.526 43.7393C233.931 44.4229 233.55 45.375 233.384 46.5957H240.166V46.332C240.088 45.1406 239.771 44.2422 239.214 43.6367C238.657 43.0215 237.886 42.7139 236.899 42.7139ZM245.835 47.958C245.835 45.4971 246.411 43.5342 247.563 42.0693C248.726 40.5947 250.264 39.8574 252.178 39.8574C253.984 39.8574 255.405 40.4873 256.44 41.7471L256.602 40.1504H259.81V55.5166C259.81 57.5967 259.16 59.2373 257.861 60.4385C256.572 61.6396 254.829 62.2402 252.632 62.2402C251.47 62.2402 250.332 61.9961 249.219 61.5078C248.115 61.0293 247.275 60.3994 246.699 59.6182L248.384 57.4795C249.478 58.7783 250.825 59.4277 252.427 59.4277C253.608 59.4277 254.541 59.1055 255.225 58.4609C255.908 57.8262 256.25 56.8887 256.25 55.6484V54.5791C255.225 55.7217 253.857 56.293 252.148 56.293C250.293 56.293 248.774 55.5557 247.593 54.0811C246.421 52.6064 245.835 50.5654 245.835 47.958ZM249.38 48.2656C249.38 49.8574 249.702 51.1123 250.347 52.0303C251.001 52.9385 251.904 53.3926 253.057 53.3926C254.492 53.3926 255.557 52.7773 256.25 51.5469V44.5742C255.576 43.373 254.521 42.7725 253.086 42.7725C251.914 42.7725 251.001 43.2363 250.347 44.1641C249.702 45.0918 249.38 46.459 249.38 48.2656ZM273.081 54.4473C272.036 55.6777 270.552 56.293 268.628 56.293C266.909 56.293 265.605 55.79 264.717 54.7842C263.838 53.7783 263.398 52.3232 263.398 50.4189V40.1504H266.958V50.375C266.958 52.3867 267.793 53.3926 269.463 53.3926C271.191 53.3926 272.358 52.7725 272.964 51.5322V40.1504H276.523V56H273.169L273.081 54.4473ZM287.129 56.293C284.873 56.293 283.042 55.585 281.636 54.1689C280.239 52.7432 279.541 50.8486 279.541 48.4854V48.0459C279.541 46.4639 279.844 45.0527 280.449 43.8125C281.064 42.5625 281.924 41.5908 283.027 40.8975C284.131 40.2041 285.361 39.8574 286.719 39.8574C288.877 39.8574 290.542 40.5459 291.714 41.9229C292.896 43.2998 293.486 45.248 293.486 47.7676V49.2031H283.13C283.237 50.5117 283.672 51.5469 284.434 52.3086C285.205 53.0703 286.172 53.4512 287.334 53.4512C288.965 53.4512 290.293 52.792 291.318 51.4736L293.237 53.3047C292.603 54.252 291.753 54.9893 290.688 55.5166C289.634 56.0342 288.447 56.293 287.129 56.293ZM286.704 42.7139C285.728 42.7139 284.937 43.0557 284.331 43.7393C283.735 44.4229 283.354 45.375 283.188 46.5957H289.971V46.332C289.893 45.1406 289.575 44.2422 289.019 43.6367C288.462 43.0215 287.69 42.7139 286.704 42.7139ZM300.049 56H296.489V33.5H300.049V56Z" fill="#E5E9F0"/>
<path d="M177.422 76H172.318V75.6836L175.23 72.3262C175.707 71.7676 176.061 71.2715 176.291 70.8379C176.525 70.4043 176.643 70.0059 176.643 69.6426C176.643 69.0176 176.461 68.5332 176.098 68.1895C175.734 67.8418 175.223 67.668 174.562 67.668C174.164 67.668 173.801 67.7637 173.473 67.9551C173.145 68.1465 172.887 68.4121 172.699 68.752C172.516 69.0879 172.424 69.4629 172.424 69.877H172.107C172.107 69.4199 172.213 68.9961 172.424 68.6055C172.635 68.2148 172.928 67.9082 173.303 67.6855C173.678 67.4629 174.098 67.3516 174.562 67.3516C175.32 67.3516 175.91 67.5527 176.332 67.9551C176.754 68.3574 176.965 68.9199 176.965 69.6426C176.965 70.3066 176.592 71.1016 175.846 72.0273L175.312 72.6777L172.734 75.6836H177.422V76ZM183.832 72.5195C183.832 73.6641 183.609 74.5508 183.164 75.1797C182.719 75.8047 182.094 76.1172 181.289 76.1172C180.488 76.1172 179.861 75.8008 179.408 75.168C178.955 74.5352 178.729 73.6445 178.729 72.4961V70.9492C178.729 69.8164 178.951 68.9336 179.396 68.3008C179.846 67.6641 180.473 67.3457 181.277 67.3457C182.086 67.3457 182.713 67.6641 183.158 68.3008C183.607 68.9336 183.832 69.8242 183.832 70.9727V72.5195ZM183.516 70.9492C183.516 69.9141 183.32 69.1074 182.93 68.5293C182.543 67.9512 181.992 67.6621 181.277 67.6621C180.559 67.6621 180.006 67.9531 179.619 68.5352C179.236 69.1133 179.045 69.9277 179.045 70.9785V72.5078C179.045 73.5391 179.242 74.3457 179.637 74.9277C180.031 75.5098 180.582 75.8008 181.289 75.8008C182 75.8008 182.549 75.5098 182.936 74.9277C183.322 74.3457 183.516 73.5293 183.516 72.4785V70.9492ZM190.57 76H185.467V75.6836L188.379 72.3262C188.855 71.7676 189.209 71.2715 189.439 70.8379C189.674 70.4043 189.791 70.0059 189.791 69.6426C189.791 69.0176 189.609 68.5332 189.246 68.1895C188.883 67.8418 188.371 67.668 187.711 67.668C187.312 67.668 186.949 67.7637 186.621 67.9551C186.293 68.1465 186.035 68.4121 185.848 68.752C185.664 69.0879 185.572 69.4629 185.572 69.877H185.256C185.256 69.4199 185.361 68.9961 185.572 68.6055C185.783 68.2148 186.076 67.9082 186.451 67.6855C186.826 67.4629 187.246 67.3516 187.711 67.3516C188.469 67.3516 189.059 67.5527 189.48 67.9551C189.902 68.3574 190.113 68.9199 190.113 69.6426C190.113 70.3066 189.74 71.1016 188.994 72.0273L188.461 72.6777L185.883 75.6836H190.57V76ZM196.98 72.5195C196.98 73.6641 196.758 74.5508 196.312 75.1797C195.867 75.8047 195.242 76.1172 194.438 76.1172C193.637 76.1172 193.01 75.8008 192.557 75.168C192.104 74.5352 191.877 73.6445 191.877 72.4961V70.9492C191.877 69.8164 192.1 68.9336 192.545 68.3008C192.994 67.6641 193.621 67.3457 194.426 67.3457C195.234 67.3457 195.861 67.6641 196.307 68.3008C196.756 68.9336 196.98 69.8242 196.98 70.9727V72.5195ZM196.664 70.9492C196.664 69.9141 196.469 69.1074 196.078 68.5293C195.691 67.9512 195.141 67.6621 194.426 67.6621C193.707 67.6621 193.154 67.9531 192.768 68.5352C192.385 69.1133 192.193 69.9277 192.193 70.9785V72.5078C192.193 73.5391 192.391 74.3457 192.785 74.9277C193.18 75.5098 193.73 75.8008 194.438 75.8008C195.148 75.8008 195.697 75.5098 196.084 74.9277C196.471 74.3457 196.664 73.5293 196.664 72.4785V70.9492ZM200.83 72.2559H198.076V71.9395H200.83V72.2559ZM207.281 76H202.178V75.6836L205.09 72.3262C205.566 71.7676 205.92 71.2715 206.15 70.8379C206.385 70.4043 206.502 70.0059 206.502 69.6426C206.502 69.0176 206.32 68.5332 205.957 68.1895C205.594 67.8418 205.082 67.668 204.422 67.668C204.023 67.668 203.66 67.7637 203.332 67.9551C203.004 68.1465 202.746 68.4121 202.559 68.752C202.375 69.0879 202.283 69.4629 202.283 69.877H201.967C201.967 69.4199 202.072 68.9961 202.283 68.6055C202.494 68.2148 202.787 67.9082 203.162 67.6855C203.537 67.4629 203.957 67.3516 204.422 67.3516C205.18 67.3516 205.77 67.5527 206.191 67.9551C206.613 68.3574 206.824 68.9199 206.824 69.6426C206.824 70.3066 206.451 71.1016 205.705 72.0273L205.172 72.6777L202.594 75.6836H207.281V76ZM213.691 72.5195C213.691 73.6641 213.469 74.5508 213.023 75.1797C212.578 75.8047 211.953 76.1172 211.148 76.1172C210.348 76.1172 209.721 75.8008 209.268 75.168C208.814 74.5352 208.588 73.6445 208.588 72.4961V70.9492C208.588 69.8164 208.811 68.9336 209.256 68.3008C209.705 67.6641 210.332 67.3457 211.137 67.3457C211.945 67.3457 212.572 67.6641 213.018 68.3008C213.467 68.9336 213.691 69.8242 213.691 70.9727V72.5195ZM213.375 70.9492C213.375 69.9141 213.18 69.1074 212.789 68.5293C212.402 67.9512 211.852 67.6621 211.137 67.6621C210.418 67.6621 209.865 67.9531 209.479 68.5352C209.096 69.1133 208.904 69.9277 208.904 70.9785V72.5078C208.904 73.5391 209.102 74.3457 209.496 74.9277C209.891 75.5098 210.441 75.8008 211.148 75.8008C211.859 75.8008 212.408 75.5098 212.795 74.9277C213.182 74.3457 213.375 73.5293 213.375 72.4785V70.9492ZM220.43 76H215.326V75.6836L218.238 72.3262C218.715 71.7676 219.068 71.2715 219.299 70.8379C219.533 70.4043 219.65 70.0059 219.65 69.6426C219.65 69.0176 219.469 68.5332 219.105 68.1895C218.742 67.8418 218.23 67.668 217.57 67.668C217.172 67.668 216.809 67.7637 216.48 67.9551C216.152 68.1465 215.895 68.4121 215.707 68.752C215.523 69.0879 215.432 69.4629 215.432 69.877H215.115C215.115 69.4199 215.221 68.9961 215.432 68.6055C215.643 68.2148 215.936 67.9082 216.311 67.6855C216.686 67.4629 217.105 67.3516 217.57 67.3516C218.328 67.3516 218.918 67.5527 219.34 67.9551C219.762 68.3574 219.973 68.9199 219.973 69.6426C219.973 70.3066 219.6 71.1016 218.854 72.0273L218.32 72.6777L215.742 75.6836H220.43V76ZM226.84 72.5195C226.84 73.6641 226.617 74.5508 226.172 75.1797C225.727 75.8047 225.102 76.1172 224.297 76.1172C223.496 76.1172 222.869 75.8008 222.416 75.168C221.963 74.5352 221.736 73.6445 221.736 72.4961V70.9492C221.736 69.8164 221.959 68.9336 222.404 68.3008C222.854 67.6641 223.48 67.3457 224.285 67.3457C225.094 67.3457 225.721 67.6641 226.166 68.3008C226.615 68.9336 226.84 69.8242 226.84 70.9727V72.5195ZM226.523 70.9492C226.523 69.9141 226.328 69.1074 225.938 68.5293C225.551 67.9512 225 67.6621 224.285 67.6621C223.566 67.6621 223.014 67.9531 222.627 68.5352C222.244 69.1133 222.053 69.9277 222.053 70.9785V72.5078C222.053 73.5391 222.25 74.3457 222.645 74.9277C223.039 75.5098 223.59 75.8008 224.297 75.8008C225.008 75.8008 225.557 75.5098 225.943 74.9277C226.33 74.3457 226.523 73.5293 226.523 72.4785V70.9492Z" fill="#E5E9F0"/>
<path d="M18.7692 59.035C18.7692 64.3426 19.535 68.1636 14.1449 68.1636C8.1605 68.7076 0 61.5728 0 53.6843C0 48.3767 3.33014 44.2204 9.00952 45.8554C14.6889 47.4903 18.7692 53.7275 18.7692 59.035Z" fill="#B9906A"/>
<path d="M14.2472 66.1883H14.2246L14.202 66.1904C11.9616 66.394 9.21593 65.1509 7.00287 63.0064C4.79974 60.8715 3.22021 57.9329 3.22021 54.8887C3.22021 52.8201 3.86998 51.0373 5.00403 49.9358C6.11612 48.8556 7.75925 48.366 9.924 48.9892C12.1077 49.6179 14.0086 51.1405 15.3675 53.0468C16.7273 54.9547 17.5157 57.2072 17.5157 59.2492C17.5157 59.7711 17.5241 60.2538 17.5322 60.7126C17.5414 61.2428 17.5501 61.741 17.5446 62.2307C17.5346 63.1218 17.4752 63.8584 17.2995 64.4479C17.1282 65.0229 16.8539 65.4339 16.4188 65.7136C15.9706 66.0017 15.2935 66.1883 14.2472 66.1883Z" fill="#A27C59" stroke="#A17C59"/>
<path d="M70.9958 59.1254C70.9958 64.4684 70.23 68.3148 75.6202 68.3148C81.6048 68.8625 89.7655 61.6801 89.7655 53.7389C89.7655 48.396 86.4353 44.2119 80.7557 45.8578C75.0762 47.5036 70.9958 53.7824 70.9958 59.1254Z" fill="#B9906A"/>
<path d="M46.4602 50.9949C46.4602 62.9965 50.5647 74.7038 46.4602 78.1476C41.3148 82.2351 56.7133 92.2337 45.4268 93.9137C36.2412 95.1868 22.6492 81.9432 20.0774 79.3155C17.5056 76.6878 10.6086 60.7277 10.8806 48.0753C10.8806 25.0169 26.1975 6.32434 45.0917 6.32434C63.986 6.32434 46.4602 27.9365 46.4602 50.9949Z" fill="#B9906A"/>
<path d="M75.6112 66.2036H75.6333L75.6552 66.2056C77.9016 66.404 80.6493 65.1934 82.8606 63.1119C85.0634 61.0383 86.6378 58.1886 86.6378 55.2418C86.6378 53.2392 85.9906 51.5133 84.8593 50.4459C83.7476 49.397 82.1006 48.9191 79.9307 49.5259C77.7443 50.1373 75.844 51.6172 74.4871 53.4665C73.1286 55.3179 72.3429 57.5012 72.3429 59.4775C72.3429 59.9858 72.3345 60.4548 72.3265 60.9003C72.3172 61.4145 72.3085 61.8974 72.314 62.3733C72.3241 63.2382 72.3835 63.9505 72.558 64.5195C72.7277 65.0727 72.9994 65.4697 73.4343 65.7413C73.8836 66.0219 74.563 66.2036 75.6112 66.2036Z" fill="#A27C59" stroke="#A17C59"/>
<path d="M45.2178 66.168C45.2178 78.1696 39.7448 74.7038 43.8493 78.1477C48.9947 82.2352 33.123 92.2816 44.8827 93.9137C54.0683 95.1886 67.6602 81.9432 70.232 79.3155C72.8039 76.6878 79.4288 62.0878 79.4288 48.0753C79.4288 25.0169 64.112 6.32434 45.2178 6.32434C26.3235 6.32434 45.2178 43.1096 45.2178 66.168Z" fill="#B9906A"/>
<path d="M19.9328 37.0416C16.8878 37.1403 14.5541 39.0304 13.7679 39.9631C26.8179 37.8158 34.4744 40.6523 36.0968 40.3275C37.3948 40.0677 36.6459 37.6788 36.5171 36.5036L19.9328 37.0416Z" fill="#231713"/>
<path d="M69.6063 36.449C72.651 36.3503 75.102 38.0852 75.947 38.965C62.7866 37.6678 55.3308 40.9945 53.6909 40.7755C52.379 40.6003 52.9714 38.168 53.0238 36.9869L69.6063 36.449Z" fill="#231713"/>
<path d="M23.3933 69.7044C17.0267 65.8942 14.1447 66.7122 14.1447 66.7122C14.1447 66.7122 14.1447 67.9891 15.7768 72.0357C17.4089 76.0822 19.585 78.7799 19.585 78.7799C19.585 78.7799 21.2171 81.0003 27.2013 85.7939C33.1856 90.5875 34.2737 90.6497 34.2737 90.6497C34.2737 90.6497 33.9436 76.0185 23.3933 69.7044Z" fill="#A78261"/>
<path d="M66.9159 69.7687C73.2826 65.9703 76.1646 66.7857 76.1646 66.7857C76.1646 66.7857 76.1646 68.0587 74.5325 72.0928C72.9004 76.1269 70.7243 78.8163 70.7243 78.8163C70.7243 78.8163 69.0922 81.0299 63.1078 85.8087C57.1235 90.5876 56.0354 90.6497 56.0354 90.6497C56.0354 90.6497 56.3655 76.0634 66.9159 69.7687Z" fill="#A78261"/>
<path d="M40.6689 52.7612C41.8097 48.9613 47.1903 48.9613 48.3311 52.7611L52.0568 65.1714C52.6052 66.998 51.788 68.9665 50.0144 69.6678C48.325 70.3357 46.2141 71 44.5 71C42.7859 71 40.675 70.3357 38.9856 69.6678C37.212 68.9665 36.3948 66.998 36.9432 65.1714L40.6689 52.7612Z" fill="#B97D6A"/>
<path d="M41.6122 57.2603C42.433 54.344 46.567 54.344 47.3878 57.2603L49.2965 64.0419C49.7004 65.4768 48.9902 67.0013 47.5642 67.4357C46.5726 67.7378 45.4408 68 44.5 68C43.5592 68 42.4274 67.7378 41.4358 67.4357C40.0098 67.0013 39.2996 65.4768 39.7035 64.0419L41.6122 57.2603Z" fill="#C98E7B"/>
<path d="M9.25555 43.3187L42.4346 44.1348C42.4346 44.1348 42.4346 59.31 38.8797 63.4261C35.3248 67.5422 15.4766 67.6131 12.218 64.6325C8.9593 61.6519 9.25555 43.3187 9.25555 43.3187Z" fill="#2E2E2E"/>
<path d="M79.9658 43.3187L46.7868 44.1348C46.7868 44.1348 46.7868 59.31 50.3417 63.4261C53.8965 67.5422 73.7447 67.6131 77.0034 64.6325C80.262 61.6519 79.9658 43.3187 79.9658 43.3187Z" fill="#2E2E2E"/>
<path d="M78.3344 46.5829H48.4981C48.4981 46.5829 48.4189 59.2271 51.6241 62.4817C54.8293 65.7363 72.7252 65.7924 75.6633 63.4356C78.6015 61.0789 78.3344 46.5829 78.3344 46.5829Z" fill="#B9906A"/>
<path d="M10.8869 46.5829H25.8038H40.7207C40.7207 46.5829 40.7999 59.2271 37.5949 62.4817C34.39 65.7363 16.4956 65.7924 13.5577 63.4356C10.6199 61.0789 10.8869 46.5829 10.8869 46.5829Z" fill="#B9906A"/>
<path d="M8.7045 43.3188C8.97447 42.7747 44.6107 44.1348 44.6107 44.1348L80.5169 43.3188L80.2469 45.4949L79.707 46.583H9.51441L8.97447 45.4949C8.97447 45.4949 8.43453 43.8628 8.7045 43.3188Z" fill="#2E2E2E"/>
<path d="M40.2584 46.0389H48.9629L48.3412 55.2875C48.3412 55.2875 46.2781 50.6632 44.6107 50.6632C42.9433 50.6632 40.8802 55.2875 40.8802 55.2875L40.2584 46.0389Z" fill="#2E2E2E"/>
<path d="M51.6831 46.5829C49.507 46.8005 48.7816 49.9378 48.691 51.4792H48.4189V46.5829H51.6831Z" fill="#2E2E2E"/>
<path d="M13.6008 46.5829C11.7873 46.7763 10.9562 49.565 10.8806 50.9352V46.5829H13.6008Z" fill="#2E2E2E"/>
<path d="M37.5383 46.5829C39.7144 46.8005 40.4398 49.9378 40.5305 51.4792H40.8025V46.5829H37.5383Z" fill="#2E2E2E"/>
<path d="M11.4247 40.5985C13.5926 28.4675 20.9453 16.389 32.9141 14.4849C34.3351 13.6454 36.0781 7.45773 30.536 6.95407C24.9939 6.45041 19.6117 8.21321 15.0821 11.0463C10.5525 13.8794 11.4247 40.5985 11.4247 40.5985Z" fill="#211411"/>
<path d="M45.5415 39.1758C48.584 33.161 49.0552 27.5138 47.6688 24.8215C50.3437 27.0303 52.9132 33.2988 49.6034 38.3831C45.0077 45.4428 46.0945 49.7354 46.1435 50.4693C45.3344 50.5249 42.4991 45.1907 45.5415 39.1758Z" fill="#19110E"/>
<path d="M65.7155 44.8322C66.5146 39.6897 65.0454 35.686 62.8461 34.334C66.081 34.9118 70.5892 38.2871 69.2271 42.8891C67.3357 49.2791 69.797 51.8231 70.0905 52.3053C69.3565 52.6228 64.9165 49.9747 65.7155 44.8322Z" fill="#1F1410"/>
<path d="M67.1881 44.4067C66.9705 35.4846 59.8437 32.0753 57.9396 30.8059C55.8541 30.3525 51.1936 28.1401 49.235 22.9174C46.7869 16.389 27.7457 14.4849 28.2898 12.3088C28.725 10.5679 29.1965 8.86321 29.3778 8.22851C35.6342 -4.28426 68.0042 0.340021 73.9886 3.60422C79.9729 6.86842 85.1412 12.8528 84.8692 33.2541C84.6516 49.5751 88.0427 53.0206 90.8536 54.1993C90.3096 55.0154 85.9573 58.0076 79.7009 56.3755C72.1638 54.4093 68.1855 49.031 67.1881 44.4067Z" fill="url(#paint0_linear)"/>
<path d="M37.7793 77.6373C38.4011 77.2239 39.1625 77.1115 39.9029 77.2077C41.1925 77.3754 43.3186 77.6129 44.8827 77.5929C46.2184 77.5758 48.02 77.3597 49.152 77.2051C49.8523 77.1094 50.5712 77.2027 51.1806 77.5607C52.5218 78.3488 54.3648 79.769 50.2247 79.769C45.5367 79.769 43.9741 79.769 38.7652 79.769C35.1205 79.769 36.5764 78.4372 37.7793 77.6373Z" fill="#8A5949"/>
<path d="M32.6421 52.0232C32.6421 53.9762 31.6678 55.5594 30.4659 55.5594C29.2641 55.5594 28.2898 53.9762 28.2898 52.0232C28.2898 50.0702 29.2641 48.963 30.4659 48.963C31.6678 48.963 32.6421 50.0702 32.6421 52.0232Z" fill="#3D2B27"/>
<path d="M62.5638 52.0232C62.5638 53.9762 61.5895 55.5594 60.3877 55.5594C59.1858 55.5594 58.2115 53.9762 58.2115 52.0232C58.2115 50.0702 59.1858 48.963 60.3877 48.963C61.5895 48.963 62.5638 50.0702 62.5638 52.0232Z" fill="#3D2B27"/>
<ellipse cx="58.4836" cy="50.0511" rx="1.36008" ry="1.08807" fill="white"/>
<ellipse cx="28.5617" cy="50.0511" rx="1.36008" ry="1.08807" fill="white"/>
<path d="M47.4629 41.3412C51.4115 19.4049 39.7144 16.661 39.7144 16.661C48.4189 1.15152 79.0169 13.6791 64.056 35.9009C49.0951 58.1226 64.6 57.3902 60.7918 57.9342C56.9835 58.4782 45.0148 54.942 47.4629 41.3412Z" fill="url(#paint1_linear)"/>
<defs>
<linearGradient id="paint0_linear" x1="54.4034" y1="30.8059" x2="119.687" y2="-7.54844" gradientUnits="userSpaceOnUse">
<stop stop-color="#211411"/>
<stop offset="1" stop-color="#3D2B27"/>
</linearGradient>
<linearGradient id="paint1_linear" x1="30.7378" y1="46.8549" x2="73.1725" y2="21.0133" gradientUnits="userSpaceOnUse">
<stop stop-color="#0F0A08"/>
<stop offset="1" stop-color="#30201B"/>
</linearGradient>
</defs>
</svg>
