<svg width="301" height="94" viewBox="0 0 301 94" fill="none" xmlns="http://www.w3.org/2000/svg">
<path d="M105.891 49.7822H101.76V58H98.0537V36.6719H105.554C108.015 36.6719 109.914 37.2236 111.252 38.3271C112.59 39.4307 113.259 41.0273 113.259 43.1172C113.259 44.543 112.912 45.7393 112.219 46.7061C111.535 47.6631 110.578 48.4004 109.348 48.918L114.138 57.8096V58H110.168L105.891 49.7822ZM101.76 46.8086H105.568C106.818 46.8086 107.795 46.4961 108.498 45.8711C109.201 45.2363 109.553 44.3721 109.553 43.2783C109.553 42.1357 109.226 41.252 108.571 40.627C107.927 40.002 106.96 39.6797 105.671 39.6602H101.76V46.8086ZM115.764 49.9287C115.764 48.376 116.071 46.9795 116.687 45.7393C117.302 44.4893 118.166 43.5322 119.279 42.8682C120.393 42.1943 121.672 41.8574 123.117 41.8574C125.256 41.8574 126.989 42.5459 128.317 43.9229C129.655 45.2998 130.378 47.126 130.485 49.4014L130.5 50.2363C130.5 51.7988 130.197 53.1953 129.592 54.4258C128.996 55.6562 128.137 56.6084 127.014 57.2822C125.9 57.9561 124.611 58.293 123.146 58.293C120.91 58.293 119.118 57.5508 117.771 56.0664C116.433 54.5723 115.764 52.585 115.764 50.1045V49.9287ZM119.323 50.2363C119.323 51.8672 119.66 53.1465 120.334 54.0742C121.008 54.9922 121.945 55.4512 123.146 55.4512C124.348 55.4512 125.28 54.9824 125.944 54.0449C126.618 53.1074 126.955 51.7354 126.955 49.9287C126.955 48.3271 126.608 47.0576 125.915 46.1201C125.231 45.1826 124.299 44.7139 123.117 44.7139C121.955 44.7139 121.032 45.1777 120.349 46.1055C119.665 47.0234 119.323 48.4004 119.323 50.2363ZM132.844 49.958C132.844 47.5166 133.41 45.5586 134.543 44.084C135.676 42.5996 137.194 41.8574 139.099 41.8574C140.778 41.8574 142.136 42.4434 143.171 43.6152V35.5H146.73V58H143.508L143.332 56.3594C142.268 57.6484 140.847 58.293 139.069 58.293C137.214 58.293 135.71 57.5459 134.558 56.0518C133.415 54.5576 132.844 52.5264 132.844 49.958ZM136.403 50.2656C136.403 51.877 136.711 53.1367 137.326 54.0449C137.951 54.9434 138.835 55.3926 139.978 55.3926C141.433 55.3926 142.497 54.7432 143.171 53.4443V46.6768C142.517 45.4072 141.462 44.7725 140.007 44.7725C138.854 44.7725 137.966 45.2314 137.341 46.1494C136.716 47.0576 136.403 48.4297 136.403 50.2656ZM158.742 45.4023C158.273 45.3242 157.79 45.2852 157.292 45.2852C155.661 45.2852 154.562 45.9102 153.996 47.1602V58H150.437V42.1504H153.835L153.923 43.9229C154.782 42.5459 155.974 41.8574 157.497 41.8574C158.005 41.8574 158.425 41.9258 158.757 42.0625L158.742 45.4023ZM164.777 58H161.218V42.1504H164.777V58ZM160.998 38.0342C160.998 37.4873 161.169 37.0332 161.511 36.6719C161.862 36.3105 162.36 36.1299 163.005 36.1299C163.649 36.1299 164.147 36.3105 164.499 36.6719C164.851 37.0332 165.026 37.4873 165.026 38.0342C165.026 38.5713 164.851 39.0205 164.499 39.3818C164.147 39.7334 163.649 39.9092 163.005 39.9092C162.36 39.9092 161.862 39.7334 161.511 39.3818C161.169 39.0205 160.998 38.5713 160.998 38.0342ZM168.044 49.958C168.044 47.4971 168.62 45.5342 169.772 44.0693C170.935 42.5947 172.473 41.8574 174.387 41.8574C176.193 41.8574 177.614 42.4873 178.649 43.7471L178.811 42.1504H182.019V57.5166C182.019 59.5967 181.369 61.2373 180.07 62.4385C178.781 63.6396 177.038 64.2402 174.841 64.2402C173.679 64.2402 172.541 63.9961 171.428 63.5078C170.324 63.0293 169.484 62.3994 168.908 61.6182L170.593 59.4795C171.687 60.7783 173.034 61.4277 174.636 61.4277C175.817 61.4277 176.75 61.1055 177.434 60.4609C178.117 59.8262 178.459 58.8887 178.459 57.6484V56.5791C177.434 57.7217 176.066 58.293 174.357 58.293C172.502 58.293 170.983 57.5557 169.802 56.0811C168.63 54.6064 168.044 52.5654 168.044 49.958ZM171.589 50.2656C171.589 51.8574 171.911 53.1123 172.556 54.0303C173.21 54.9385 174.113 55.3926 175.266 55.3926C176.701 55.3926 177.766 54.7773 178.459 53.5469V46.5742C177.785 45.373 176.73 44.7725 175.295 44.7725C174.123 44.7725 173.21 45.2363 172.556 46.1641C171.911 47.0918 171.589 48.459 171.589 50.2656ZM185.021 49.9287C185.021 48.376 185.329 46.9795 185.944 45.7393C186.56 44.4893 187.424 43.5322 188.537 42.8682C189.65 42.1943 190.93 41.8574 192.375 41.8574C194.514 41.8574 196.247 42.5459 197.575 43.9229C198.913 45.2998 199.636 47.126 199.743 49.4014L199.758 50.2363C199.758 51.7988 199.455 53.1953 198.85 54.4258C198.254 55.6562 197.395 56.6084 196.271 57.2822C195.158 57.9561 193.869 58.293 192.404 58.293C190.168 58.293 188.376 57.5508 187.028 56.0664C185.69 54.5723 185.021 52.585 185.021 50.1045V49.9287ZM188.581 50.2363C188.581 51.8672 188.918 53.1465 189.592 54.0742C190.266 54.9922 191.203 55.4512 192.404 55.4512C193.605 55.4512 194.538 54.9824 195.202 54.0449C195.876 53.1074 196.213 51.7354 196.213 49.9287C196.213 48.3271 195.866 47.0576 195.173 46.1201C194.489 45.1826 193.557 44.7139 192.375 44.7139C191.213 44.7139 190.29 45.1777 189.606 46.1055C188.923 47.0234 188.581 48.4004 188.581 50.2363ZM221.73 52.5068C221.73 51.5693 221.398 50.8467 220.734 50.3389C220.08 49.8311 218.894 49.3184 217.175 48.8008C215.456 48.2832 214.089 47.707 213.073 47.0723C211.13 45.8516 210.158 44.2598 210.158 42.2969C210.158 40.5781 210.856 39.1621 212.253 38.0488C213.659 36.9355 215.48 36.3789 217.717 36.3789C219.201 36.3789 220.524 36.6523 221.687 37.1992C222.849 37.7461 223.762 38.5273 224.426 39.543C225.09 40.5488 225.422 41.667 225.422 42.8975H221.73C221.73 41.7842 221.379 40.915 220.676 40.29C219.982 39.6553 218.986 39.3379 217.688 39.3379C216.477 39.3379 215.534 39.5967 214.86 40.1143C214.196 40.6318 213.864 41.3545 213.864 42.2822C213.864 43.0635 214.226 43.7178 214.948 44.2451C215.671 44.7627 216.862 45.2705 218.522 45.7686C220.183 46.2568 221.516 46.8184 222.521 47.4531C223.527 48.0781 224.265 48.8008 224.733 49.6211C225.202 50.4316 225.437 51.3838 225.437 52.4775C225.437 54.2549 224.753 55.6709 223.386 56.7256C222.028 57.7705 220.183 58.293 217.849 58.293C216.306 58.293 214.885 58.0098 213.586 57.4434C212.297 56.8672 211.291 56.0762 210.568 55.0703C209.855 54.0645 209.499 52.8926 209.499 51.5547H213.205C213.205 52.7656 213.605 53.7031 214.406 54.3672C215.207 55.0312 216.354 55.3633 217.849 55.3633C219.138 55.3633 220.104 55.1045 220.749 54.5869C221.403 54.0596 221.73 53.3662 221.73 52.5068ZM235.324 58.293C233.068 58.293 231.237 57.585 229.831 56.1689C228.435 54.7432 227.736 52.8486 227.736 50.4854V50.0459C227.736 48.4639 228.039 47.0527 228.645 45.8125C229.26 44.5625 230.119 43.5908 231.223 42.8975C232.326 42.2041 233.557 41.8574 234.914 41.8574C237.072 41.8574 238.737 42.5459 239.909 43.9229C241.091 45.2998 241.682 47.248 241.682 49.7676V51.2031H231.325C231.433 52.5117 231.867 53.5469 232.629 54.3086C233.4 55.0703 234.367 55.4512 235.529 55.4512C237.16 55.4512 238.488 54.792 239.514 53.4736L241.433 55.3047C240.798 56.252 239.948 56.9893 238.884 57.5166C237.829 58.0342 236.643 58.293 235.324 58.293ZM234.899 44.7139C233.923 44.7139 233.132 45.0557 232.526 45.7393C231.931 46.4229 231.55 47.375 231.384 48.5957H238.166V48.332C238.088 47.1406 237.771 46.2422 237.214 45.6367C236.657 45.0215 235.886 44.7139 234.899 44.7139ZM243.835 49.958C243.835 47.4971 244.411 45.5342 245.563 44.0693C246.726 42.5947 248.264 41.8574 250.178 41.8574C251.984 41.8574 253.405 42.4873 254.44 43.7471L254.602 42.1504H257.81V57.5166C257.81 59.5967 257.16 61.2373 255.861 62.4385C254.572 63.6396 252.829 64.2402 250.632 64.2402C249.47 64.2402 248.332 63.9961 247.219 63.5078C246.115 63.0293 245.275 62.3994 244.699 61.6182L246.384 59.4795C247.478 60.7783 248.825 61.4277 250.427 61.4277C251.608 61.4277 252.541 61.1055 253.225 60.4609C253.908 59.8262 254.25 58.8887 254.25 57.6484V56.5791C253.225 57.7217 251.857 58.293 250.148 58.293C248.293 58.293 246.774 57.5557 245.593 56.0811C244.421 54.6064 243.835 52.5654 243.835 49.958ZM247.38 50.2656C247.38 51.8574 247.702 53.1123 248.347 54.0303C249.001 54.9385 249.904 55.3926 251.057 55.3926C252.492 55.3926 253.557 54.7773 254.25 53.5469V46.5742C253.576 45.373 252.521 44.7725 251.086 44.7725C249.914 44.7725 249.001 45.2363 248.347 46.1641C247.702 47.0918 247.38 48.459 247.38 50.2656ZM271.081 56.4473C270.036 57.6777 268.552 58.293 266.628 58.293C264.909 58.293 263.605 57.79 262.717 56.7842C261.838 55.7783 261.398 54.3232 261.398 52.4189V42.1504H264.958V52.375C264.958 54.3867 265.793 55.3926 267.463 55.3926C269.191 55.3926 270.358 54.7725 270.964 53.5322V42.1504H274.523V58H271.169L271.081 56.4473ZM285.129 58.293C282.873 58.293 281.042 57.585 279.636 56.1689C278.239 54.7432 277.541 52.8486 277.541 50.4854V50.0459C277.541 48.4639 277.844 47.0527 278.449 45.8125C279.064 44.5625 279.924 43.5908 281.027 42.8975C282.131 42.2041 283.361 41.8574 284.719 41.8574C286.877 41.8574 288.542 42.5459 289.714 43.9229C290.896 45.2998 291.486 47.248 291.486 49.7676V51.2031H281.13C281.237 52.5117 281.672 53.5469 282.434 54.3086C283.205 55.0703 284.172 55.4512 285.334 55.4512C286.965 55.4512 288.293 54.792 289.318 53.4736L291.237 55.3047C290.603 56.252 289.753 56.9893 288.688 57.5166C287.634 58.0342 286.447 58.293 285.129 58.293ZM284.704 44.7139C283.728 44.7139 282.937 45.0557 282.331 45.7393C281.735 46.4229 281.354 47.375 281.188 48.5957H287.971V48.332C287.893 47.1406 287.575 46.2422 287.019 45.6367C286.462 45.0215 285.69 44.7139 284.704 44.7139ZM298.049 58H294.489V35.5H298.049V58Z" fill="#E5E9F0"/>
<path d="M171.605 79H165.371V78.3711L168.782 74.502C169.347 73.8503 169.739 73.3125 169.958 72.8887C170.177 72.4648 170.286 72.0524 170.286 71.6514C170.286 71.0225 170.102 70.5257 169.732 70.1611C169.363 69.792 168.855 69.6074 168.208 69.6074C167.538 69.6074 166.996 69.8216 166.581 70.25C166.171 70.6784 165.966 71.2344 165.966 71.918H165.152C165.152 71.3574 165.278 70.847 165.528 70.3867C165.784 69.9264 166.144 69.5664 166.608 69.3066C167.078 69.0423 167.611 68.9102 168.208 68.9102C169.119 68.9102 169.83 69.1494 170.341 69.6279C170.856 70.1064 171.113 70.7581 171.113 71.583C171.113 72.0479 170.967 72.556 170.676 73.1074C170.389 73.6589 169.881 74.347 169.151 75.1719L166.376 78.3096H171.605V79ZM179.139 74.8506C179.139 76.2542 178.881 77.3206 178.366 78.0498C177.851 78.7744 177.092 79.1367 176.09 79.1367C175.105 79.1367 174.351 78.7812 173.827 78.0703C173.303 77.3548 173.034 76.3158 173.021 74.9531V73.1689C173.021 71.7699 173.28 70.7103 173.8 69.9902C174.319 69.2702 175.078 68.9102 176.076 68.9102C177.061 68.9102 177.812 69.2588 178.332 69.9561C178.852 70.6488 179.12 71.6719 179.139 73.0254V74.8506ZM178.318 73.0664C178.318 71.9271 178.132 71.0658 177.758 70.4824C177.389 69.8991 176.828 69.6074 176.076 69.6074C175.338 69.6074 174.782 69.8923 174.408 70.4619C174.035 71.0316 173.843 71.8724 173.834 72.9844V74.9395C173.834 76.0742 174.025 76.9424 174.408 77.5439C174.796 78.1455 175.356 78.4463 176.09 78.4463C176.819 78.4463 177.37 78.1523 177.744 77.5645C178.122 76.9766 178.314 76.1152 178.318 74.9805V73.0664ZM187.137 79H180.902V78.3711L184.313 74.502C184.879 73.8503 185.271 73.3125 185.489 72.8887C185.708 72.4648 185.817 72.0524 185.817 71.6514C185.817 71.0225 185.633 70.5257 185.264 70.1611C184.895 69.792 184.386 69.6074 183.739 69.6074C183.069 69.6074 182.527 69.8216 182.112 70.25C181.702 70.6784 181.497 71.2344 181.497 71.918H180.684C180.684 71.3574 180.809 70.847 181.06 70.3867C181.315 69.9264 181.675 69.5664 182.14 69.3066C182.609 69.0423 183.142 68.9102 183.739 68.9102C184.651 68.9102 185.362 69.1494 185.872 69.6279C186.387 70.1064 186.645 70.7581 186.645 71.583C186.645 72.0479 186.499 72.556 186.207 73.1074C185.92 73.6589 185.412 74.347 184.683 75.1719L181.907 78.3096H187.137V79ZM194.67 74.8506C194.67 76.2542 194.412 77.3206 193.897 78.0498C193.382 78.7744 192.624 79.1367 191.621 79.1367C190.637 79.1367 189.882 78.7812 189.358 78.0703C188.834 77.3548 188.565 76.3158 188.552 74.9531V73.1689C188.552 71.7699 188.812 70.7103 189.331 69.9902C189.851 69.2702 190.609 68.9102 191.607 68.9102C192.592 68.9102 193.344 69.2588 193.863 69.9561C194.383 70.6488 194.652 71.6719 194.67 73.0254V74.8506ZM193.85 73.0664C193.85 71.9271 193.663 71.0658 193.289 70.4824C192.92 69.8991 192.359 69.6074 191.607 69.6074C190.869 69.6074 190.313 69.8923 189.939 70.4619C189.566 71.0316 189.374 71.8724 189.365 72.9844V74.9395C189.365 76.0742 189.557 76.9424 189.939 77.5439C190.327 78.1455 190.887 78.4463 191.621 78.4463C192.35 78.4463 192.902 78.1523 193.275 77.5645C193.654 76.9766 193.845 76.1152 193.85 74.9805V73.0664ZM199.106 74.9531H195.832V74.2627H199.106V74.9531ZM206.674 79H200.439V78.3711L203.851 74.502C204.416 73.8503 204.808 73.3125 205.026 72.8887C205.245 72.4648 205.354 72.0524 205.354 71.6514C205.354 71.0225 205.17 70.5257 204.801 70.1611C204.432 69.792 203.924 69.6074 203.276 69.6074C202.606 69.6074 202.064 69.8216 201.649 70.25C201.239 70.6784 201.034 71.2344 201.034 71.918H200.221C200.221 71.3574 200.346 70.847 200.597 70.3867C200.852 69.9264 201.212 69.5664 201.677 69.3066C202.146 69.0423 202.679 68.9102 203.276 68.9102C204.188 68.9102 204.899 69.1494 205.409 69.6279C205.924 70.1064 206.182 70.7581 206.182 71.583C206.182 72.0479 206.036 72.556 205.744 73.1074C205.457 73.6589 204.949 74.347 204.22 75.1719L201.444 78.3096H206.674V79ZM214.207 74.8506C214.207 76.2542 213.95 77.3206 213.435 78.0498C212.92 78.7744 212.161 79.1367 211.158 79.1367C210.174 79.1367 209.42 78.7812 208.896 78.0703C208.371 77.3548 208.103 76.3158 208.089 74.9531V73.1689C208.089 71.7699 208.349 70.7103 208.868 69.9902C209.388 69.2702 210.146 68.9102 211.145 68.9102C212.129 68.9102 212.881 69.2588 213.4 69.9561C213.92 70.6488 214.189 71.6719 214.207 73.0254V74.8506ZM213.387 73.0664C213.387 71.9271 213.2 71.0658 212.826 70.4824C212.457 69.8991 211.896 69.6074 211.145 69.6074C210.406 69.6074 209.85 69.8923 209.477 70.4619C209.103 71.0316 208.911 71.8724 208.902 72.9844V74.9395C208.902 76.0742 209.094 76.9424 209.477 77.5439C209.864 78.1455 210.424 78.4463 211.158 78.4463C211.887 78.4463 212.439 78.1523 212.812 77.5645C213.191 76.9766 213.382 76.1152 213.387 74.9805V73.0664ZM222.205 79H215.971V78.3711L219.382 74.502C219.947 73.8503 220.339 73.3125 220.558 72.8887C220.776 72.4648 220.886 72.0524 220.886 71.6514C220.886 71.0225 220.701 70.5257 220.332 70.1611C219.963 69.792 219.455 69.6074 218.808 69.6074C218.138 69.6074 217.595 69.8216 217.181 70.25C216.771 70.6784 216.565 71.2344 216.565 71.918H215.752C215.752 71.3574 215.877 70.847 216.128 70.3867C216.383 69.9264 216.743 69.5664 217.208 69.3066C217.677 69.0423 218.211 68.9102 218.808 68.9102C219.719 68.9102 220.43 69.1494 220.94 69.6279C221.455 70.1064 221.713 70.7581 221.713 71.583C221.713 72.0479 221.567 72.556 221.275 73.1074C220.988 73.6589 220.48 74.347 219.751 75.1719L216.976 78.3096H222.205V79ZM229.738 74.8506C229.738 76.2542 229.481 77.3206 228.966 78.0498C228.451 78.7744 227.692 79.1367 226.689 79.1367C225.705 79.1367 224.951 78.7812 224.427 78.0703C223.903 77.3548 223.634 76.3158 223.62 74.9531V73.1689C223.62 71.7699 223.88 70.7103 224.399 69.9902C224.919 69.2702 225.678 68.9102 226.676 68.9102C227.66 68.9102 228.412 69.2588 228.932 69.9561C229.451 70.6488 229.72 71.6719 229.738 73.0254V74.8506ZM228.918 73.0664C228.918 71.9271 228.731 71.0658 228.357 70.4824C227.988 69.8991 227.428 69.6074 226.676 69.6074C225.938 69.6074 225.382 69.8923 225.008 70.4619C224.634 71.0316 224.443 71.8724 224.434 72.9844V74.9395C224.434 76.0742 224.625 76.9424 225.008 77.5439C225.395 78.1455 225.956 78.4463 226.689 78.4463C227.419 78.4463 227.97 78.1523 228.344 77.5645C228.722 76.9766 228.913 76.1152 228.918 74.9805V73.0664Z" fill="#E5E9F0"/>
<path d="M18.7692 59.035C18.7692 64.3426 19.535 68.1636 14.1449 68.1636C8.1605 68.7076 0 61.5728 0 53.6843C0 48.3767 3.33014 44.2204 9.00952 45.8554C14.6889 47.4903 18.7692 53.7275 18.7692 59.035Z" fill="#B9906A"/>
<path d="M14.2472 66.1883H14.2246L14.202 66.1904C11.9616 66.394 9.21593 65.1509 7.00287 63.0064C4.79974 60.8715 3.22021 57.9329 3.22021 54.8887C3.22021 52.8201 3.86998 51.0373 5.00403 49.9358C6.11612 48.8556 7.75925 48.366 9.924 48.9892C12.1077 49.6179 14.0086 51.1405 15.3675 53.0468C16.7273 54.9547 17.5157 57.2072 17.5157 59.2492C17.5157 59.7711 17.5241 60.2538 17.5322 60.7126C17.5414 61.2428 17.5501 61.741 17.5446 62.2307C17.5346 63.1218 17.4752 63.8584 17.2995 64.4479C17.1282 65.0229 16.8539 65.4339 16.4188 65.7136C15.9706 66.0017 15.2935 66.1883 14.2472 66.1883Z" fill="#A27C59" stroke="#A17C59"/>
<path d="M70.9958 59.1254C70.9958 64.4684 70.23 68.3148 75.6202 68.3148C81.6048 68.8625 89.7655 61.6801 89.7655 53.7389C89.7655 48.396 86.4353 44.2119 80.7557 45.8578C75.0762 47.5036 70.9958 53.7824 70.9958 59.1254Z" fill="#B9906A"/>
<path d="M46.4602 50.9949C46.4602 62.9965 50.5647 74.7038 46.4602 78.1476C41.3148 82.2351 56.7133 92.2337 45.4268 93.9137C36.2412 95.1868 22.6492 81.9432 20.0774 79.3155C17.5056 76.6878 10.6086 60.7277 10.8806 48.0753C10.8806 25.0169 26.1975 6.32434 45.0917 6.32434C63.986 6.32434 46.4602 27.9365 46.4602 50.9949Z" fill="#B9906A"/>
<path d="M75.6112 66.2036H75.6333L75.6552 66.2056C77.9016 66.404 80.6493 65.1934 82.8606 63.1119C85.0634 61.0383 86.6378 58.1886 86.6378 55.2418C86.6378 53.2392 85.9906 51.5133 84.8593 50.4459C83.7476 49.397 82.1006 48.9191 79.9307 49.5259C77.7443 50.1373 75.844 51.6172 74.4871 53.4665C73.1286 55.3179 72.3429 57.5012 72.3429 59.4775C72.3429 59.9858 72.3345 60.4548 72.3265 60.9003C72.3172 61.4145 72.3085 61.8974 72.314 62.3733C72.3241 63.2382 72.3835 63.9505 72.558 64.5195C72.7277 65.0727 72.9994 65.4697 73.4343 65.7413C73.8836 66.0219 74.563 66.2036 75.6112 66.2036Z" fill="#A27C59" stroke="#A17C59"/>
<path d="M45.2178 66.168C45.2178 78.1696 39.7448 74.7038 43.8493 78.1477C48.9947 82.2352 33.123 92.2816 44.8827 93.9137C54.0683 95.1886 67.6602 81.9432 70.232 79.3155C72.8039 76.6878 79.4288 62.0878 79.4288 48.0753C79.4288 25.0169 64.112 6.32434 45.2178 6.32434C26.3235 6.32434 45.2178 43.1096 45.2178 66.168Z" fill="#B9906A"/>
<path d="M19.9328 37.0416C16.8878 37.1403 14.5541 39.0304 13.7679 39.9631C26.8179 37.8158 34.4744 40.6523 36.0968 40.3275C37.3948 40.0677 36.6459 37.6788 36.5171 36.5036L19.9328 37.0416Z" fill="#231713"/>
<path d="M69.6063 36.449C72.651 36.3503 75.102 38.0852 75.947 38.965C62.7866 37.6678 55.3308 40.9945 53.6909 40.7755C52.379 40.6003 52.9714 38.168 53.0238 36.9869L69.6063 36.449Z" fill="#231713"/>
<path d="M23.3933 69.7044C17.0267 65.8942 14.1447 66.7122 14.1447 66.7122C14.1447 66.7122 14.1447 67.9891 15.7768 72.0357C17.4089 76.0822 19.585 78.7799 19.585 78.7799C19.585 78.7799 21.2171 81.0003 27.2013 85.7939C33.1856 90.5875 34.2737 90.6497 34.2737 90.6497C34.2737 90.6497 33.9436 76.0185 23.3933 69.7044Z" fill="#A78261"/>
<path d="M66.9159 69.7687C73.2826 65.9703 76.1646 66.7857 76.1646 66.7857C76.1646 66.7857 76.1646 68.0587 74.5325 72.0928C72.9004 76.1269 70.7243 78.8163 70.7243 78.8163C70.7243 78.8163 69.0922 81.0299 63.1078 85.8087C57.1235 90.5876 56.0354 90.6497 56.0354 90.6497C56.0354 90.6497 56.3655 76.0634 66.9159 69.7687Z" fill="#A78261"/>
<path d="M40.6689 52.7612C41.8097 48.9613 47.1903 48.9613 48.3311 52.7611L52.0568 65.1714C52.6052 66.998 51.788 68.9665 50.0144 69.6678C48.325 70.3357 46.2141 71 44.5 71C42.7859 71 40.675 70.3357 38.9856 69.6678C37.212 68.9665 36.3948 66.998 36.9432 65.1714L40.6689 52.7612Z" fill="#B97D6A"/>
<path d="M41.6122 57.2603C42.433 54.344 46.567 54.344 47.3878 57.2603L49.2965 64.0419C49.7004 65.4768 48.9902 67.0013 47.5642 67.4357C46.5726 67.7378 45.4408 68 44.5 68C43.5592 68 42.4274 67.7378 41.4358 67.4357C40.0098 67.0013 39.2996 65.4768 39.7035 64.0419L41.6122 57.2603Z" fill="#C98E7B"/>
<path d="M9.25555 43.3187L42.4346 44.1348C42.4346 44.1348 42.4346 59.31 38.8797 63.4261C35.3248 67.5422 15.4766 67.6131 12.218 64.6325C8.9593 61.6519 9.25555 43.3187 9.25555 43.3187Z" fill="#2E2E2E"/>
<path d="M79.9658 43.3187L46.7868 44.1348C46.7868 44.1348 46.7868 59.31 50.3417 63.4261C53.8965 67.5422 73.7447 67.6131 77.0034 64.6325C80.262 61.6519 79.9658 43.3187 79.9658 43.3187Z" fill="#2E2E2E"/>
<path d="M78.3344 46.5829H48.4981C48.4981 46.5829 48.4189 59.2271 51.6241 62.4817C54.8293 65.7363 72.7252 65.7924 75.6633 63.4356C78.6015 61.0789 78.3344 46.5829 78.3344 46.5829Z" fill="#B9906A"/>
<path d="M10.8869 46.5829H25.8038H40.7207C40.7207 46.5829 40.7999 59.2271 37.5949 62.4817C34.39 65.7363 16.4956 65.7924 13.5577 63.4356C10.6199 61.0789 10.8869 46.5829 10.8869 46.5829Z" fill="#B9906A"/>
<path d="M8.7045 43.3188C8.97447 42.7747 44.6107 44.1348 44.6107 44.1348L80.5169 43.3188L80.2469 45.4949L79.707 46.583H9.51441L8.97447 45.4949C8.97447 45.4949 8.43453 43.8628 8.7045 43.3188Z" fill="#2E2E2E"/>
<path d="M40.2584 46.0389H48.9629L48.3412 55.2875C48.3412 55.2875 46.2781 50.6632 44.6107 50.6632C42.9433 50.6632 40.8802 55.2875 40.8802 55.2875L40.2584 46.0389Z" fill="#2E2E2E"/>
<path d="M51.6831 46.5829C49.507 46.8005 48.7816 49.9378 48.691 51.4792H48.4189V46.5829H51.6831Z" fill="#2E2E2E"/>
<path d="M13.6008 46.5829C11.7873 46.7763 10.9562 49.565 10.8806 50.9352V46.5829H13.6008Z" fill="#2E2E2E"/>
<path d="M37.5383 46.5829C39.7144 46.8005 40.4398 49.9378 40.5305 51.4792H40.8025V46.5829H37.5383Z" fill="#2E2E2E"/>
<path d="M11.4247 40.5985C13.5926 28.4675 20.9453 16.389 32.9141 14.4849C34.3351 13.6454 36.0781 7.45773 30.536 6.95407C24.9939 6.45041 19.6117 8.21321 15.0821 11.0463C10.5525 13.8794 11.4247 40.5985 11.4247 40.5985Z" fill="#211411"/>
<path d="M45.5415 39.1758C48.584 33.161 49.0552 27.5138 47.6688 24.8215C50.3437 27.0303 52.9132 33.2988 49.6034 38.3831C45.0077 45.4428 46.0945 49.7354 46.1435 50.4693C45.3344 50.5249 42.4991 45.1907 45.5415 39.1758Z" fill="#19110E"/>
<path d="M65.7155 44.8322C66.5146 39.6897 65.0454 35.686 62.8461 34.334C66.081 34.9118 70.5892 38.2871 69.2271 42.8891C67.3357 49.2791 69.797 51.8231 70.0905 52.3053C69.3565 52.6228 64.9165 49.9747 65.7155 44.8322Z" fill="#1F1410"/>
<path d="M67.1881 44.4067C66.9705 35.4846 59.8437 32.0753 57.9396 30.8059C55.8541 30.3525 51.1936 28.1401 49.235 22.9174C46.7869 16.389 27.7457 14.4849 28.2898 12.3088C28.725 10.5679 29.1965 8.86321 29.3778 8.22851C35.6342 -4.28426 68.0042 0.340021 73.9886 3.60422C79.9729 6.86842 85.1412 12.8528 84.8692 33.2541C84.6516 49.5751 88.0427 53.0206 90.8536 54.1993C90.3096 55.0154 85.9573 58.0076 79.7009 56.3755C72.1638 54.4093 68.1855 49.031 67.1881 44.4067Z" fill="url(#paint0_linear)"/>
<path d="M37.7793 77.6373C38.4011 77.2239 39.1625 77.1115 39.9029 77.2077C41.1925 77.3754 43.3186 77.6129 44.8827 77.5929C46.2184 77.5758 48.02 77.3597 49.152 77.2051C49.8523 77.1094 50.5712 77.2027 51.1806 77.5607C52.5218 78.3488 54.3648 79.769 50.2247 79.769C45.5367 79.769 43.9741 79.769 38.7652 79.769C35.1205 79.769 36.5764 78.4372 37.7793 77.6373Z" fill="#8A5949"/>
<path d="M32.6421 52.0232C32.6421 53.9762 31.6678 55.5594 30.4659 55.5594C29.2641 55.5594 28.2898 53.9762 28.2898 52.0232C28.2898 50.0702 29.2641 48.963 30.4659 48.963C31.6678 48.963 32.6421 50.0702 32.6421 52.0232Z" fill="#3D2B27"/>
<path d="M62.5638 52.0232C62.5638 53.9762 61.5895 55.5594 60.3877 55.5594C59.1858 55.5594 58.2115 53.9762 58.2115 52.0232C58.2115 50.0702 59.1858 48.963 60.3877 48.963C61.5895 48.963 62.5638 50.0702 62.5638 52.0232Z" fill="#3D2B27"/>
<ellipse cx="58.4836" cy="50.0511" rx="1.36008" ry="1.08807" fill="white"/>
<ellipse cx="28.5617" cy="50.0511" rx="1.36008" ry="1.08807" fill="white"/>
<path d="M47.4629 41.3412C51.4115 19.4049 39.7144 16.661 39.7144 16.661C48.4189 1.15152 79.0169 13.6791 64.056 35.9009C49.0951 58.1226 64.6 57.3902 60.7918 57.9342C56.9835 58.4782 45.0148 54.942 47.4629 41.3412Z" fill="url(#paint1_linear)"/>
<defs>
<linearGradient id="paint0_linear" x1="54.4034" y1="30.8059" x2="119.687" y2="-7.54844" gradientUnits="userSpaceOnUse">
<stop stop-color="#211411"/>
<stop offset="1" stop-color="#3D2B27"/>
</linearGradient>
<linearGradient id="paint1_linear" x1="30.7378" y1="46.8549" x2="73.1725" y2="21.0133" gradientUnits="userSpaceOnUse">
<stop stop-color="#0F0A08"/>
<stop offset="1" stop-color="#30201B"/>
</linearGradient>
</defs>
</svg>
