<svg width="274" height="78" viewBox="0 0 274 78" fill="none" xmlns="http://www.w3.org/2000/svg">
<path d="M85.3056 23.7H91.1556C93.7156 23.7 95.6256 24.19 96.8856 25.17C98.1456 26.13 98.7756 27.79 98.7756 30.15C98.7756 31.69 98.5456 32.95 98.0856 33.93C97.6456 34.89 96.8756 35.59 95.7756 36.03L99.1656 48H94.7256L91.8156 36.87H89.7156V48H85.3056V23.7ZM91.1256 34.11C92.3856 34.11 93.2756 33.82 93.7956 33.24C94.3356 32.66 94.6056 31.71 94.6056 30.39C94.6056 29.11 94.3656 28.18 93.8856 27.6C93.4256 27.02 92.5856 26.73 91.3656 26.73H89.7156V34.11H91.1256ZM107.102 48.27C105.242 48.27 103.852 47.76 102.932 46.74C102.012 45.7 101.552 44.2 101.552 42.24V36.42C101.552 34.46 102.012 32.97 102.932 31.95C103.852 30.91 105.242 30.39 107.102 30.39C108.962 30.39 110.352 30.91 111.272 31.95C112.212 32.97 112.682 34.46 112.682 36.42V42.24C112.682 44.2 112.212 45.7 111.272 46.74C110.352 47.76 108.962 48.27 107.102 48.27ZM107.132 45.45C107.752 45.45 108.162 45.21 108.362 44.73C108.562 44.23 108.662 43.5 108.662 42.54V36.15C108.662 35.19 108.562 34.46 108.362 33.96C108.162 33.46 107.752 33.21 107.132 33.21C106.492 33.21 106.072 33.46 105.872 33.96C105.672 34.46 105.572 35.19 105.572 36.15V42.54C105.572 43.5 105.672 44.23 105.872 44.73C106.072 45.21 106.492 45.45 107.132 45.45ZM119.404 48.27C118.004 48.27 116.954 47.78 116.254 46.8C115.574 45.8 115.234 44.23 115.234 42.09V36.78C115.234 34.82 115.554 33.27 116.194 32.13C116.854 30.97 117.914 30.39 119.374 30.39C120.494 30.39 121.534 30.85 122.494 31.77V23.7H126.604V48H122.494V46.77C121.534 47.77 120.504 48.27 119.404 48.27ZM120.874 45.45C121.394 45.45 121.934 45.26 122.494 44.88V33.75C121.974 33.37 121.434 33.18 120.874 33.18C119.834 33.18 119.314 34.09 119.314 35.91V42.39C119.314 43.37 119.424 44.13 119.644 44.67C119.864 45.19 120.274 45.45 120.874 45.45ZM129.803 30.66H133.883V33.33C134.463 32.31 135.053 31.58 135.653 31.14C136.253 30.68 136.923 30.45 137.663 30.45C137.923 30.45 138.133 30.47 138.293 30.51V34.74C137.653 34.5 137.093 34.38 136.613 34.38C135.533 34.38 134.623 34.94 133.883 36.06V48H129.803V30.66ZM140.409 24.51H144.489V27.9H140.409V24.51ZM140.409 30.66H144.489V48H140.409V30.66ZM152.831 53.7C150.991 53.7 149.531 53.41 148.451 52.83C147.371 52.27 146.831 51.42 146.831 50.28C146.831 49.52 147.071 48.85 147.551 48.27C148.031 47.71 148.661 47.25 149.441 46.89C148.781 46.69 148.271 46.4 147.911 46.02C147.571 45.62 147.401 45.14 147.401 44.58C147.401 43.94 147.551 43.38 147.851 42.9C148.171 42.42 148.661 41.89 149.321 41.31C148.701 40.81 148.231 40.18 147.911 39.42C147.611 38.64 147.461 37.66 147.461 36.48C147.461 34.5 147.931 32.99 148.871 31.95C149.831 30.91 151.221 30.39 153.041 30.39C154.801 30.39 156.081 30.93 156.881 32.01C157.061 31.73 157.351 31.42 157.751 31.08C158.151 30.74 158.601 30.45 159.101 30.21L159.671 29.97L160.631 32.16C160.271 32.26 159.781 32.44 159.161 32.7C158.541 32.94 158.091 33.15 157.811 33.33C157.991 33.73 158.141 34.23 158.261 34.83C158.381 35.43 158.441 36 158.441 36.54C158.441 38.44 158.001 39.92 157.121 40.98C156.241 42.02 154.881 42.54 153.041 42.54C152.241 42.54 151.461 42.42 150.701 42.18C150.361 42.68 150.191 43.08 150.191 43.38C150.191 43.62 150.311 43.81 150.551 43.95C150.791 44.07 151.191 44.16 151.751 44.22L155.381 44.58C158.181 44.88 159.581 46.34 159.581 48.96C159.581 50.54 159.031 51.72 157.931 52.5C156.851 53.3 155.151 53.7 152.831 53.7ZM153.041 39.96C153.721 39.96 154.171 39.7 154.391 39.18C154.611 38.66 154.721 37.76 154.721 36.48C154.721 35.22 154.611 34.32 154.391 33.78C154.171 33.24 153.721 32.97 153.041 32.97C152.361 32.97 151.901 33.24 151.661 33.78C151.421 34.3 151.301 35.2 151.301 36.48C151.301 37.68 151.421 38.56 151.661 39.12C151.901 39.68 152.361 39.96 153.041 39.96ZM153.281 50.64C154.421 50.64 155.261 50.52 155.801 50.28C156.361 50.06 156.641 49.67 156.641 49.11C156.641 48.63 156.461 48.27 156.101 48.03C155.761 47.81 155.111 47.65 154.151 47.55L151.181 47.28C150.801 47.6 150.511 47.9 150.311 48.18C150.111 48.48 150.011 48.81 150.011 49.17C150.011 49.67 150.261 50.04 150.761 50.28C151.261 50.52 152.101 50.64 153.281 50.64ZM166.985 48.27C165.125 48.27 163.735 47.76 162.815 46.74C161.895 45.7 161.435 44.2 161.435 42.24V36.42C161.435 34.46 161.895 32.97 162.815 31.95C163.735 30.91 165.125 30.39 166.985 30.39C168.845 30.39 170.235 30.91 171.155 31.95C172.095 32.97 172.565 34.46 172.565 36.42V42.24C172.565 44.2 172.095 45.7 171.155 46.74C170.235 47.76 168.845 48.27 166.985 48.27ZM167.015 45.45C167.635 45.45 168.045 45.21 168.245 44.73C168.445 44.23 168.545 43.5 168.545 42.54V36.15C168.545 35.19 168.445 34.46 168.245 33.96C168.045 33.46 167.635 33.21 167.015 33.21C166.375 33.21 165.955 33.46 165.755 33.96C165.555 34.46 165.455 35.19 165.455 36.15V42.54C165.455 43.5 165.555 44.23 165.755 44.73C165.955 45.21 166.375 45.45 167.015 45.45ZM189.072 48.33C186.872 48.33 185.222 47.71 184.122 46.47C183.042 45.23 182.452 43.38 182.352 40.92L186.162 40.17C186.222 41.71 186.462 42.89 186.882 43.71C187.322 44.51 188.002 44.91 188.922 44.91C189.602 44.91 190.102 44.71 190.422 44.31C190.762 43.89 190.932 43.33 190.932 42.63C190.932 41.67 190.712 40.86 190.272 40.2C189.852 39.52 189.182 38.78 188.262 37.98L185.202 35.31C184.262 34.51 183.552 33.65 183.072 32.73C182.612 31.81 182.382 30.71 182.382 29.43C182.382 27.53 182.932 26.06 184.032 25.02C185.152 23.96 186.692 23.43 188.652 23.43C190.752 23.43 192.252 24.03 193.152 25.23C194.072 26.41 194.602 28.01 194.742 30.03L190.932 30.69C190.872 29.37 190.682 28.38 190.362 27.72C190.062 27.04 189.462 26.7 188.562 26.7C187.922 26.7 187.422 26.92 187.062 27.36C186.702 27.78 186.522 28.32 186.522 28.98C186.522 29.76 186.672 30.42 186.972 30.96C187.292 31.48 187.802 32.04 188.502 32.64L191.532 35.31C192.672 36.29 193.562 37.34 194.202 38.46C194.842 39.58 195.162 40.88 195.162 42.36C195.162 43.52 194.902 44.55 194.382 45.45C193.882 46.35 193.172 47.06 192.252 47.58C191.332 48.08 190.272 48.33 189.072 48.33ZM202.756 48.27C200.836 48.27 199.426 47.74 198.526 46.68C197.626 45.6 197.176 44.01 197.176 41.91V36.75C197.176 34.63 197.626 33.04 198.526 31.98C199.446 30.92 200.856 30.39 202.756 30.39C204.716 30.39 206.096 30.94 206.896 32.04C207.716 33.14 208.126 34.8 208.126 37.02V39.51H201.226V42.93C201.226 43.77 201.346 44.38 201.586 44.76C201.846 45.14 202.246 45.33 202.786 45.33C203.306 45.33 203.676 45.15 203.896 44.79C204.136 44.41 204.256 43.84 204.256 43.08V41.61H208.096V42.81C208.096 44.59 207.646 45.95 206.746 46.89C205.846 47.81 204.516 48.27 202.756 48.27ZM204.256 37.5V35.85C204.256 34.95 204.146 34.31 203.926 33.93C203.706 33.53 203.316 33.33 202.756 33.33C202.176 33.33 201.776 33.54 201.556 33.96C201.336 34.38 201.226 35.16 201.226 36.3V37.5H204.256ZM215.995 53.7C214.155 53.7 212.695 53.41 211.615 52.83C210.535 52.27 209.995 51.42 209.995 50.28C209.995 49.52 210.235 48.85 210.715 48.27C211.195 47.71 211.825 47.25 212.605 46.89C211.945 46.69 211.435 46.4 211.075 46.02C210.735 45.62 210.565 45.14 210.565 44.58C210.565 43.94 210.715 43.38 211.015 42.9C211.335 42.42 211.825 41.89 212.485 41.31C211.865 40.81 211.395 40.18 211.075 39.42C210.775 38.64 210.625 37.66 210.625 36.48C210.625 34.5 211.095 32.99 212.035 31.95C212.995 30.91 214.385 30.39 216.205 30.39C217.965 30.39 219.245 30.93 220.045 32.01C220.225 31.73 220.515 31.42 220.915 31.08C221.315 30.74 221.765 30.45 222.265 30.21L222.835 29.97L223.795 32.16C223.435 32.26 222.945 32.44 222.325 32.7C221.705 32.94 221.255 33.15 220.975 33.33C221.155 33.73 221.305 34.23 221.425 34.83C221.545 35.43 221.605 36 221.605 36.54C221.605 38.44 221.165 39.92 220.285 40.98C219.405 42.02 218.045 42.54 216.205 42.54C215.405 42.54 214.625 42.42 213.865 42.18C213.525 42.68 213.355 43.08 213.355 43.38C213.355 43.62 213.475 43.81 213.715 43.95C213.955 44.07 214.355 44.16 214.915 44.22L218.545 44.58C221.345 44.88 222.745 46.34 222.745 48.96C222.745 50.54 222.195 51.72 221.095 52.5C220.015 53.3 218.315 53.7 215.995 53.7ZM216.205 39.96C216.885 39.96 217.335 39.7 217.555 39.18C217.775 38.66 217.885 37.76 217.885 36.48C217.885 35.22 217.775 34.32 217.555 33.78C217.335 33.24 216.885 32.97 216.205 32.97C215.525 32.97 215.065 33.24 214.825 33.78C214.585 34.3 214.465 35.2 214.465 36.48C214.465 37.68 214.585 38.56 214.825 39.12C215.065 39.68 215.525 39.96 216.205 39.96ZM216.445 50.64C217.585 50.64 218.425 50.52 218.965 50.28C219.525 50.06 219.805 49.67 219.805 49.11C219.805 48.63 219.625 48.27 219.265 48.03C218.925 47.81 218.275 47.65 217.315 47.55L214.345 47.28C213.965 47.6 213.675 47.9 213.475 48.18C213.275 48.48 213.175 48.81 213.175 49.17C213.175 49.67 213.425 50.04 213.925 50.28C214.425 50.52 215.265 50.64 216.445 50.64ZM227.747 48.27C226.767 48.27 226.037 47.91 225.557 47.19C225.077 46.47 224.837 45.56 224.837 44.46V30.66H228.887V43.71C228.887 44.25 228.977 44.66 229.157 44.94C229.337 45.22 229.647 45.36 230.087 45.36C230.547 45.36 231.157 45.09 231.917 44.55V30.66H235.997V48H231.917V46.35C230.577 47.63 229.187 48.27 227.747 48.27ZM244.387 48.27C242.467 48.27 241.057 47.74 240.157 46.68C239.257 45.6 238.807 44.01 238.807 41.91V36.75C238.807 34.63 239.257 33.04 240.157 31.98C241.077 30.92 242.487 30.39 244.387 30.39C246.347 30.39 247.727 30.94 248.527 32.04C249.347 33.14 249.757 34.8 249.757 37.02V39.51H242.857V42.93C242.857 43.77 242.977 44.38 243.217 44.76C243.477 45.14 243.877 45.33 244.417 45.33C244.937 45.33 245.307 45.15 245.527 44.79C245.767 44.41 245.887 43.84 245.887 43.08V41.61H249.727V42.81C249.727 44.59 249.277 45.95 248.377 46.89C247.477 47.81 246.147 48.27 244.387 48.27ZM245.887 37.5V35.85C245.887 34.95 245.777 34.31 245.557 33.93C245.337 33.53 244.947 33.33 244.387 33.33C243.807 33.33 243.407 33.54 243.187 33.96C242.967 34.38 242.857 35.16 242.857 36.3V37.5H245.887ZM252.796 23.7H256.846V48H252.796V23.7Z" fill="#E5E9F0"/>
<path d="M144.605 67H138.371V66.3711L141.782 62.502C142.347 61.8503 142.739 61.3125 142.958 60.8887C143.177 60.4648 143.286 60.0524 143.286 59.6514C143.286 59.0225 143.102 58.5257 142.732 58.1611C142.363 57.792 141.855 57.6074 141.208 57.6074C140.538 57.6074 139.996 57.8216 139.581 58.25C139.171 58.6784 138.966 59.2344 138.966 59.918H138.152C138.152 59.3574 138.278 58.847 138.528 58.3867C138.784 57.9264 139.144 57.5664 139.608 57.3066C140.078 57.0423 140.611 56.9102 141.208 56.9102C142.119 56.9102 142.83 57.1494 143.341 57.6279C143.856 58.1064 144.113 58.7581 144.113 59.583C144.113 60.0479 143.967 60.556 143.676 61.1074C143.389 61.6589 142.881 62.347 142.151 63.1719L139.376 66.3096H144.605V67ZM152.139 62.8506C152.139 64.2542 151.881 65.3206 151.366 66.0498C150.851 66.7744 150.092 67.1367 149.09 67.1367C148.105 67.1367 147.351 66.7812 146.827 66.0703C146.303 65.3548 146.034 64.3158 146.021 62.9531V61.1689C146.021 59.7699 146.28 58.7103 146.8 57.9902C147.319 57.2702 148.078 56.9102 149.076 56.9102C150.061 56.9102 150.812 57.2588 151.332 57.9561C151.852 58.6488 152.12 59.6719 152.139 61.0254V62.8506ZM151.318 61.0664C151.318 59.9271 151.132 59.0658 150.758 58.4824C150.389 57.8991 149.828 57.6074 149.076 57.6074C148.338 57.6074 147.782 57.8923 147.408 58.4619C147.035 59.0316 146.843 59.8724 146.834 60.9844V62.9395C146.834 64.0742 147.025 64.9424 147.408 65.5439C147.796 66.1455 148.356 66.4463 149.09 66.4463C149.819 66.4463 150.37 66.1523 150.744 65.5645C151.122 64.9766 151.314 64.1152 151.318 62.9805V61.0664ZM160.137 67H153.902V66.3711L157.313 62.502C157.879 61.8503 158.271 61.3125 158.489 60.8887C158.708 60.4648 158.817 60.0524 158.817 59.6514C158.817 59.0225 158.633 58.5257 158.264 58.1611C157.895 57.792 157.386 57.6074 156.739 57.6074C156.069 57.6074 155.527 57.8216 155.112 58.25C154.702 58.6784 154.497 59.2344 154.497 59.918H153.684C153.684 59.3574 153.809 58.847 154.06 58.3867C154.315 57.9264 154.675 57.5664 155.14 57.3066C155.609 57.0423 156.142 56.9102 156.739 56.9102C157.651 56.9102 158.362 57.1494 158.872 57.6279C159.387 58.1064 159.645 58.7581 159.645 59.583C159.645 60.0479 159.499 60.556 159.207 61.1074C158.92 61.6589 158.412 62.347 157.683 63.1719L154.907 66.3096H160.137V67ZM167.67 62.8506C167.67 64.2542 167.412 65.3206 166.897 66.0498C166.382 66.7744 165.624 67.1367 164.621 67.1367C163.637 67.1367 162.882 66.7812 162.358 66.0703C161.834 65.3548 161.565 64.3158 161.552 62.9531V61.1689C161.552 59.7699 161.812 58.7103 162.331 57.9902C162.851 57.2702 163.609 56.9102 164.607 56.9102C165.592 56.9102 166.344 57.2588 166.863 57.9561C167.383 58.6488 167.652 59.6719 167.67 61.0254V62.8506ZM166.85 61.0664C166.85 59.9271 166.663 59.0658 166.289 58.4824C165.92 57.8991 165.359 57.6074 164.607 57.6074C163.869 57.6074 163.313 57.8923 162.939 58.4619C162.566 59.0316 162.374 59.8724 162.365 60.9844V62.9395C162.365 64.0742 162.557 64.9424 162.939 65.5439C163.327 66.1455 163.887 66.4463 164.621 66.4463C165.35 66.4463 165.902 66.1523 166.275 65.5645C166.654 64.9766 166.845 64.1152 166.85 62.9805V61.0664ZM172.106 62.9531H168.832V62.2627H172.106V62.9531ZM179.674 67H173.439V66.3711L176.851 62.502C177.416 61.8503 177.808 61.3125 178.026 60.8887C178.245 60.4648 178.354 60.0524 178.354 59.6514C178.354 59.0225 178.17 58.5257 177.801 58.1611C177.432 57.792 176.924 57.6074 176.276 57.6074C175.606 57.6074 175.064 57.8216 174.649 58.25C174.239 58.6784 174.034 59.2344 174.034 59.918H173.221C173.221 59.3574 173.346 58.847 173.597 58.3867C173.852 57.9264 174.212 57.5664 174.677 57.3066C175.146 57.0423 175.679 56.9102 176.276 56.9102C177.188 56.9102 177.899 57.1494 178.409 57.6279C178.924 58.1064 179.182 58.7581 179.182 59.583C179.182 60.0479 179.036 60.556 178.744 61.1074C178.457 61.6589 177.949 62.347 177.22 63.1719L174.444 66.3096H179.674V67ZM187.207 62.8506C187.207 64.2542 186.95 65.3206 186.435 66.0498C185.92 66.7744 185.161 67.1367 184.158 67.1367C183.174 67.1367 182.42 66.7812 181.896 66.0703C181.371 65.3548 181.103 64.3158 181.089 62.9531V61.1689C181.089 59.7699 181.349 58.7103 181.868 57.9902C182.388 57.2702 183.146 56.9102 184.145 56.9102C185.129 56.9102 185.881 57.2588 186.4 57.9561C186.92 58.6488 187.189 59.6719 187.207 61.0254V62.8506ZM186.387 61.0664C186.387 59.9271 186.2 59.0658 185.826 58.4824C185.457 57.8991 184.896 57.6074 184.145 57.6074C183.406 57.6074 182.85 57.8923 182.477 58.4619C182.103 59.0316 181.911 59.8724 181.902 60.9844V62.9395C181.902 64.0742 182.094 64.9424 182.477 65.5439C182.864 66.1455 183.424 66.4463 184.158 66.4463C184.887 66.4463 185.439 66.1523 185.812 65.5645C186.191 64.9766 186.382 64.1152 186.387 62.9805V61.0664ZM195.205 67H188.971V66.3711L192.382 62.502C192.947 61.8503 193.339 61.3125 193.558 60.8887C193.776 60.4648 193.886 60.0524 193.886 59.6514C193.886 59.0225 193.701 58.5257 193.332 58.1611C192.963 57.792 192.455 57.6074 191.808 57.6074C191.138 57.6074 190.595 57.8216 190.181 58.25C189.771 58.6784 189.565 59.2344 189.565 59.918H188.752C188.752 59.3574 188.877 58.847 189.128 58.3867C189.383 57.9264 189.743 57.5664 190.208 57.3066C190.677 57.0423 191.211 56.9102 191.808 56.9102C192.719 56.9102 193.43 57.1494 193.94 57.6279C194.455 58.1064 194.713 58.7581 194.713 59.583C194.713 60.0479 194.567 60.556 194.275 61.1074C193.988 61.6589 193.48 62.347 192.751 63.1719L189.976 66.3096H195.205V67ZM202.738 62.8506C202.738 64.2542 202.481 65.3206 201.966 66.0498C201.451 66.7744 200.692 67.1367 199.689 67.1367C198.705 67.1367 197.951 66.7812 197.427 66.0703C196.903 65.3548 196.634 64.3158 196.62 62.9531V61.1689C196.62 59.7699 196.88 58.7103 197.399 57.9902C197.919 57.2702 198.678 56.9102 199.676 56.9102C200.66 56.9102 201.412 57.2588 201.932 57.9561C202.451 58.6488 202.72 59.6719 202.738 61.0254V62.8506ZM201.918 61.0664C201.918 59.9271 201.731 59.0658 201.357 58.4824C200.988 57.8991 200.428 57.6074 199.676 57.6074C198.938 57.6074 198.382 57.8923 198.008 58.4619C197.634 59.0316 197.443 59.8724 197.434 60.9844V62.9395C197.434 64.0742 197.625 64.9424 198.008 65.5439C198.395 66.1455 198.956 66.4463 199.689 66.4463C200.419 66.4463 200.97 66.1523 201.344 65.5645C201.722 64.9766 201.913 64.1152 201.918 62.9805V61.0664Z" fill="#E5E9F0"/>
<path d="M15.5744 48.9864C15.5744 53.3906 16.2099 56.5612 11.7372 56.5612C6.77148 57.0126 0 51.0922 0 44.5464C0 40.1423 2.76331 36.6934 7.47599 38.0501C12.1887 39.4068 15.5744 44.5823 15.5744 48.9864Z" fill="#B9906A"/>
<path d="M11.8221 54.8372H11.7994L11.7768 54.8393C9.95149 55.0052 7.6963 53.9906 5.87 52.2209C4.05361 50.4608 2.75708 48.0432 2.75708 45.5461C2.75708 43.8456 3.29136 42.3909 4.21145 41.4973C5.10959 40.6249 6.4403 40.2228 8.21114 40.7325C10.001 41.2478 11.5634 42.4974 12.6823 44.0671C13.8022 45.6383 14.4491 47.4905 14.4491 49.1644C14.4491 49.6016 14.4561 50.0024 14.4628 50.3824C14.4705 50.8202 14.4777 51.2304 14.4731 51.6374C14.4648 52.3753 14.4154 52.9766 14.2732 53.4539C14.1354 53.9166 13.9179 54.2383 13.578 54.4569C13.225 54.6838 12.6814 54.8372 11.8221 54.8372Z" fill="#A27C59" stroke="#A17C59"/>
<path d="M58.9115 49.0614C58.9115 53.4949 58.276 56.6867 62.7487 56.6867C67.7146 57.1411 74.4863 51.1812 74.4863 44.5918C74.4863 40.1583 71.7229 36.6864 67.0101 38.0521C62.2973 39.4178 58.9115 44.6279 58.9115 49.0614Z" fill="#B9906A"/>
<path d="M38.5522 42.3149C38.5522 52.2736 41.958 61.9882 38.5522 64.8459C34.2826 68.2376 47.06 76.5343 37.6946 77.9284C30.0726 78.9847 18.7942 67.9953 16.6601 65.8149C14.526 63.6345 8.80299 50.391 9.02871 39.8922C9.02871 20.7586 21.7384 5.2478 37.4167 5.2478C53.0949 5.2478 38.5522 23.1813 38.5522 42.3149Z" fill="#B9906A"/>
<path d="M62.7413 54.8499H62.7633L62.7853 54.8519C64.6166 55.0136 66.8738 54.025 68.6984 52.3075C70.5145 50.598 71.8059 48.2544 71.8059 45.839C71.8059 44.194 71.2742 42.7869 70.3568 41.9213C69.4591 41.0743 68.1245 40.6813 66.3484 41.178C64.5559 41.6793 62.9941 42.894 61.8771 44.4163C60.7586 45.9406 60.1144 47.7351 60.1144 49.3537C60.1144 49.7799 60.1074 50.1692 60.1007 50.5382C60.093 50.9627 60.0858 51.3601 60.0904 51.7556C60.0987 52.4718 60.148 53.0527 60.2891 53.5126C60.4253 53.9567 60.6402 54.267 60.98 54.4792C61.3342 54.7004 61.88 54.8499 62.7413 54.8499Z" fill="#A27C59" stroke="#A17C59"/>
<path d="M37.521 54.9053C37.521 64.864 32.9797 61.9882 36.3855 64.8459C40.655 68.2376 27.485 76.5741 37.243 77.9284C44.8651 78.9862 56.1435 67.9954 58.2776 65.8149C60.4116 63.6345 65.9089 51.5196 65.9089 39.8922C65.9089 20.7586 53.1992 5.2478 37.521 5.2478C21.8428 5.2478 37.521 35.7718 37.521 54.9053Z" fill="#B9906A"/>
<path d="M16.5398 30.7365C14.0131 30.8184 12.0767 32.3868 11.4243 33.1608C22.253 31.3789 28.6063 33.7326 29.9525 33.4631C31.0295 33.2475 30.4082 31.2653 30.3013 30.2901L16.5398 30.7365Z" fill="#231713"/>
<path d="M57.7583 30.2449C60.2848 30.163 62.3186 31.6026 63.0197 32.3326C52.0994 31.2562 45.9127 34.0167 44.5519 33.835C43.4633 33.6896 43.9549 31.6713 43.9984 30.6913L57.7583 30.2449Z" fill="#231713"/>
<path d="M19.4115 57.8398C14.1287 54.6781 11.7372 55.3569 11.7372 55.3569C11.7372 55.3569 11.7372 56.4165 13.0915 59.7742C14.4457 63.132 16.2514 65.3705 16.2514 65.3705C16.2514 65.3705 17.6057 67.2129 22.5714 71.1906C27.5371 75.1683 28.4399 75.2199 28.4399 75.2199C28.4399 75.2199 28.166 63.0791 19.4115 57.8398Z" fill="#A78261"/>
<path d="M55.5261 57.8932C60.809 54.7413 63.2005 55.418 63.2005 55.418C63.2005 55.418 63.2005 56.4743 61.8462 59.8217C60.4919 63.1692 58.6862 65.4008 58.6862 65.4008C58.6862 65.4008 57.3319 67.2376 52.3662 71.203C47.4004 75.1685 46.4976 75.22 46.4976 75.22C46.4976 75.22 46.7715 63.1164 55.5261 57.8932Z" fill="#A78261"/>
<path d="M33.0944 45.9526C34.2352 42.1528 39.6158 42.1527 40.7566 45.9526L43.0355 53.5436C43.5839 55.3702 42.7686 57.3479 40.9796 58.0089C39.6814 58.4886 38.1761 58.9148 36.9255 58.9148C35.6749 58.9148 34.1696 58.4886 32.8714 58.0089C31.0825 57.3479 30.2671 55.3702 30.8155 53.5436L33.0944 45.9526Z" fill="#B97D6A"/>
<path d="M34.0378 49.2603C34.8586 46.344 38.9926 46.344 39.8134 49.2603L40.786 52.7158C41.1899 54.1506 40.4812 55.6861 39.0436 56.0803C38.3333 56.2751 37.5747 56.4255 36.9256 56.4255C36.2766 56.4255 35.518 56.2751 34.8077 56.0803C33.3701 55.6861 32.6614 54.1506 33.0653 52.7158L34.0378 49.2603Z" fill="#C98E7B"/>
<path d="M7.68013 35.9453L35.2117 36.6225C35.2117 36.6225 35.2117 49.2146 32.2619 52.6301C29.312 56.0456 12.8423 56.1045 10.1383 53.6312C7.43431 51.1579 7.68013 35.9453 7.68013 35.9453Z" fill="#2E2E2E"/>
<path d="M66.3545 35.9453L38.823 36.6225C38.823 36.6225 38.823 49.2146 41.7728 52.6301C44.7226 56.0456 61.1924 56.1045 63.8964 53.6312C66.6004 51.1579 66.3545 35.9453 66.3545 35.9453Z" fill="#2E2E2E"/>
<path d="M65.0009 38.6538H40.2431C40.2431 38.6538 40.1774 49.1458 42.837 51.8465C45.4967 54.5471 60.3464 54.5936 62.7845 52.638C65.2225 50.6824 65.0009 38.6538 65.0009 38.6538Z" fill="#B9906A"/>
<path d="M9.03381 38.6538H21.4116H33.7895C33.7895 38.6538 33.8552 49.1458 31.1957 51.8465C28.5363 54.5471 13.6878 54.5936 11.25 52.638C8.81219 50.6824 9.03381 38.6538 9.03381 38.6538Z" fill="#B9906A"/>
<path d="M7.22288 35.9452C7.4469 35.4938 37.0174 36.6224 37.0174 36.6224L66.8119 35.9452L66.5878 37.7509L66.1398 38.6538H7.89494L7.4469 37.7509C7.4469 37.7509 6.99886 36.3966 7.22288 35.9452Z" fill="#2E2E2E"/>
<path d="M33.406 38.2024H40.6289L40.113 45.8767C40.113 45.8767 38.401 42.0396 37.0174 42.0396C35.6338 42.0396 33.9219 45.8767 33.9219 45.8767L33.406 38.2024Z" fill="#2E2E2E"/>
<path d="M42.8861 38.6538C41.0804 38.8344 40.4784 41.4376 40.4032 42.7167H40.1775V38.6538H42.8861Z" fill="#2E2E2E"/>
<path d="M11.2857 38.6538C9.78095 38.8143 9.09126 41.1283 9.02856 42.2653V38.6538H11.2857Z" fill="#2E2E2E"/>
<path d="M31.1488 38.6538C32.9546 38.8344 33.5565 41.4376 33.6317 42.7167H33.8574V38.6538H31.1488Z" fill="#2E2E2E"/>
<path d="M9.48003 33.688C11.2789 23.6219 17.3801 13.5993 27.3116 12.0193C28.4908 11.3227 29.9371 6.18823 25.3383 5.7703C20.7395 5.35237 16.2734 6.81511 12.5148 9.16598C8.75622 11.5168 9.48003 33.688 9.48003 33.688Z" fill="#211411"/>
<path d="M37.7897 32.5077C40.3143 27.5167 40.7053 22.8307 39.5549 20.5967C41.7745 22.4295 43.9067 27.631 41.1602 31.8499C37.3467 37.7079 38.2486 41.2699 38.2893 41.8789C37.6179 41.925 35.2651 37.4988 37.7897 32.5077Z" fill="#19110E"/>
<path d="M54.53 37.2013C55.193 32.9341 53.9739 29.6119 52.1489 28.49C54.8332 28.9694 58.5741 31.7702 57.4438 35.589C55.8744 40.8913 57.9167 43.0022 58.1602 43.4023C57.5512 43.6658 53.8669 41.4685 54.53 37.2013Z" fill="#1F1410"/>
<path d="M55.7519 36.8481C55.5714 29.4447 49.6576 26.6157 48.0776 25.5623C46.3471 25.1862 42.4799 23.3503 40.8547 19.0166C38.8233 13.5994 23.0231 12.0194 23.4746 10.2137C23.8357 8.76907 24.227 7.35458 24.3774 6.82791C29.5689 -3.55503 56.4291 0.282145 61.3948 2.99074C66.3606 5.69933 70.6492 10.6651 70.4235 27.5938C70.2429 41.1368 73.0568 43.9958 75.3892 44.9739C74.9378 45.6511 71.3263 48.134 66.1349 46.7797C59.8807 45.1481 56.5796 40.6853 55.7519 36.8481Z" fill="url(#paint0_linear)"/>
<path d="M31.1868 64.5329C31.7982 64.1043 32.5637 63.9972 33.3044 64.0908C34.3847 64.2273 36.0207 64.4012 37.243 64.3855C38.2816 64.3722 39.6598 64.2139 40.602 64.0885C41.3026 63.9952 42.0251 64.0845 42.6276 64.4541C43.7143 65.1206 44.9502 66.1912 41.6757 66.1912C37.7857 66.1912 36.4891 66.1912 32.1668 66.1912C29.3049 66.1912 30.233 65.2016 31.1868 64.5329Z" fill="#8A5949"/>
<path d="M27.0858 43.1682C27.0858 44.7888 26.2774 46.1025 25.2801 46.1025C24.2828 46.1025 23.4744 44.7888 23.4744 43.1682C23.4744 41.5476 24.2828 40.6289 25.2801 40.6289C26.2774 40.6289 27.0858 41.5476 27.0858 43.1682Z" fill="#3D2B27"/>
<path d="M51.9147 43.1682C51.9147 44.7888 51.1062 46.1025 50.1089 46.1025C49.1117 46.1025 48.3032 44.7888 48.3032 43.1682C48.3032 41.5476 49.1117 40.6289 50.1089 40.6289C51.1062 40.6289 51.9147 41.5476 51.9147 43.1682Z" fill="#3D2B27"/>
<ellipse cx="48.529" cy="41.5318" rx="1.12858" ry="0.902872" fill="white"/>
<ellipse cx="23.7001" cy="41.5318" rx="1.12858" ry="0.902872" fill="white"/>
<path d="M39.3843 34.3044C42.6607 16.102 32.9546 13.8251 32.9546 13.8251C40.1775 0.955546 65.5674 11.3507 53.153 29.7901C40.7386 48.2295 53.6044 47.6217 50.4444 48.0731C47.2843 48.5245 37.3528 45.5902 39.3843 34.3044Z" fill="url(#paint1_linear)"/>
<defs>
<linearGradient id="paint0_linear" x1="45.1433" y1="25.5623" x2="99.3151" y2="-6.26359" gradientUnits="userSpaceOnUse">
<stop stop-color="#211411"/>
<stop offset="1" stop-color="#3D2B27"/>
</linearGradient>
<linearGradient id="paint1_linear" x1="25.506" y1="38.8796" x2="60.7177" y2="17.4366" gradientUnits="userSpaceOnUse">
<stop stop-color="#0F0A08"/>
<stop offset="1" stop-color="#30201B"/>
</linearGradient>
</defs>
</svg>
