<svg width="286" height="78" viewBox="0 0 286 78" fill="none" xmlns="http://www.w3.org/2000/svg">
<path d="M90.8906 40.7822H86.7598V49H83.0537V27.6719H90.5537C93.0146 27.6719 94.9141 28.2236 96.252 29.3271C97.5898 30.4307 98.2588 32.0273 98.2588 34.1172C98.2588 35.543 97.9121 36.7393 97.2188 37.7061C96.5352 38.6631 95.5781 39.4004 94.3477 39.918L99.1377 48.8096V49H95.168L90.8906 40.7822ZM86.7598 37.8086H90.5684C91.8184 37.8086 92.7949 37.4961 93.498 36.8711C94.2012 36.2363 94.5527 35.3721 94.5527 34.2783C94.5527 33.1357 94.2256 32.252 93.5713 31.627C92.9268 31.002 91.96 30.6797 90.6709 30.6602H86.7598V37.8086ZM100.764 40.9287C100.764 39.376 101.071 37.9795 101.687 36.7393C102.302 35.4893 103.166 34.5322 104.279 33.8682C105.393 33.1943 106.672 32.8574 108.117 32.8574C110.256 32.8574 111.989 33.5459 113.317 34.9229C114.655 36.2998 115.378 38.126 115.485 40.4014L115.5 41.2363C115.5 42.7988 115.197 44.1953 114.592 45.4258C113.996 46.6562 113.137 47.6084 112.014 48.2822C110.9 48.9561 109.611 49.293 108.146 49.293C105.91 49.293 104.118 48.5508 102.771 47.0664C101.433 45.5723 100.764 43.585 100.764 41.1045V40.9287ZM104.323 41.2363C104.323 42.8672 104.66 44.1465 105.334 45.0742C106.008 45.9922 106.945 46.4512 108.146 46.4512C109.348 46.4512 110.28 45.9824 110.944 45.0449C111.618 44.1074 111.955 42.7354 111.955 40.9287C111.955 39.3271 111.608 38.0576 110.915 37.1201C110.231 36.1826 109.299 35.7139 108.117 35.7139C106.955 35.7139 106.032 36.1777 105.349 37.1055C104.665 38.0234 104.323 39.4004 104.323 41.2363ZM117.844 40.958C117.844 38.5166 118.41 36.5586 119.543 35.084C120.676 33.5996 122.194 32.8574 124.099 32.8574C125.778 32.8574 127.136 33.4434 128.171 34.6152V26.5H131.73V49H128.508L128.332 47.3594C127.268 48.6484 125.847 49.293 124.069 49.293C122.214 49.293 120.71 48.5459 119.558 47.0518C118.415 45.5576 117.844 43.5264 117.844 40.958ZM121.403 41.2656C121.403 42.877 121.711 44.1367 122.326 45.0449C122.951 45.9434 123.835 46.3926 124.978 46.3926C126.433 46.3926 127.497 45.7432 128.171 44.4443V37.6768C127.517 36.4072 126.462 35.7725 125.007 35.7725C123.854 35.7725 122.966 36.2314 122.341 37.1494C121.716 38.0576 121.403 39.4297 121.403 41.2656ZM143.742 36.4023C143.273 36.3242 142.79 36.2852 142.292 36.2852C140.661 36.2852 139.562 36.9102 138.996 38.1602V49H135.437V33.1504H138.835L138.923 34.9229C139.782 33.5459 140.974 32.8574 142.497 32.8574C143.005 32.8574 143.425 32.9258 143.757 33.0625L143.742 36.4023ZM149.777 49H146.218V33.1504H149.777V49ZM145.998 29.0342C145.998 28.4873 146.169 28.0332 146.511 27.6719C146.862 27.3105 147.36 27.1299 148.005 27.1299C148.649 27.1299 149.147 27.3105 149.499 27.6719C149.851 28.0332 150.026 28.4873 150.026 29.0342C150.026 29.5713 149.851 30.0205 149.499 30.3818C149.147 30.7334 148.649 30.9092 148.005 30.9092C147.36 30.9092 146.862 30.7334 146.511 30.3818C146.169 30.0205 145.998 29.5713 145.998 29.0342ZM153.044 40.958C153.044 38.4971 153.62 36.5342 154.772 35.0693C155.935 33.5947 157.473 32.8574 159.387 32.8574C161.193 32.8574 162.614 33.4873 163.649 34.7471L163.811 33.1504H167.019V48.5166C167.019 50.5967 166.369 52.2373 165.07 53.4385C163.781 54.6396 162.038 55.2402 159.841 55.2402C158.679 55.2402 157.541 54.9961 156.428 54.5078C155.324 54.0293 154.484 53.3994 153.908 52.6182L155.593 50.4795C156.687 51.7783 158.034 52.4277 159.636 52.4277C160.817 52.4277 161.75 52.1055 162.434 51.4609C163.117 50.8262 163.459 49.8887 163.459 48.6484V47.5791C162.434 48.7217 161.066 49.293 159.357 49.293C157.502 49.293 155.983 48.5557 154.802 47.0811C153.63 45.6064 153.044 43.5654 153.044 40.958ZM156.589 41.2656C156.589 42.8574 156.911 44.1123 157.556 45.0303C158.21 45.9385 159.113 46.3926 160.266 46.3926C161.701 46.3926 162.766 45.7773 163.459 44.5469V37.5742C162.785 36.373 161.73 35.7725 160.295 35.7725C159.123 35.7725 158.21 36.2363 157.556 37.1641C156.911 38.0918 156.589 39.459 156.589 41.2656ZM170.021 40.9287C170.021 39.376 170.329 37.9795 170.944 36.7393C171.56 35.4893 172.424 34.5322 173.537 33.8682C174.65 33.1943 175.93 32.8574 177.375 32.8574C179.514 32.8574 181.247 33.5459 182.575 34.9229C183.913 36.2998 184.636 38.126 184.743 40.4014L184.758 41.2363C184.758 42.7988 184.455 44.1953 183.85 45.4258C183.254 46.6562 182.395 47.6084 181.271 48.2822C180.158 48.9561 178.869 49.293 177.404 49.293C175.168 49.293 173.376 48.5508 172.028 47.0664C170.69 45.5723 170.021 43.585 170.021 41.1045V40.9287ZM173.581 41.2363C173.581 42.8672 173.918 44.1465 174.592 45.0742C175.266 45.9922 176.203 46.4512 177.404 46.4512C178.605 46.4512 179.538 45.9824 180.202 45.0449C180.876 44.1074 181.213 42.7354 181.213 40.9287C181.213 39.3271 180.866 38.0576 180.173 37.1201C179.489 36.1826 178.557 35.7139 177.375 35.7139C176.213 35.7139 175.29 36.1777 174.606 37.1055C173.923 38.0234 173.581 39.4004 173.581 41.2363ZM206.73 43.5068C206.73 42.5693 206.398 41.8467 205.734 41.3389C205.08 40.8311 203.894 40.3184 202.175 39.8008C200.456 39.2832 199.089 38.707 198.073 38.0723C196.13 36.8516 195.158 35.2598 195.158 33.2969C195.158 31.5781 195.856 30.1621 197.253 29.0488C198.659 27.9355 200.48 27.3789 202.717 27.3789C204.201 27.3789 205.524 27.6523 206.687 28.1992C207.849 28.7461 208.762 29.5273 209.426 30.543C210.09 31.5488 210.422 32.667 210.422 33.8975H206.73C206.73 32.7842 206.379 31.915 205.676 31.29C204.982 30.6553 203.986 30.3379 202.688 30.3379C201.477 30.3379 200.534 30.5967 199.86 31.1143C199.196 31.6318 198.864 32.3545 198.864 33.2822C198.864 34.0635 199.226 34.7178 199.948 35.2451C200.671 35.7627 201.862 36.2705 203.522 36.7686C205.183 37.2568 206.516 37.8184 207.521 38.4531C208.527 39.0781 209.265 39.8008 209.733 40.6211C210.202 41.4316 210.437 42.3838 210.437 43.4775C210.437 45.2549 209.753 46.6709 208.386 47.7256C207.028 48.7705 205.183 49.293 202.849 49.293C201.306 49.293 199.885 49.0098 198.586 48.4434C197.297 47.8672 196.291 47.0762 195.568 46.0703C194.855 45.0645 194.499 43.8926 194.499 42.5547H198.205C198.205 43.7656 198.605 44.7031 199.406 45.3672C200.207 46.0312 201.354 46.3633 202.849 46.3633C204.138 46.3633 205.104 46.1045 205.749 45.5869C206.403 45.0596 206.73 44.3662 206.73 43.5068ZM220.324 49.293C218.068 49.293 216.237 48.585 214.831 47.1689C213.435 45.7432 212.736 43.8486 212.736 41.4854V41.0459C212.736 39.4639 213.039 38.0527 213.645 36.8125C214.26 35.5625 215.119 34.5908 216.223 33.8975C217.326 33.2041 218.557 32.8574 219.914 32.8574C222.072 32.8574 223.737 33.5459 224.909 34.9229C226.091 36.2998 226.682 38.248 226.682 40.7676V42.2031H216.325C216.433 43.5117 216.867 44.5469 217.629 45.3086C218.4 46.0703 219.367 46.4512 220.529 46.4512C222.16 46.4512 223.488 45.792 224.514 44.4736L226.433 46.3047C225.798 47.252 224.948 47.9893 223.884 48.5166C222.829 49.0342 221.643 49.293 220.324 49.293ZM219.899 35.7139C218.923 35.7139 218.132 36.0557 217.526 36.7393C216.931 37.4229 216.55 38.375 216.384 39.5957H223.166V39.332C223.088 38.1406 222.771 37.2422 222.214 36.6367C221.657 36.0215 220.886 35.7139 219.899 35.7139ZM228.835 40.958C228.835 38.4971 229.411 36.5342 230.563 35.0693C231.726 33.5947 233.264 32.8574 235.178 32.8574C236.984 32.8574 238.405 33.4873 239.44 34.7471L239.602 33.1504H242.81V48.5166C242.81 50.5967 242.16 52.2373 240.861 53.4385C239.572 54.6396 237.829 55.2402 235.632 55.2402C234.47 55.2402 233.332 54.9961 232.219 54.5078C231.115 54.0293 230.275 53.3994 229.699 52.6182L231.384 50.4795C232.478 51.7783 233.825 52.4277 235.427 52.4277C236.608 52.4277 237.541 52.1055 238.225 51.4609C238.908 50.8262 239.25 49.8887 239.25 48.6484V47.5791C238.225 48.7217 236.857 49.293 235.148 49.293C233.293 49.293 231.774 48.5557 230.593 47.0811C229.421 45.6064 228.835 43.5654 228.835 40.958ZM232.38 41.2656C232.38 42.8574 232.702 44.1123 233.347 45.0303C234.001 45.9385 234.904 46.3926 236.057 46.3926C237.492 46.3926 238.557 45.7773 239.25 44.5469V37.5742C238.576 36.373 237.521 35.7725 236.086 35.7725C234.914 35.7725 234.001 36.2363 233.347 37.1641C232.702 38.0918 232.38 39.459 232.38 41.2656ZM256.081 47.4473C255.036 48.6777 253.552 49.293 251.628 49.293C249.909 49.293 248.605 48.79 247.717 47.7842C246.838 46.7783 246.398 45.3232 246.398 43.4189V33.1504H249.958V43.375C249.958 45.3867 250.793 46.3926 252.463 46.3926C254.191 46.3926 255.358 45.7725 255.964 44.5322V33.1504H259.523V49H256.169L256.081 47.4473ZM270.129 49.293C267.873 49.293 266.042 48.585 264.636 47.1689C263.239 45.7432 262.541 43.8486 262.541 41.4854V41.0459C262.541 39.4639 262.844 38.0527 263.449 36.8125C264.064 35.5625 264.924 34.5908 266.027 33.8975C267.131 33.2041 268.361 32.8574 269.719 32.8574C271.877 32.8574 273.542 33.5459 274.714 34.9229C275.896 36.2998 276.486 38.248 276.486 40.7676V42.2031H266.13C266.237 43.5117 266.672 44.5469 267.434 45.3086C268.205 46.0703 269.172 46.4512 270.334 46.4512C271.965 46.4512 273.293 45.792 274.318 44.4736L276.237 46.3047C275.603 47.252 274.753 47.9893 273.688 48.5166C272.634 49.0342 271.447 49.293 270.129 49.293ZM269.704 35.7139C268.728 35.7139 267.937 36.0557 267.331 36.7393C266.735 37.4229 266.354 38.375 266.188 39.5957H272.971V39.332C272.893 38.1406 272.575 37.2422 272.019 36.6367C271.462 36.0215 270.69 35.7139 269.704 35.7139ZM283.049 49H279.489V26.5H283.049V49Z" fill="#E5E9F0"/>
<path d="M156.605 70H150.371V69.3711L153.782 65.502C154.347 64.8503 154.739 64.3125 154.958 63.8887C155.177 63.4648 155.286 63.0524 155.286 62.6514C155.286 62.0225 155.102 61.5257 154.732 61.1611C154.363 60.792 153.855 60.6074 153.208 60.6074C152.538 60.6074 151.996 60.8216 151.581 61.25C151.171 61.6784 150.966 62.2344 150.966 62.918H150.152C150.152 62.3574 150.278 61.847 150.528 61.3867C150.784 60.9264 151.144 60.5664 151.608 60.3066C152.078 60.0423 152.611 59.9102 153.208 59.9102C154.119 59.9102 154.83 60.1494 155.341 60.6279C155.856 61.1064 156.113 61.7581 156.113 62.583C156.113 63.0479 155.967 63.556 155.676 64.1074C155.389 64.6589 154.881 65.347 154.151 66.1719L151.376 69.3096H156.605V70ZM164.139 65.8506C164.139 67.2542 163.881 68.3206 163.366 69.0498C162.851 69.7744 162.092 70.1367 161.09 70.1367C160.105 70.1367 159.351 69.7812 158.827 69.0703C158.303 68.3548 158.034 67.3158 158.021 65.9531V64.1689C158.021 62.7699 158.28 61.7103 158.8 60.9902C159.319 60.2702 160.078 59.9102 161.076 59.9102C162.061 59.9102 162.812 60.2588 163.332 60.9561C163.852 61.6488 164.12 62.6719 164.139 64.0254V65.8506ZM163.318 64.0664C163.318 62.9271 163.132 62.0658 162.758 61.4824C162.389 60.8991 161.828 60.6074 161.076 60.6074C160.338 60.6074 159.782 60.8923 159.408 61.4619C159.035 62.0316 158.843 62.8724 158.834 63.9844V65.9395C158.834 67.0742 159.025 67.9424 159.408 68.5439C159.796 69.1455 160.356 69.4463 161.09 69.4463C161.819 69.4463 162.37 69.1523 162.744 68.5645C163.122 67.9766 163.314 67.1152 163.318 65.9805V64.0664ZM172.137 70H165.902V69.3711L169.313 65.502C169.879 64.8503 170.271 64.3125 170.489 63.8887C170.708 63.4648 170.817 63.0524 170.817 62.6514C170.817 62.0225 170.633 61.5257 170.264 61.1611C169.895 60.792 169.386 60.6074 168.739 60.6074C168.069 60.6074 167.527 60.8216 167.112 61.25C166.702 61.6784 166.497 62.2344 166.497 62.918H165.684C165.684 62.3574 165.809 61.847 166.06 61.3867C166.315 60.9264 166.675 60.5664 167.14 60.3066C167.609 60.0423 168.142 59.9102 168.739 59.9102C169.651 59.9102 170.362 60.1494 170.872 60.6279C171.387 61.1064 171.645 61.7581 171.645 62.583C171.645 63.0479 171.499 63.556 171.207 64.1074C170.92 64.6589 170.412 65.347 169.683 66.1719L166.907 69.3096H172.137V70ZM179.67 65.8506C179.67 67.2542 179.412 68.3206 178.897 69.0498C178.382 69.7744 177.624 70.1367 176.621 70.1367C175.637 70.1367 174.882 69.7812 174.358 69.0703C173.834 68.3548 173.565 67.3158 173.552 65.9531V64.1689C173.552 62.7699 173.812 61.7103 174.331 60.9902C174.851 60.2702 175.609 59.9102 176.607 59.9102C177.592 59.9102 178.344 60.2588 178.863 60.9561C179.383 61.6488 179.652 62.6719 179.67 64.0254V65.8506ZM178.85 64.0664C178.85 62.9271 178.663 62.0658 178.289 61.4824C177.92 60.8991 177.359 60.6074 176.607 60.6074C175.869 60.6074 175.313 60.8923 174.939 61.4619C174.566 62.0316 174.374 62.8724 174.365 63.9844V65.9395C174.365 67.0742 174.557 67.9424 174.939 68.5439C175.327 69.1455 175.887 69.4463 176.621 69.4463C177.35 69.4463 177.902 69.1523 178.275 68.5645C178.654 67.9766 178.845 67.1152 178.85 65.9805V64.0664ZM184.106 65.9531H180.832V65.2627H184.106V65.9531ZM191.674 70H185.439V69.3711L188.851 65.502C189.416 64.8503 189.808 64.3125 190.026 63.8887C190.245 63.4648 190.354 63.0524 190.354 62.6514C190.354 62.0225 190.17 61.5257 189.801 61.1611C189.432 60.792 188.924 60.6074 188.276 60.6074C187.606 60.6074 187.064 60.8216 186.649 61.25C186.239 61.6784 186.034 62.2344 186.034 62.918H185.221C185.221 62.3574 185.346 61.847 185.597 61.3867C185.852 60.9264 186.212 60.5664 186.677 60.3066C187.146 60.0423 187.679 59.9102 188.276 59.9102C189.188 59.9102 189.899 60.1494 190.409 60.6279C190.924 61.1064 191.182 61.7581 191.182 62.583C191.182 63.0479 191.036 63.556 190.744 64.1074C190.457 64.6589 189.949 65.347 189.22 66.1719L186.444 69.3096H191.674V70ZM199.207 65.8506C199.207 67.2542 198.95 68.3206 198.435 69.0498C197.92 69.7744 197.161 70.1367 196.158 70.1367C195.174 70.1367 194.42 69.7812 193.896 69.0703C193.371 68.3548 193.103 67.3158 193.089 65.9531V64.1689C193.089 62.7699 193.349 61.7103 193.868 60.9902C194.388 60.2702 195.146 59.9102 196.145 59.9102C197.129 59.9102 197.881 60.2588 198.4 60.9561C198.92 61.6488 199.189 62.6719 199.207 64.0254V65.8506ZM198.387 64.0664C198.387 62.9271 198.2 62.0658 197.826 61.4824C197.457 60.8991 196.896 60.6074 196.145 60.6074C195.406 60.6074 194.85 60.8923 194.477 61.4619C194.103 62.0316 193.911 62.8724 193.902 63.9844V65.9395C193.902 67.0742 194.094 67.9424 194.477 68.5439C194.864 69.1455 195.424 69.4463 196.158 69.4463C196.887 69.4463 197.439 69.1523 197.812 68.5645C198.191 67.9766 198.382 67.1152 198.387 65.9805V64.0664ZM207.205 70H200.971V69.3711L204.382 65.502C204.947 64.8503 205.339 64.3125 205.558 63.8887C205.776 63.4648 205.886 63.0524 205.886 62.6514C205.886 62.0225 205.701 61.5257 205.332 61.1611C204.963 60.792 204.455 60.6074 203.808 60.6074C203.138 60.6074 202.595 60.8216 202.181 61.25C201.771 61.6784 201.565 62.2344 201.565 62.918H200.752C200.752 62.3574 200.877 61.847 201.128 61.3867C201.383 60.9264 201.743 60.5664 202.208 60.3066C202.677 60.0423 203.211 59.9102 203.808 59.9102C204.719 59.9102 205.43 60.1494 205.94 60.6279C206.455 61.1064 206.713 61.7581 206.713 62.583C206.713 63.0479 206.567 63.556 206.275 64.1074C205.988 64.6589 205.48 65.347 204.751 66.1719L201.976 69.3096H207.205V70ZM214.738 65.8506C214.738 67.2542 214.481 68.3206 213.966 69.0498C213.451 69.7744 212.692 70.1367 211.689 70.1367C210.705 70.1367 209.951 69.7812 209.427 69.0703C208.903 68.3548 208.634 67.3158 208.62 65.9531V64.1689C208.62 62.7699 208.88 61.7103 209.399 60.9902C209.919 60.2702 210.678 59.9102 211.676 59.9102C212.66 59.9102 213.412 60.2588 213.932 60.9561C214.451 61.6488 214.72 62.6719 214.738 64.0254V65.8506ZM213.918 64.0664C213.918 62.9271 213.731 62.0658 213.357 61.4824C212.988 60.8991 212.428 60.6074 211.676 60.6074C210.938 60.6074 210.382 60.8923 210.008 61.4619C209.634 62.0316 209.443 62.8724 209.434 63.9844V65.9395C209.434 67.0742 209.625 67.9424 210.008 68.5439C210.395 69.1455 210.956 69.4463 211.689 69.4463C212.419 69.4463 212.97 69.1523 213.344 68.5645C213.722 67.9766 213.913 67.1152 213.918 65.9805V64.0664Z" fill="#E5E9F0"/>
<path d="M15.5744 48.9864C15.5744 53.3906 16.2099 56.5612 11.7372 56.5612C6.77148 57.0126 0 51.0922 0 44.5464C0 40.1423 2.76331 36.6934 7.47599 38.0501C12.1887 39.4068 15.5744 44.5823 15.5744 48.9864Z" fill="#B9906A"/>
<path d="M11.8222 54.8371H11.7995L11.7769 54.8392C9.95162 55.0051 7.69643 53.9905 5.87012 52.2208C4.05373 50.4607 2.7572 48.0431 2.7572 45.546C2.7572 43.8454 3.29148 42.3908 4.21158 41.4971C5.10971 40.6248 6.44042 40.2226 8.21126 40.7324C10.0011 41.2477 11.5636 42.4973 12.6824 44.067C13.8023 45.6382 14.4492 47.4904 14.4492 49.1642C14.4492 49.6015 14.4562 50.0022 14.4629 50.3823C14.4706 50.82 14.4778 51.2303 14.4732 51.6373C14.4649 52.3752 14.4156 52.9765 14.2733 53.4538C14.1355 53.9165 13.918 54.2382 13.5781 54.4567C13.2251 54.6837 12.6815 54.8371 11.8222 54.8371Z" fill="#A27C59" stroke="#A17C59"/>
<path d="M58.9113 49.0614C58.9113 53.4949 58.2759 56.6867 62.7486 56.6867C67.7145 57.1411 74.4862 51.1812 74.4862 44.5918C74.4862 40.1583 71.7228 36.6864 67.01 38.0521C62.2972 39.4178 58.9113 44.6279 58.9113 49.0614Z" fill="#B9906A"/>
<path d="M38.5522 42.315C38.5522 52.2737 41.958 61.9884 38.5522 64.846C34.2826 68.2377 47.06 76.5344 37.6946 77.9285C30.0726 78.9848 18.7942 67.9955 16.6601 65.8151C14.526 63.6346 8.80299 50.3911 9.02871 39.8923C9.02871 20.7588 21.7384 5.24792 37.4167 5.24792C53.0949 5.24792 38.5522 23.1814 38.5522 42.315Z" fill="#B9906A"/>
<path d="M62.7413 54.8498H62.7633L62.7853 54.8517C64.6166 55.0135 66.8738 54.0249 68.6984 52.3074C70.5145 50.5979 71.8059 48.2543 71.8059 45.8389C71.8059 44.1939 71.2742 42.7868 70.3568 41.9212C69.4591 41.0742 68.1245 40.6812 66.3484 41.1779C64.5559 41.6792 62.9941 42.8939 61.8771 44.4161C60.7586 45.9405 60.1144 47.7349 60.1144 49.3536C60.1144 49.7798 60.1074 50.1691 60.1007 50.5381C60.093 50.9625 60.0858 51.36 60.0904 51.7555C60.0987 52.4717 60.148 53.0525 60.2891 53.5125C60.4253 53.9566 60.6402 54.2669 60.98 54.4791C61.3342 54.7003 61.88 54.8498 62.7413 54.8498Z" fill="#A27C59" stroke="#A17C59"/>
<path d="M37.5211 54.9055C37.5211 64.8642 32.9798 61.9884 36.3856 64.846C40.6552 68.2378 27.4851 76.5742 37.2431 77.9285C44.8652 78.9863 56.1436 67.9955 58.2777 65.8151C60.4118 63.6347 65.9091 51.5197 65.9091 39.8923C65.9091 20.7588 53.1994 5.24792 37.5211 5.24792C21.8429 5.24792 37.5211 35.7719 37.5211 54.9055Z" fill="#B9906A"/>
<path d="M16.5399 30.7366C14.0132 30.8186 12.0768 32.3869 11.4244 33.1609C22.2531 31.379 28.6064 33.7327 29.9526 33.4632C31.0297 33.2476 30.4083 31.2654 30.3014 30.2902L16.5399 30.7366Z" fill="#231713"/>
<path d="M57.7585 30.2449C60.2849 30.163 62.3187 31.6026 63.0198 32.3326C52.0996 31.2562 45.9128 34.0167 44.5521 33.835C43.4635 33.6896 43.955 31.6713 43.9985 30.6913L57.7585 30.2449Z" fill="#231713"/>
<path d="M19.4115 57.8398C14.1287 54.6781 11.7372 55.3569 11.7372 55.3569C11.7372 55.3569 11.7372 56.4165 13.0915 59.7742C14.4457 63.132 16.2514 65.3705 16.2514 65.3705C16.2514 65.3705 17.6057 67.2129 22.5714 71.1906C27.5371 75.1683 28.4399 75.2199 28.4399 75.2199C28.4399 75.2199 28.166 63.0791 19.4115 57.8398Z" fill="#A78261"/>
<path d="M55.526 57.8932C60.8089 54.7413 63.2004 55.418 63.2004 55.418C63.2004 55.418 63.2004 56.4743 61.8461 59.8217C60.4918 63.1692 58.6861 65.4008 58.6861 65.4008C58.6861 65.4008 57.3318 67.2376 52.366 71.203C47.4003 75.1685 46.4974 75.22 46.4974 75.22C46.4974 75.22 46.7713 63.1164 55.526 57.8932Z" fill="#A78261"/>
<path d="M33.0945 45.9527C34.2353 42.1529 39.6159 42.1529 40.7567 45.9527L43.0356 53.5437C43.584 55.3703 42.7687 57.348 40.9797 58.0091C39.6815 58.4888 38.1763 58.9149 36.9256 58.9149C35.675 58.9149 34.1697 58.4888 32.8715 58.0091C31.0826 57.348 30.2672 55.3703 30.8156 53.5437L33.0945 45.9527Z" fill="#B97D6A"/>
<path d="M34.0377 49.2603C34.8585 46.344 38.9925 46.344 39.8133 49.2603L40.7859 52.7158C41.1897 54.1506 40.481 55.6861 39.0435 56.0803C38.3332 56.2751 37.5746 56.4255 36.9255 56.4255C36.2765 56.4255 35.5178 56.2751 34.8076 56.0803C33.37 55.6861 32.6613 54.1506 33.0652 52.7158L34.0377 49.2603Z" fill="#C98E7B"/>
<path d="M7.68013 35.9453L35.2117 36.6225C35.2117 36.6225 35.2117 49.2146 32.2618 52.6301C29.312 56.0456 12.8423 56.1045 10.1383 53.6312C7.43431 51.1579 7.68013 35.9453 7.68013 35.9453Z" fill="#2E2E2E"/>
<path d="M66.3547 35.9453L38.8231 36.6225C38.8231 36.6225 38.8231 49.2146 41.7729 52.6301C44.7227 56.0456 61.1925 56.1045 63.8965 53.6312C66.6005 51.1579 66.3547 35.9453 66.3547 35.9453Z" fill="#2E2E2E"/>
<path d="M65.0009 38.6539H40.2431C40.2431 38.6539 40.1774 49.146 42.837 51.8466C45.4967 54.5472 60.3464 54.5937 62.7845 52.6381C65.2225 50.6825 65.0009 38.6539 65.0009 38.6539Z" fill="#B9906A"/>
<path d="M9.03393 38.6539H21.4118H33.7896C33.7896 38.6539 33.8553 49.146 31.1959 51.8466C28.5364 54.5472 13.6879 54.5937 11.2501 52.6381C8.81231 50.6825 9.03393 38.6539 9.03393 38.6539Z" fill="#B9906A"/>
<path d="M7.22288 35.9453C7.4469 35.4939 37.0174 36.6225 37.0174 36.6225L66.8119 35.9453L66.5878 37.7511L66.1398 38.6539H7.89494L7.4469 37.7511C7.4469 37.7511 6.99886 36.3968 7.22288 35.9453Z" fill="#2E2E2E"/>
<path d="M33.406 38.2025H40.6289L40.113 45.8769C40.113 45.8769 38.401 42.0397 37.0174 42.0397C35.6338 42.0397 33.9219 45.8769 33.9219 45.8769L33.406 38.2025Z" fill="#2E2E2E"/>
<path d="M42.8861 38.6539C41.0804 38.8345 40.4784 41.4378 40.4032 42.7168H40.1775V38.6539H42.8861Z" fill="#2E2E2E"/>
<path d="M11.2858 38.6539C9.78107 38.8144 9.09139 41.1285 9.02869 42.2654V38.6539H11.2858Z" fill="#2E2E2E"/>
<path d="M31.1488 38.6539C32.9546 38.8345 33.5565 41.4378 33.6317 42.7168H33.8574V38.6539H31.1488Z" fill="#2E2E2E"/>
<path d="M9.48003 33.6881C11.2789 23.622 17.3801 13.5994 27.3116 12.0194C28.4908 11.3228 29.9371 6.18835 25.3383 5.77042C20.7395 5.35249 16.2734 6.81524 12.5148 9.1661C8.75622 11.517 9.48003 33.6881 9.48003 33.6881Z" fill="#211411"/>
<path d="M37.7899 32.5076C40.3145 27.5165 40.7054 22.8306 39.5551 20.5966C41.7746 22.4294 43.9068 27.6309 41.1603 31.8498C37.3469 37.7078 38.2487 41.2698 38.2894 41.8787C37.618 41.9249 35.2653 37.4986 37.7899 32.5076Z" fill="#19110E"/>
<path d="M54.53 37.2012C55.193 32.934 53.9739 29.6117 52.1489 28.4899C54.8332 28.9693 58.5741 31.7701 57.4438 35.5888C55.8744 40.8911 57.9167 43.0021 58.1602 43.4022C57.5512 43.6657 53.8669 41.4683 54.53 37.2012Z" fill="#1F1410"/>
<path d="M55.7518 36.8481C55.5713 29.4447 49.6575 26.6157 48.0775 25.5623C46.347 25.1862 42.4797 23.3503 40.8546 19.0166C38.8231 13.5994 23.023 12.0194 23.4745 10.2137C23.8356 8.76907 24.2268 7.35458 24.3773 6.82791C29.5688 -3.55503 56.429 0.282145 61.3947 2.99074C66.3605 5.69933 70.6491 10.6651 70.4234 27.5938C70.2428 41.1368 73.0567 43.9958 75.3891 44.9739C74.9377 45.6511 71.3262 48.134 66.1348 46.7797C59.8805 45.1481 56.5794 40.6853 55.7518 36.8481Z" fill="url(#paint0_linear)"/>
<path d="M31.1869 64.5329C31.7983 64.1043 32.5638 63.9972 33.3046 64.0908C34.3848 64.2273 36.0208 64.4012 37.2432 64.3855C38.2817 64.3722 39.6599 64.2139 40.6021 64.0885C41.3028 63.9952 42.0252 64.0845 42.6277 64.4541C43.7144 65.1206 44.9503 66.1912 41.6759 66.1912C37.7858 66.1912 36.4892 66.1912 32.167 66.1912C29.305 66.1912 30.2331 65.2016 31.1869 64.5329Z" fill="#8A5949"/>
<path d="M27.0859 43.1682C27.0859 44.7888 26.2775 46.1025 25.2802 46.1025C24.2829 46.1025 23.4745 44.7888 23.4745 43.1682C23.4745 41.5476 24.2829 40.6289 25.2802 40.6289C26.2775 40.6289 27.0859 41.5476 27.0859 43.1682Z" fill="#3D2B27"/>
<path d="M51.9147 43.1682C51.9147 44.7888 51.1062 46.1025 50.1089 46.1025C49.1117 46.1025 48.3032 44.7888 48.3032 43.1682C48.3032 41.5476 49.1117 40.6289 50.1089 40.6289C51.1062 40.6289 51.9147 41.5476 51.9147 43.1682Z" fill="#3D2B27"/>
<ellipse cx="48.529" cy="41.5318" rx="1.12858" ry="0.902872" fill="white"/>
<ellipse cx="23.7002" cy="41.5318" rx="1.12858" ry="0.902872" fill="white"/>
<path d="M39.3842 34.3044C42.6606 16.102 32.9545 13.8251 32.9545 13.8251C40.1774 0.955546 65.5672 11.3507 53.1528 29.7901C40.7384 48.2295 53.6043 47.6217 50.4442 48.0731C47.2842 48.5245 37.3527 45.5902 39.3842 34.3044Z" fill="url(#paint1_linear)"/>
<defs>
<linearGradient id="paint0_linear" x1="45.1432" y1="25.5623" x2="99.315" y2="-6.26359" gradientUnits="userSpaceOnUse">
<stop stop-color="#211411"/>
<stop offset="1" stop-color="#3D2B27"/>
</linearGradient>
<linearGradient id="paint1_linear" x1="25.5059" y1="38.8796" x2="60.7176" y2="17.4366" gradientUnits="userSpaceOnUse">
<stop stop-color="#0F0A08"/>
<stop offset="1" stop-color="#30201B"/>
</linearGradient>
</defs>
</svg>
