<svg width="258" height="78" viewBox="0 0 258 78" fill="none" xmlns="http://www.w3.org/2000/svg">
<path d="M83.8056 27.7H89.6556C92.2156 27.7 94.1256 28.19 95.3856 29.17C96.6456 30.13 97.2756 31.79 97.2756 34.15C97.2756 35.69 97.0456 36.95 96.5856 37.93C96.1456 38.89 95.3756 39.59 94.2756 40.03L97.6656 52H93.2256L90.3156 40.87H88.2156V52H83.8056V27.7ZM89.6256 38.11C90.8856 38.11 91.7756 37.82 92.2956 37.24C92.8356 36.66 93.1056 35.71 93.1056 34.39C93.1056 33.11 92.8656 32.18 92.3856 31.6C91.9256 31.02 91.0856 30.73 89.8656 30.73H88.2156V38.11H89.6256ZM105.602 52.27C103.742 52.27 102.352 51.76 101.432 50.74C100.512 49.7 100.052 48.2 100.052 46.24V40.42C100.052 38.46 100.512 36.97 101.432 35.95C102.352 34.91 103.742 34.39 105.602 34.39C107.462 34.39 108.852 34.91 109.772 35.95C110.712 36.97 111.182 38.46 111.182 40.42V46.24C111.182 48.2 110.712 49.7 109.772 50.74C108.852 51.76 107.462 52.27 105.602 52.27ZM105.632 49.45C106.252 49.45 106.662 49.21 106.862 48.73C107.062 48.23 107.162 47.5 107.162 46.54V40.15C107.162 39.19 107.062 38.46 106.862 37.96C106.662 37.46 106.252 37.21 105.632 37.21C104.992 37.21 104.572 37.46 104.372 37.96C104.172 38.46 104.072 39.19 104.072 40.15V46.54C104.072 47.5 104.172 48.23 104.372 48.73C104.572 49.21 104.992 49.45 105.632 49.45ZM117.904 52.27C116.504 52.27 115.454 51.78 114.754 50.8C114.074 49.8 113.734 48.23 113.734 46.09V40.78C113.734 38.82 114.054 37.27 114.694 36.13C115.354 34.97 116.414 34.39 117.874 34.39C118.994 34.39 120.034 34.85 120.994 35.77V27.7H125.104V52H120.994V50.77C120.034 51.77 119.004 52.27 117.904 52.27ZM119.374 49.45C119.894 49.45 120.434 49.26 120.994 48.88V37.75C120.474 37.37 119.934 37.18 119.374 37.18C118.334 37.18 117.814 38.09 117.814 39.91V46.39C117.814 47.37 117.924 48.13 118.144 48.67C118.364 49.19 118.774 49.45 119.374 49.45ZM128.303 34.66H132.383V37.33C132.963 36.31 133.553 35.58 134.153 35.14C134.753 34.68 135.423 34.45 136.163 34.45C136.423 34.45 136.633 34.47 136.793 34.51V38.74C136.153 38.5 135.593 38.38 135.113 38.38C134.033 38.38 133.123 38.94 132.383 40.06V52H128.303V34.66ZM138.909 28.51H142.989V31.9H138.909V28.51ZM138.909 34.66H142.989V52H138.909V34.66ZM151.331 57.7C149.491 57.7 148.031 57.41 146.951 56.83C145.871 56.27 145.331 55.42 145.331 54.28C145.331 53.52 145.571 52.85 146.051 52.27C146.531 51.71 147.161 51.25 147.941 50.89C147.281 50.69 146.771 50.4 146.411 50.02C146.071 49.62 145.901 49.14 145.901 48.58C145.901 47.94 146.051 47.38 146.351 46.9C146.671 46.42 147.161 45.89 147.821 45.31C147.201 44.81 146.731 44.18 146.411 43.42C146.111 42.64 145.961 41.66 145.961 40.48C145.961 38.5 146.431 36.99 147.371 35.95C148.331 34.91 149.721 34.39 151.541 34.39C153.301 34.39 154.581 34.93 155.381 36.01C155.561 35.73 155.851 35.42 156.251 35.08C156.651 34.74 157.101 34.45 157.601 34.21L158.171 33.97L159.131 36.16C158.771 36.26 158.281 36.44 157.661 36.7C157.041 36.94 156.591 37.15 156.311 37.33C156.491 37.73 156.641 38.23 156.761 38.83C156.881 39.43 156.941 40 156.941 40.54C156.941 42.44 156.501 43.92 155.621 44.98C154.741 46.02 153.381 46.54 151.541 46.54C150.741 46.54 149.961 46.42 149.201 46.18C148.861 46.68 148.691 47.08 148.691 47.38C148.691 47.62 148.811 47.81 149.051 47.95C149.291 48.07 149.691 48.16 150.251 48.22L153.881 48.58C156.681 48.88 158.081 50.34 158.081 52.96C158.081 54.54 157.531 55.72 156.431 56.5C155.351 57.3 153.651 57.7 151.331 57.7ZM151.541 43.96C152.221 43.96 152.671 43.7 152.891 43.18C153.111 42.66 153.221 41.76 153.221 40.48C153.221 39.22 153.111 38.32 152.891 37.78C152.671 37.24 152.221 36.97 151.541 36.97C150.861 36.97 150.401 37.24 150.161 37.78C149.921 38.3 149.801 39.2 149.801 40.48C149.801 41.68 149.921 42.56 150.161 43.12C150.401 43.68 150.861 43.96 151.541 43.96ZM151.781 54.64C152.921 54.64 153.761 54.52 154.301 54.28C154.861 54.06 155.141 53.67 155.141 53.11C155.141 52.63 154.961 52.27 154.601 52.03C154.261 51.81 153.611 51.65 152.651 51.55L149.681 51.28C149.301 51.6 149.011 51.9 148.811 52.18C148.611 52.48 148.511 52.81 148.511 53.17C148.511 53.67 148.761 54.04 149.261 54.28C149.761 54.52 150.601 54.64 151.781 54.64ZM165.485 52.27C163.625 52.27 162.235 51.76 161.315 50.74C160.395 49.7 159.935 48.2 159.935 46.24V40.42C159.935 38.46 160.395 36.97 161.315 35.95C162.235 34.91 163.625 34.39 165.485 34.39C167.345 34.39 168.735 34.91 169.655 35.95C170.595 36.97 171.065 38.46 171.065 40.42V46.24C171.065 48.2 170.595 49.7 169.655 50.74C168.735 51.76 167.345 52.27 165.485 52.27ZM165.515 49.45C166.135 49.45 166.545 49.21 166.745 48.73C166.945 48.23 167.045 47.5 167.045 46.54V40.15C167.045 39.19 166.945 38.46 166.745 37.96C166.545 37.46 166.135 37.21 165.515 37.21C164.875 37.21 164.455 37.46 164.255 37.96C164.055 38.46 163.955 39.19 163.955 40.15V46.54C163.955 47.5 164.055 48.23 164.255 48.73C164.455 49.21 164.875 49.45 165.515 49.45ZM187.572 52.33C185.372 52.33 183.722 51.71 182.622 50.47C181.542 49.23 180.952 47.38 180.852 44.92L184.662 44.17C184.722 45.71 184.962 46.89 185.382 47.71C185.822 48.51 186.502 48.91 187.422 48.91C188.102 48.91 188.602 48.71 188.922 48.31C189.262 47.89 189.432 47.33 189.432 46.63C189.432 45.67 189.212 44.86 188.772 44.2C188.352 43.52 187.682 42.78 186.762 41.98L183.702 39.31C182.762 38.51 182.052 37.65 181.572 36.73C181.112 35.81 180.882 34.71 180.882 33.43C180.882 31.53 181.432 30.06 182.532 29.02C183.652 27.96 185.192 27.43 187.152 27.43C189.252 27.43 190.752 28.03 191.652 29.23C192.572 30.41 193.102 32.01 193.242 34.03L189.432 34.69C189.372 33.37 189.182 32.38 188.862 31.72C188.562 31.04 187.962 30.7 187.062 30.7C186.422 30.7 185.922 30.92 185.562 31.36C185.202 31.78 185.022 32.32 185.022 32.98C185.022 33.76 185.172 34.42 185.472 34.96C185.792 35.48 186.302 36.04 187.002 36.64L190.032 39.31C191.172 40.29 192.062 41.34 192.702 42.46C193.342 43.58 193.662 44.88 193.662 46.36C193.662 47.52 193.402 48.55 192.882 49.45C192.382 50.35 191.672 51.06 190.752 51.58C189.832 52.08 188.772 52.33 187.572 52.33ZM201.256 52.27C199.336 52.27 197.926 51.74 197.026 50.68C196.126 49.6 195.676 48.01 195.676 45.91V40.75C195.676 38.63 196.126 37.04 197.026 35.98C197.946 34.92 199.356 34.39 201.256 34.39C203.216 34.39 204.596 34.94 205.396 36.04C206.216 37.14 206.626 38.8 206.626 41.02V43.51H199.726V46.93C199.726 47.77 199.846 48.38 200.086 48.76C200.346 49.14 200.746 49.33 201.286 49.33C201.806 49.33 202.176 49.15 202.396 48.79C202.636 48.41 202.756 47.84 202.756 47.08V45.61H206.596V46.81C206.596 48.59 206.146 49.95 205.246 50.89C204.346 51.81 203.016 52.27 201.256 52.27ZM202.756 41.5V39.85C202.756 38.95 202.646 38.31 202.426 37.93C202.206 37.53 201.816 37.33 201.256 37.33C200.676 37.33 200.276 37.54 200.056 37.96C199.836 38.38 199.726 39.16 199.726 40.3V41.5H202.756ZM214.495 57.7C212.655 57.7 211.195 57.41 210.115 56.83C209.035 56.27 208.495 55.42 208.495 54.28C208.495 53.52 208.735 52.85 209.215 52.27C209.695 51.71 210.325 51.25 211.105 50.89C210.445 50.69 209.935 50.4 209.575 50.02C209.235 49.62 209.065 49.14 209.065 48.58C209.065 47.94 209.215 47.38 209.515 46.9C209.835 46.42 210.325 45.89 210.985 45.31C210.365 44.81 209.895 44.18 209.575 43.42C209.275 42.64 209.125 41.66 209.125 40.48C209.125 38.5 209.595 36.99 210.535 35.95C211.495 34.91 212.885 34.39 214.705 34.39C216.465 34.39 217.745 34.93 218.545 36.01C218.725 35.73 219.015 35.42 219.415 35.08C219.815 34.74 220.265 34.45 220.765 34.21L221.335 33.97L222.295 36.16C221.935 36.26 221.445 36.44 220.825 36.7C220.205 36.94 219.755 37.15 219.475 37.33C219.655 37.73 219.805 38.23 219.925 38.83C220.045 39.43 220.105 40 220.105 40.54C220.105 42.44 219.665 43.92 218.785 44.98C217.905 46.02 216.545 46.54 214.705 46.54C213.905 46.54 213.125 46.42 212.365 46.18C212.025 46.68 211.855 47.08 211.855 47.38C211.855 47.62 211.975 47.81 212.215 47.95C212.455 48.07 212.855 48.16 213.415 48.22L217.045 48.58C219.845 48.88 221.245 50.34 221.245 52.96C221.245 54.54 220.695 55.72 219.595 56.5C218.515 57.3 216.815 57.7 214.495 57.7ZM214.705 43.96C215.385 43.96 215.835 43.7 216.055 43.18C216.275 42.66 216.385 41.76 216.385 40.48C216.385 39.22 216.275 38.32 216.055 37.78C215.835 37.24 215.385 36.97 214.705 36.97C214.025 36.97 213.565 37.24 213.325 37.78C213.085 38.3 212.965 39.2 212.965 40.48C212.965 41.68 213.085 42.56 213.325 43.12C213.565 43.68 214.025 43.96 214.705 43.96ZM214.945 54.64C216.085 54.64 216.925 54.52 217.465 54.28C218.025 54.06 218.305 53.67 218.305 53.11C218.305 52.63 218.125 52.27 217.765 52.03C217.425 51.81 216.775 51.65 215.815 51.55L212.845 51.28C212.465 51.6 212.175 51.9 211.975 52.18C211.775 52.48 211.675 52.81 211.675 53.17C211.675 53.67 211.925 54.04 212.425 54.28C212.925 54.52 213.765 54.64 214.945 54.64ZM226.247 52.27C225.267 52.27 224.537 51.91 224.057 51.19C223.577 50.47 223.337 49.56 223.337 48.46V34.66H227.387V47.71C227.387 48.25 227.477 48.66 227.657 48.94C227.837 49.22 228.147 49.36 228.587 49.36C229.047 49.36 229.657 49.09 230.417 48.55V34.66H234.497V52H230.417V50.35C229.077 51.63 227.687 52.27 226.247 52.27ZM242.887 52.27C240.967 52.27 239.557 51.74 238.657 50.68C237.757 49.6 237.307 48.01 237.307 45.91V40.75C237.307 38.63 237.757 37.04 238.657 35.98C239.577 34.92 240.987 34.39 242.887 34.39C244.847 34.39 246.227 34.94 247.027 36.04C247.847 37.14 248.257 38.8 248.257 41.02V43.51H241.357V46.93C241.357 47.77 241.477 48.38 241.717 48.76C241.977 49.14 242.377 49.33 242.917 49.33C243.437 49.33 243.807 49.15 244.027 48.79C244.267 48.41 244.387 47.84 244.387 47.08V45.61H248.227V46.81C248.227 48.59 247.777 49.95 246.877 50.89C245.977 51.81 244.647 52.27 242.887 52.27ZM244.387 41.5V39.85C244.387 38.95 244.277 38.31 244.057 37.93C243.837 37.53 243.447 37.33 242.887 37.33C242.307 37.33 241.907 37.54 241.687 37.96C241.467 38.38 241.357 39.16 241.357 40.3V41.5H244.387ZM251.296 27.7H255.346V52H251.296V27.7Z" fill="#DBDCE4"/>
<path d="M143.605 70H137.371V69.3711L140.782 65.502C141.347 64.8503 141.739 64.3125 141.958 63.8887C142.177 63.4648 142.286 63.0524 142.286 62.6514C142.286 62.0225 142.102 61.5257 141.732 61.1611C141.363 60.792 140.855 60.6074 140.208 60.6074C139.538 60.6074 138.996 60.8216 138.581 61.25C138.171 61.6784 137.966 62.2344 137.966 62.918H137.152C137.152 62.3574 137.278 61.847 137.528 61.3867C137.784 60.9264 138.144 60.5664 138.608 60.3066C139.078 60.0423 139.611 59.9102 140.208 59.9102C141.119 59.9102 141.83 60.1494 142.341 60.6279C142.856 61.1064 143.113 61.7581 143.113 62.583C143.113 63.0479 142.967 63.556 142.676 64.1074C142.389 64.6589 141.881 65.347 141.151 66.1719L138.376 69.3096H143.605V70ZM151.139 65.8506C151.139 67.2542 150.881 68.3206 150.366 69.0498C149.851 69.7744 149.092 70.1367 148.09 70.1367C147.105 70.1367 146.351 69.7812 145.827 69.0703C145.303 68.3548 145.034 67.3158 145.021 65.9531V64.1689C145.021 62.7699 145.28 61.7103 145.8 60.9902C146.319 60.2702 147.078 59.9102 148.076 59.9102C149.061 59.9102 149.812 60.2588 150.332 60.9561C150.852 61.6488 151.12 62.6719 151.139 64.0254V65.8506ZM150.318 64.0664C150.318 62.9271 150.132 62.0658 149.758 61.4824C149.389 60.8991 148.828 60.6074 148.076 60.6074C147.338 60.6074 146.782 60.8923 146.408 61.4619C146.035 62.0316 145.843 62.8724 145.834 63.9844V65.9395C145.834 67.0742 146.025 67.9424 146.408 68.5439C146.796 69.1455 147.356 69.4463 148.09 69.4463C148.819 69.4463 149.37 69.1523 149.744 68.5645C150.122 67.9766 150.314 67.1152 150.318 65.9805V64.0664ZM159.137 70H152.902V69.3711L156.313 65.502C156.879 64.8503 157.271 64.3125 157.489 63.8887C157.708 63.4648 157.817 63.0524 157.817 62.6514C157.817 62.0225 157.633 61.5257 157.264 61.1611C156.895 60.792 156.386 60.6074 155.739 60.6074C155.069 60.6074 154.527 60.8216 154.112 61.25C153.702 61.6784 153.497 62.2344 153.497 62.918H152.684C152.684 62.3574 152.809 61.847 153.06 61.3867C153.315 60.9264 153.675 60.5664 154.14 60.3066C154.609 60.0423 155.142 59.9102 155.739 59.9102C156.651 59.9102 157.362 60.1494 157.872 60.6279C158.387 61.1064 158.645 61.7581 158.645 62.583C158.645 63.0479 158.499 63.556 158.207 64.1074C157.92 64.6589 157.412 65.347 156.683 66.1719L153.907 69.3096H159.137V70ZM166.67 65.8506C166.67 67.2542 166.412 68.3206 165.897 69.0498C165.382 69.7744 164.624 70.1367 163.621 70.1367C162.637 70.1367 161.882 69.7812 161.358 69.0703C160.834 68.3548 160.565 67.3158 160.552 65.9531V64.1689C160.552 62.7699 160.812 61.7103 161.331 60.9902C161.851 60.2702 162.609 59.9102 163.607 59.9102C164.592 59.9102 165.344 60.2588 165.863 60.9561C166.383 61.6488 166.652 62.6719 166.67 64.0254V65.8506ZM165.85 64.0664C165.85 62.9271 165.663 62.0658 165.289 61.4824C164.92 60.8991 164.359 60.6074 163.607 60.6074C162.869 60.6074 162.313 60.8923 161.939 61.4619C161.566 62.0316 161.374 62.8724 161.365 63.9844V65.9395C161.365 67.0742 161.557 67.9424 161.939 68.5439C162.327 69.1455 162.887 69.4463 163.621 69.4463C164.35 69.4463 164.902 69.1523 165.275 68.5645C165.654 67.9766 165.845 67.1152 165.85 65.9805V64.0664ZM171.106 65.9531H167.832V65.2627H171.106V65.9531ZM178.674 70H172.439V69.3711L175.851 65.502C176.416 64.8503 176.808 64.3125 177.026 63.8887C177.245 63.4648 177.354 63.0524 177.354 62.6514C177.354 62.0225 177.17 61.5257 176.801 61.1611C176.432 60.792 175.924 60.6074 175.276 60.6074C174.606 60.6074 174.064 60.8216 173.649 61.25C173.239 61.6784 173.034 62.2344 173.034 62.918H172.221C172.221 62.3574 172.346 61.847 172.597 61.3867C172.852 60.9264 173.212 60.5664 173.677 60.3066C174.146 60.0423 174.679 59.9102 175.276 59.9102C176.188 59.9102 176.899 60.1494 177.409 60.6279C177.924 61.1064 178.182 61.7581 178.182 62.583C178.182 63.0479 178.036 63.556 177.744 64.1074C177.457 64.6589 176.949 65.347 176.22 66.1719L173.444 69.3096H178.674V70ZM186.207 65.8506C186.207 67.2542 185.95 68.3206 185.435 69.0498C184.92 69.7744 184.161 70.1367 183.158 70.1367C182.174 70.1367 181.42 69.7812 180.896 69.0703C180.371 68.3548 180.103 67.3158 180.089 65.9531V64.1689C180.089 62.7699 180.349 61.7103 180.868 60.9902C181.388 60.2702 182.146 59.9102 183.145 59.9102C184.129 59.9102 184.881 60.2588 185.4 60.9561C185.92 61.6488 186.189 62.6719 186.207 64.0254V65.8506ZM185.387 64.0664C185.387 62.9271 185.2 62.0658 184.826 61.4824C184.457 60.8991 183.896 60.6074 183.145 60.6074C182.406 60.6074 181.85 60.8923 181.477 61.4619C181.103 62.0316 180.911 62.8724 180.902 63.9844V65.9395C180.902 67.0742 181.094 67.9424 181.477 68.5439C181.864 69.1455 182.424 69.4463 183.158 69.4463C183.887 69.4463 184.439 69.1523 184.812 68.5645C185.191 67.9766 185.382 67.1152 185.387 65.9805V64.0664ZM194.205 70H187.971V69.3711L191.382 65.502C191.947 64.8503 192.339 64.3125 192.558 63.8887C192.776 63.4648 192.886 63.0524 192.886 62.6514C192.886 62.0225 192.701 61.5257 192.332 61.1611C191.963 60.792 191.455 60.6074 190.808 60.6074C190.138 60.6074 189.595 60.8216 189.181 61.25C188.771 61.6784 188.565 62.2344 188.565 62.918H187.752C187.752 62.3574 187.877 61.847 188.128 61.3867C188.383 60.9264 188.743 60.5664 189.208 60.3066C189.677 60.0423 190.211 59.9102 190.808 59.9102C191.719 59.9102 192.43 60.1494 192.94 60.6279C193.455 61.1064 193.713 61.7581 193.713 62.583C193.713 63.0479 193.567 63.556 193.275 64.1074C192.988 64.6589 192.48 65.347 191.751 66.1719L188.976 69.3096H194.205V70ZM201.738 65.8506C201.738 67.2542 201.481 68.3206 200.966 69.0498C200.451 69.7744 199.692 70.1367 198.689 70.1367C197.705 70.1367 196.951 69.7812 196.427 69.0703C195.903 68.3548 195.634 67.3158 195.62 65.9531V64.1689C195.62 62.7699 195.88 61.7103 196.399 60.9902C196.919 60.2702 197.678 59.9102 198.676 59.9102C199.66 59.9102 200.412 60.2588 200.932 60.9561C201.451 61.6488 201.72 62.6719 201.738 64.0254V65.8506ZM200.918 64.0664C200.918 62.9271 200.731 62.0658 200.357 61.4824C199.988 60.8991 199.428 60.6074 198.676 60.6074C197.938 60.6074 197.382 60.8923 197.008 61.4619C196.634 62.0316 196.443 62.8724 196.434 63.9844V65.9395C196.434 67.0742 196.625 67.9424 197.008 68.5439C197.395 69.1455 197.956 69.4463 198.689 69.4463C199.419 69.4463 199.97 69.1523 200.344 68.5645C200.722 67.9766 200.913 67.1152 200.918 65.9805V64.0664Z" fill="#E5E9F0"/>
<path d="M15.5744 48.9864C15.5744 53.3906 16.2099 56.5612 11.7372 56.5612C6.77148 57.0126 0 51.0922 0 44.5464C0 40.1423 2.76331 36.6934 7.47599 38.0501C12.1887 39.4068 15.5744 44.5823 15.5744 48.9864Z" fill="#B9906A"/>
<path d="M11.8218 54.8372H11.7991L11.7766 54.8393C9.95125 55.0052 7.69606 53.9906 5.86975 52.2209C4.05337 50.4608 2.75684 48.0432 2.75684 45.5461C2.75684 43.8456 3.29112 42.3909 4.21121 41.4973C5.10935 40.6249 6.44005 40.2228 8.2109 40.7325C10.0007 41.2478 11.5632 42.4974 12.6821 44.0671C13.8019 45.6383 14.4488 47.4905 14.4488 49.1644C14.4488 49.6016 14.4559 50.0024 14.4625 50.3824C14.4702 50.8202 14.4774 51.2304 14.4728 51.6374C14.4645 52.3753 14.4152 52.9766 14.273 53.4539C14.1351 53.9166 13.9176 54.2383 13.5777 54.4569C13.2247 54.6838 12.6811 54.8372 11.8218 54.8372Z" fill="#A27C59" stroke="#A17C59"/>
<path d="M58.9115 49.0614C58.9115 53.4949 58.276 56.6867 62.7487 56.6867C67.7146 57.1411 74.4863 51.1812 74.4863 44.5918C74.4863 40.1583 71.7229 36.6864 67.0101 38.0521C62.2973 39.4178 58.9115 44.6279 58.9115 49.0614Z" fill="#B9906A"/>
<path d="M38.5524 42.3149C38.5524 52.2736 41.9583 61.9882 38.5524 64.8459C34.2829 68.2376 47.0603 76.5343 37.6949 77.9284C30.0728 78.9847 18.7944 67.9953 16.6603 65.8149C14.5263 63.6345 8.80323 50.391 9.02895 39.8922C9.02895 20.7586 21.7387 5.2478 37.4169 5.2478C53.0951 5.2478 38.5524 23.1813 38.5524 42.3149Z" fill="#B9906A"/>
<path d="M62.7411 54.8499H62.7631L62.785 54.8519C64.6163 55.0136 66.8736 54.025 68.6981 52.3075C70.5142 50.598 71.8057 48.2544 71.8057 45.839C71.8057 44.194 71.274 42.7869 70.3566 41.9213C69.4589 41.0743 68.1243 40.6813 66.3482 41.178C64.5557 41.6793 62.9938 42.894 61.8769 44.4163C60.7584 45.9406 60.1142 47.7351 60.1142 49.3537C60.1142 49.7799 60.1071 50.1692 60.1005 50.5382C60.0928 50.9627 60.0856 51.3601 60.0902 51.7556C60.0985 52.4718 60.1478 53.0527 60.2889 53.5126C60.4251 53.9567 60.64 54.267 60.9797 54.4792C61.3339 54.7004 61.8798 54.8499 62.7411 54.8499Z" fill="#A27C59" stroke="#A17C59"/>
<path d="M37.5213 54.9053C37.5213 64.864 32.9799 61.9882 36.3857 64.8459C40.6553 68.2376 27.4852 76.5741 37.2433 77.9284C44.8653 78.9862 56.1437 67.9954 58.2778 65.8149C60.4119 63.6345 65.9092 51.5196 65.9092 39.8922C65.9092 20.7586 53.1995 5.2478 37.5213 5.2478C21.843 5.2478 37.5213 35.7718 37.5213 54.9053Z" fill="#B9906A"/>
<path d="M16.5403 30.7365C14.0136 30.8184 12.0771 32.3868 11.4247 33.1608C22.2535 31.3789 28.6067 33.7326 29.953 33.4631C31.03 33.2475 30.4087 31.2653 30.3018 30.2901L16.5403 30.7365Z" fill="#231713"/>
<path d="M57.7581 30.2449C60.2845 30.163 62.3184 31.6026 63.0195 32.3326C52.0992 31.2562 45.9125 34.0167 44.5517 33.835C43.4631 33.6896 43.9546 31.6713 43.9981 30.6913L57.7581 30.2449Z" fill="#231713"/>
<path d="M19.4111 57.8398C14.1282 54.6781 11.7367 55.3569 11.7367 55.3569C11.7367 55.3569 11.7367 56.4165 13.091 59.7742C14.4453 63.132 16.2509 65.3705 16.2509 65.3705C16.2509 65.3705 17.6052 67.2129 22.5709 71.1906C27.5366 75.1683 28.4395 75.2199 28.4395 75.2199C28.4395 75.2199 28.1656 63.0791 19.4111 57.8398Z" fill="#A78261"/>
<path d="M55.5256 57.8932C60.8085 54.7413 63.2 55.418 63.2 55.418C63.2 55.418 63.2 56.4743 61.8457 59.8217C60.4915 63.1692 58.6857 65.4008 58.6857 65.4008C58.6857 65.4008 57.3314 67.2376 52.3657 71.203C47.3999 75.1685 46.4971 75.22 46.4971 75.22C46.4971 75.22 46.771 63.1164 55.5256 57.8932Z" fill="#A78261"/>
<path d="M33.0942 45.9526C34.2349 42.1528 39.6156 42.1527 40.7563 45.9526L43.0353 53.5436C43.5836 55.3702 42.7683 57.3479 40.9794 58.0089C39.6812 58.4886 38.1759 58.9148 36.9253 58.9148C35.6746 58.9148 34.1694 58.4886 32.8712 58.0089C31.0822 57.3479 30.2669 55.3702 30.8153 53.5436L33.0942 45.9526Z" fill="#B97D6A"/>
<path d="M34.0374 49.2603C34.8582 46.344 38.9922 46.344 39.813 49.2603L40.7855 52.7158C41.1894 54.1506 40.4807 55.6861 39.0431 56.0803C38.3328 56.2751 37.5742 56.4255 36.9252 56.4255C36.2761 56.4255 35.5175 56.2751 34.8072 56.0803C33.3696 55.6861 32.6609 54.1506 33.0648 52.7158L34.0374 49.2603Z" fill="#C98E7B"/>
<path d="M7.67965 35.9453L35.2112 36.6225C35.2112 36.6225 35.2112 49.2146 32.2614 52.6301C29.3116 56.0456 12.8418 56.1045 10.1378 53.6312C7.43383 51.1579 7.67965 35.9453 7.67965 35.9453Z" fill="#2E2E2E"/>
<path d="M66.3545 35.9453L38.823 36.6225C38.823 36.6225 38.823 49.2146 41.7728 52.6301C44.7226 56.0456 61.1924 56.1045 63.8964 53.6312C66.6004 51.1579 66.3545 35.9453 66.3545 35.9453Z" fill="#2E2E2E"/>
<path d="M65.0006 38.6538H40.2428C40.2428 38.6538 40.1771 49.1458 42.8368 51.8465C45.4964 54.5471 60.3462 54.5936 62.7842 52.638C65.2223 50.6824 65.0006 38.6538 65.0006 38.6538Z" fill="#B9906A"/>
<path d="M9.03357 38.6538H21.4114H33.7892C33.7892 38.6538 33.8549 49.1458 31.1955 51.8465C28.5361 54.5471 13.6876 54.5936 11.2498 52.638C8.81194 50.6824 9.03357 38.6538 9.03357 38.6538Z" fill="#B9906A"/>
<path d="M7.22288 35.9452C7.4469 35.4938 37.0174 36.6224 37.0174 36.6224L66.8119 35.9452L66.5878 37.7509L66.1398 38.6538H7.89494L7.4469 37.7509C7.4469 37.7509 6.99886 36.3966 7.22288 35.9452Z" fill="#2E2E2E"/>
<path d="M33.4053 38.2024H40.6282L40.1122 45.8767C40.1122 45.8767 38.4003 42.0396 37.0167 42.0396C35.6331 42.0396 33.9212 45.8767 33.9212 45.8767L33.4053 38.2024Z" fill="#2E2E2E"/>
<path d="M42.8853 38.6538C41.0796 38.8344 40.4777 41.4376 40.4025 42.7167H40.1768V38.6538H42.8853Z" fill="#2E2E2E"/>
<path d="M11.2855 38.6538C9.78071 38.8143 9.09102 41.1283 9.02832 42.2653V38.6538H11.2855Z" fill="#2E2E2E"/>
<path d="M31.1488 38.6538C32.9546 38.8344 33.5565 41.4376 33.6317 42.7167H33.8574V38.6538H31.1488Z" fill="#2E2E2E"/>
<path d="M9.47979 33.688C11.2787 23.6219 17.3799 13.5993 27.3114 12.0193C28.4905 11.3227 29.9368 6.18823 25.3381 5.7703C20.7393 5.35237 16.2732 6.81511 12.5146 9.16598C8.75598 11.5168 9.47979 33.688 9.47979 33.688Z" fill="#211411"/>
<path d="M37.7895 32.5077C40.3141 27.5167 40.7051 22.8307 39.5547 20.5967C41.7742 22.4295 43.9064 27.631 41.16 31.8499C37.3465 37.7079 38.2483 41.2699 38.289 41.8789C37.6176 41.925 35.2649 37.4988 37.7895 32.5077Z" fill="#19110E"/>
<path d="M54.5295 37.2013C55.1925 32.9341 53.9734 29.6119 52.1484 28.49C54.8327 28.9694 58.5736 31.7702 57.4433 35.589C55.8739 40.8913 57.9162 43.0022 58.1598 43.4023C57.5507 43.6658 53.8664 41.4685 54.5295 37.2013Z" fill="#1F1410"/>
<path d="M55.7517 36.8481C55.5711 29.4447 49.6574 26.6157 48.0774 25.5623C46.3469 25.1862 42.4796 23.3503 40.8545 19.0166C38.823 13.5994 23.0229 12.0194 23.4743 10.2137C23.8355 8.76907 24.2267 7.35458 24.3772 6.82791C29.5687 -3.55503 56.4289 0.282145 61.3946 2.99074C66.3604 5.69933 70.649 10.6651 70.4232 27.5938C70.2427 41.1368 73.0566 43.9958 75.389 44.9739C74.9376 45.6511 71.3261 48.134 66.1346 46.7797C59.8804 45.1481 56.5793 40.6853 55.7517 36.8481Z" fill="url(#paint0_linear)"/>
<path d="M31.1871 64.5329C31.7984 64.1043 32.564 63.9972 33.3047 64.0908C34.3849 64.2273 36.0209 64.4012 37.2433 64.3855C38.2819 64.3722 39.66 64.2139 40.6022 64.0885C41.3029 63.9952 42.0253 64.0845 42.6279 64.4541C43.7146 65.1206 44.9504 66.1912 41.676 66.1912C37.786 66.1912 36.4893 66.1912 32.1671 66.1912C29.3051 66.1912 30.2333 65.2016 31.1871 64.5329Z" fill="#8A5949"/>
<path d="M27.0861 43.1682C27.0861 44.7888 26.2776 46.1025 25.2803 46.1025C24.2831 46.1025 23.4746 44.7888 23.4746 43.1682C23.4746 41.5476 24.2831 40.6289 25.2803 40.6289C26.2776 40.6289 27.0861 41.5476 27.0861 43.1682Z" fill="#3D2B27"/>
<path d="M51.9152 43.1682C51.9152 44.7888 51.1067 46.1025 50.1094 46.1025C49.1122 46.1025 48.3037 44.7888 48.3037 43.1682C48.3037 41.5476 49.1122 40.6289 50.1094 40.6289C51.1067 40.6289 51.9152 41.5476 51.9152 43.1682Z" fill="#3D2B27"/>
<ellipse cx="48.529" cy="41.5318" rx="1.12858" ry="0.902872" fill="white"/>
<ellipse cx="23.6999" cy="41.5318" rx="1.12858" ry="0.902872" fill="white"/>
<path d="M39.3845 34.3044C42.661 16.102 32.9549 13.8251 32.9549 13.8251C40.1778 0.955546 65.5676 11.3507 53.1532 29.7901C40.7388 48.2295 53.6046 47.6217 50.4446 48.0731C47.2846 48.5245 37.3531 45.5902 39.3845 34.3044Z" fill="url(#paint1_linear)"/>
<defs>
<linearGradient id="paint0_linear" x1="45.1431" y1="25.5623" x2="99.3149" y2="-6.26359" gradientUnits="userSpaceOnUse">
<stop stop-color="#211411"/>
<stop offset="1" stop-color="#3D2B27"/>
</linearGradient>
<linearGradient id="paint1_linear" x1="25.5062" y1="38.8796" x2="60.7179" y2="17.4366" gradientUnits="userSpaceOnUse">
<stop stop-color="#0F0A08"/>
<stop offset="1" stop-color="#30201B"/>
</linearGradient>
</defs>
</svg>
