<svg width="262" height="250" viewBox="0 0 262 250" fill="none" xmlns="http://www.w3.org/2000/svg">
<path fill-rule="evenodd" clip-rule="evenodd" d="M130.865 0C58.5621 0 0 57.3524 0 128.162C0 184.873 37.4601 232.774 89.4789 249.755C96.0222 250.877 98.4759 247.032 98.4759 243.667C98.4759 240.624 98.3123 230.531 98.3123 219.797C65.4325 225.725 56.9263 211.947 54.309 204.738C52.8367 201.054 46.4571 189.679 40.8953 186.636C36.315 184.232 29.7718 178.305 40.7317 178.145C51.0374 177.985 58.3985 187.437 60.8522 191.281C72.6301 210.666 91.4419 205.219 98.9667 201.855C100.112 193.524 103.547 187.917 107.309 184.713C78.1918 181.509 47.7657 170.455 47.7657 121.433C47.7657 107.496 52.8367 95.9611 61.1794 86.9898C59.8707 83.7857 55.2905 70.6492 62.488 53.0269C62.488 53.0269 73.448 49.6627 98.4759 66.1635C108.945 63.2799 120.069 61.838 131.192 61.838C142.316 61.838 153.439 63.2799 163.908 66.1635C188.936 49.5025 199.896 53.0269 199.896 53.0269C207.094 70.6492 202.514 83.7857 201.205 86.9898C209.548 95.9611 214.619 107.335 214.619 121.433C214.619 170.615 184.029 181.509 154.911 184.713C159.655 188.718 163.745 196.408 163.745 208.423C163.745 225.565 163.581 239.342 163.581 243.667C163.581 247.032 166.035 251.037 172.578 249.755C224.27 232.774 261.73 184.713 261.73 128.162C261.73 57.3524 203.168 0 130.865 0Z" fill="#E5E9F0"/>
</svg>
