<svg width="152" height="61" viewBox="0 0 152 61" fill="none" xmlns="http://www.w3.org/2000/svg">
<rect y="27" width="152" height="6" rx="3" fill="#DC486A"/>
<circle cx="113.5" cy="30.5" r="30.5" fill="#DC486A"/>
<circle cx="38.5" cy="30.5" r="30.5" fill="#DC486A"/>
<circle cx="38.5" cy="30.5" r="25.5" fill="#15161C"/>
<path d="M38.5 13.7107C38.5 11.6614 36.8254 9.96599 34.8095 10.3349C33.3886 10.595 31.9959 11.0051 30.655 11.5605C28.1678 12.5907 25.9079 14.1007 24.0043 16.0043C22.1007 17.9079 20.5907 20.1678 19.5605 22.655C19.0051 23.9959 18.595 25.3886 18.3349 26.8095C17.966 28.8254 19.6614 30.5 21.7107 30.5C23.7601 30.5 25.3707 28.8063 25.9444 26.8388C26.0771 26.3835 26.2348 25.9349 26.417 25.4951C27.0743 23.9083 28.0376 22.4665 29.2521 21.2521C30.4665 20.0376 31.9083 19.0743 33.4951 18.417C33.9349 18.2348 34.3835 18.0771 34.8388 17.9444C36.8063 17.3707 38.5 15.7601 38.5 13.7107Z" fill="#DC486A"/>
<circle cx="113.5" cy="30.5" r="25.5" fill="#15161C"/>
<path d="M113.5 13.7105C113.5 11.6612 111.825 9.96599 109.81 10.3349C108.389 10.5949 106.996 11.005 105.655 11.5605C103.168 12.5907 100.908 14.1007 99.0043 16.0043C97.1007 17.9079 95.5907 20.1678 94.5605 22.655C94.005 23.9959 93.5949 25.3888 93.3349 26.8097C92.966 28.8255 94.6612 30.5 96.7105 30.5C98.7598 30.5 100.37 28.8064 100.944 26.8391C101.077 26.3836 101.234 25.9349 101.417 25.4949C102.074 23.9081 103.037 22.4662 104.252 21.2518C105.466 20.0373 106.908 19.0739 108.495 18.4166C108.935 18.2343 109.384 18.0766 109.839 17.9438C111.806 17.3702 113.5 15.7598 113.5 13.7105Z" fill="#DC486A"/>
</svg>
