<svg width="304" height="300" viewBox="0 0 304 300" fill="none" xmlns="http://www.w3.org/2000/svg">
<rect width="303.6" height="300" fill="#E44D26"/>
<g filter="url(#filter0_d)">
<path d="M91.6909 227.951C86.8765 226.613 83.3954 222.431 82.9523 217.454L69.5631 67.0642C68.9382 60.0445 74.4684 54 81.5158 54H223.283C230.331 54 235.861 60.0453 235.235 67.0655L221.832 217.425C221.388 222.403 217.905 226.585 213.09 227.922L155.509 243.908C153.407 244.492 151.186 244.491 149.085 243.907L91.6909 227.951Z" fill="#E44D26"/>
</g>
<path d="M152.4 229.2L207.771 213.895L220.8 68.4H152.4V229.2Z" fill="#F16529"/>
<path d="M152.4 131.262H124.537L122.613 109.779H152.4V88.8H99.6L100.105 94.4283L105.28 152.24H152.4V131.262ZM152.4 185.746L152.307 185.771L128.857 179.462L127.358 162.73H106.221L109.171 195.67L152.304 207.6L152.4 207.573V185.746Z" fill="#EBEBEB"/>
<path d="M152.4 131.266V152.246H178.355L175.908 179.457L152.4 185.772V207.6L195.611 195.68L195.927 192.135L200.881 136.9L201.395 131.266H195.716H152.4ZM152.4 88.8V109.781H203.313L203.735 105.065L204.696 94.4288L205.2 88.8H152.4Z" fill="white"/>
<defs>
<filter id="filter0_d" x="69.5149" y="54" width="169.769" height="194.346" filterUnits="userSpaceOnUse" color-interpolation-filters="sRGB">
<feFlood flood-opacity="0" result="BackgroundImageFix"/>
<feColorMatrix in="SourceAlpha" type="matrix" values="0 0 0 0 0 0 0 0 0 0 0 0 0 0 0 0 0 0 127 0"/>
<feOffset dx="4" dy="4"/>
<feColorMatrix type="matrix" values="0 0 0 0 0 0 0 0 0 0 0 0 0 0 0 0 0 0 0.25 0"/>
<feBlend mode="normal" in2="BackgroundImageFix" result="effect1_dropShadow"/>
<feBlend mode="normal" in="SourceGraphic" in2="effect1_dropShadow" result="shape"/>
</filter>
</defs>
</svg>
