<svg width="253" height="250" viewBox="0 0 253 250" fill="none" xmlns="http://www.w3.org/2000/svg">
<rect width="253" height="250" rx="30" fill="#E44D26"/>
<g filter="url(#filter0_d)">
<path d="M77.7427 190.33C72.9283 188.992 69.4472 184.81 69.0041 179.833L58.1631 58.0641C57.5381 51.0444 63.0683 45 70.1158 45H183.883C190.931 45 196.461 51.0453 195.835 58.0655L184.983 179.808C184.539 184.786 181.056 188.968 176.241 190.305L130.126 203.108C128.025 203.692 125.804 203.691 123.702 203.107L77.7427 190.33Z" fill="#E44D26"/>
</g>
<path d="M127 191L173.143 178.246L184 57H127V191Z" fill="#F16529"/>
<path d="M127 109.385H103.781L102.177 91.4826H127V74H83L83.4205 78.6903L87.7331 126.867H127V109.385ZM127 154.788L126.923 154.809L107.381 149.551L106.132 135.609H88.5174L90.976 163.059L126.92 173L127 172.977V154.788Z" fill="#EBEBEB"/>
<path d="M127 109.388V126.872H148.629L146.59 149.547L127 154.81V173L163.009 163.067L163.272 160.112L167.401 114.083L167.829 109.388H163.096H127ZM127 74V91.4842H169.428L169.779 87.5541L170.58 78.6907L171 74H127Z" fill="white"/>
<defs>
<filter id="filter0_d" x="58.1149" y="45" width="141.769" height="162.546" filterUnits="userSpaceOnUse" color-interpolation-filters="sRGB">
<feFlood flood-opacity="0" result="BackgroundImageFix"/>
<feColorMatrix in="SourceAlpha" type="matrix" values="0 0 0 0 0 0 0 0 0 0 0 0 0 0 0 0 0 0 127 0"/>
<feOffset dx="4" dy="4"/>
<feColorMatrix type="matrix" values="0 0 0 0 0 0 0 0 0 0 0 0 0 0 0 0 0 0 0.25 0"/>
<feBlend mode="normal" in2="BackgroundImageFix" result="effect1_dropShadow"/>
<feBlend mode="normal" in="SourceGraphic" in2="effect1_dropShadow" result="shape"/>
</filter>
</defs>
</svg>
