<svg width="51" height="50" viewBox="0 0 51 50" fill="none" xmlns="http://www.w3.org/2000/svg">
<path d="M25.0111 12.1806C17.9153 12.1806 12.1918 17.9042 12.1918 25C12.1918 32.0958 17.9153 37.8194 25.0111 37.8194C32.1069 37.8194 37.8304 32.0958 37.8304 25C37.8304 17.9042 32.1069 12.1806 25.0111 12.1806ZM25.0111 33.3343C20.4256 33.3343 16.6768 29.5967 16.6768 25C16.6768 20.4033 20.4144 16.6657 25.0111 16.6657C29.6078 16.6657 33.3453 20.4033 33.3453 25C33.3453 29.5967 29.5966 33.3343 25.0111 33.3343ZM41.3449 11.6563C41.3449 13.3186 40.006 14.6463 38.3548 14.6463C36.6924 14.6463 35.3647 13.3075 35.3647 11.6563C35.3647 10.005 36.7036 8.66618 38.3548 8.66618C40.006 8.66618 41.3449 10.005 41.3449 11.6563ZM49.8353 14.691C49.6456 10.6856 48.7308 7.13768 45.7965 4.21455C42.8734 1.29142 39.3255 0.376548 35.3201 0.175722C31.192 -0.0585741 18.819 -0.0585741 14.6909 0.175722C10.6967 0.365391 7.14882 1.28026 4.21454 4.20339C1.28026 7.12652 0.376547 10.6744 0.175722 14.6798C-0.058574 18.8079 -0.058574 31.181 0.175722 35.309C0.36539 39.3144 1.28026 42.8623 4.21454 45.7855C7.14882 48.7086 10.6856 49.6235 14.6909 49.8243C18.819 50.0586 31.192 50.0586 35.3201 49.8243C39.3255 49.6346 42.8734 48.7197 45.7965 45.7855C48.7196 42.8623 49.6345 39.3144 49.8353 35.309C50.0696 31.181 50.0696 18.819 49.8353 14.691ZM44.5023 39.7384C43.632 41.9251 41.9473 43.6098 39.7494 44.4912C36.4581 45.7966 28.6483 45.4954 25.0111 45.4954C21.3739 45.4954 13.5529 45.7855 10.2728 44.4912C8.086 43.621 6.4013 41.9363 5.5199 39.7384C4.21454 36.4471 4.51578 28.6372 4.51578 25C4.51578 21.3628 4.22569 13.5418 5.5199 10.2616C6.39014 8.07486 8.07484 6.39016 10.2728 5.50876C13.5641 4.20339 21.3739 4.50463 25.0111 4.50463C28.6483 4.50463 36.4693 4.21455 39.7494 5.50876C41.9362 6.379 43.6209 8.06371 44.5023 10.2616C45.8076 13.5529 45.5064 21.3628 45.5064 25C45.5064 28.6372 45.8076 36.4582 44.5023 39.7384Z" fill="#98B8D2"/>
</svg>
