<svg width="41" height="40" viewBox="0 0 41 40" fill="none" xmlns="http://www.w3.org/2000/svg">
<path d="M20.0089 9.7445C14.3322 9.7445 9.7534 14.3233 9.7534 20C9.7534 25.6767 14.3322 30.2555 20.0089 30.2555C25.6855 30.2555 30.2643 25.6767 30.2643 20C30.2643 14.3233 25.6855 9.7445 20.0089 9.7445ZM20.0089 26.6674C16.3405 26.6674 13.3415 23.6773 13.3415 20C13.3415 16.3227 16.3315 13.3326 20.0089 13.3326C23.6862 13.3326 26.6763 16.3227 26.6763 20C26.6763 23.6773 23.6773 26.6674 20.0089 26.6674ZM33.0759 9.325C33.0759 10.6549 32.0048 11.7171 30.6838 11.7171C29.3539 11.7171 28.2918 10.646 28.2918 9.325C28.2918 8.00402 29.3629 6.93295 30.6838 6.93295C32.0048 6.93295 33.0759 8.00402 33.0759 9.325ZM39.8682 11.7528C39.7165 8.54848 38.9846 5.71014 36.6372 3.37164C34.2987 1.03314 31.4604 0.301238 28.2561 0.140578C24.9536 -0.0468593 15.0552 -0.0468593 11.7527 0.140578C8.55738 0.292313 5.71905 1.02421 3.37163 3.36271C1.02421 5.70122 0.301238 8.53955 0.140578 11.7438C-0.0468592 15.0463 -0.0468592 24.9448 0.140578 28.2472C0.292312 31.4515 1.02421 34.2899 3.37163 36.6284C5.71905 38.9669 8.54845 39.6988 11.7527 39.8594C15.0552 40.0469 24.9536 40.0469 28.2561 39.8594C31.4604 39.7077 34.2987 38.9758 36.6372 36.6284C38.9757 34.2899 39.7076 31.4515 39.8682 28.2472C40.0557 24.9448 40.0557 15.0552 39.8682 11.7528ZM35.6018 31.7907C34.9056 33.5401 33.5579 34.8879 31.7995 35.593C29.1665 36.6373 22.9186 36.3963 20.0089 36.3963C17.0991 36.3963 10.8423 36.6284 8.21821 35.593C6.4688 34.8968 5.12104 33.549 4.41592 31.7907C3.37163 29.1576 3.61262 22.9097 3.61262 20C3.61262 17.0903 3.38056 10.8334 4.41592 8.2093C5.11211 6.45989 6.45987 5.11213 8.21821 4.40701C10.8512 3.36271 17.0991 3.6037 20.0089 3.6037C22.9186 3.6037 29.1754 3.37164 31.7995 4.40701C33.549 5.1032 34.8967 6.45096 35.6018 8.2093C36.6461 10.8424 36.4051 17.0903 36.4051 20C36.4051 22.9097 36.6461 29.1666 35.6018 31.7907Z" fill="#DBDCE4"/>
</svg>
