<svg width="43" height="40" viewBox="0 0 43 40" fill="none" xmlns="http://www.w3.org/2000/svg">
<path d="M5.53726 0.247373C3.68464 1.39898 0.0346187 5.78888 0 6.94013V8.84577C0 11.2613 2.15674 13.3844 4.11495 13.3844C6.46625 13.3844 8.42532 11.3443 8.4255 8.92297C8.4255 11.3443 10.3174 13.3844 12.6689 13.3844C15.0205 13.3844 16.8517 11.3443 16.8517 8.92297C16.8517 11.3443 18.8634 13.3844 21.2149 13.3844H21.2574C23.6091 13.3844 25.6208 11.3443 25.6208 8.92297C25.6208 11.3443 27.4521 13.3844 29.8034 13.3844C32.1549 13.3844 34.0468 11.3443 34.0468 8.92297C34.0468 11.3443 36.0062 13.3844 38.3573 13.3844C40.3155 13.3844 42.4723 11.2617 42.4723 8.84577V6.94013C42.4377 5.7887 38.7876 1.39862 36.9354 0.247373C31.1772 0.0357152 27.1854 -0.000889888 21.236 1.61797e-05C15.2867 0.00055982 7.17594 0.0978715 5.53691 0.247373H5.53726ZM16.8219 12.2468C16.5971 12.6571 16.3186 13.0325 15.9945 13.3622C15.1069 14.2708 13.8902 14.834 12.5489 14.834C11.2582 14.8352 10.0185 14.3065 9.09606 13.3614C8.77445 13.0316 8.53005 12.679 8.30624 12.2684L8.3052 12.2691C8.08156 12.6804 7.76999 13.0329 7.44769 13.3631C6.52488 14.3075 5.28531 14.8357 3.99482 14.8345C3.83315 14.8345 3.66491 14.7878 3.52886 14.7388C3.33984 16.7996 3.26004 18.769 3.23183 20.205L3.23148 20.2131C3.22802 20.9423 3.22456 21.542 3.2211 22.375C3.25745 26.6987 2.81208 36.389 5.04204 38.7699C8.49768 39.6135 14.8564 39.9976 21.2358 40H21.2368C27.616 39.9976 33.9748 39.6135 37.4304 38.7699C39.6604 36.3888 39.215 26.6986 39.2514 22.3748C39.2476 21.542 39.2444 20.9423 39.241 20.2129L39.2405 20.2048C39.2124 18.7685 39.1326 16.7992 38.9436 14.7385C38.8076 14.7874 38.6395 14.8342 38.4776 14.8342C37.1871 14.8354 35.9476 14.3071 35.0248 13.3627C34.7025 13.0325 34.3909 12.6803 34.1671 12.2687L34.166 12.268C33.9421 12.6786 33.6978 13.0314 33.3762 13.3611C32.4538 14.3061 31.2142 14.8347 29.9235 14.8334C28.5824 14.8334 27.3656 14.2699 26.4779 13.3614C26.1539 13.0318 25.8754 12.6564 25.6505 12.2461C25.4281 12.6559 25.1522 13.0313 24.8308 13.3614C23.9081 14.3064 22.6683 14.8349 21.3776 14.8336C21.3308 14.8336 21.2841 14.8314 21.2374 14.83H21.2361C21.1894 14.8314 21.1427 14.8336 21.0954 14.8336C19.8047 14.835 18.5649 14.3065 17.6422 13.3616C17.3208 13.0315 17.0449 12.6561 16.8224 12.2462L16.8219 12.2468ZM13.2759 17.0471L13.2756 17.0489H13.2782C14.6825 17.052 15.93 17.0489 17.4757 18.8151C18.6922 18.6815 19.9634 18.6148 21.2356 18.6168H21.2367C22.5089 18.615 23.7801 18.6815 24.9968 18.8151C26.5425 17.0488 27.79 17.0518 29.1943 17.0489H29.1967L29.1964 17.0471C29.8598 17.0471 32.5139 17.0471 34.3632 22.4848L36.3496 29.9445C37.8216 35.4939 35.8783 35.6297 33.4543 35.6346C29.8595 35.4945 27.8691 32.7614 27.8691 30.0287C25.8792 30.3701 23.5578 30.5408 21.2365 30.541H21.2355C18.9139 30.541 16.5926 30.3701 14.6029 30.0287C14.6029 32.7614 12.6123 35.4945 9.01765 35.6346C6.59365 35.6297 4.6505 35.4941 6.12249 29.9445L8.10943 22.485C9.95876 17.0473 12.6128 17.0473 13.2763 17.0473L13.2759 17.0471ZM21.2356 21.3205V21.3216C21.2322 21.3252 17.4513 24.9604 16.7715 26.2533L19.2475 26.1495V28.4099C19.2475 28.5158 20.241 28.4726 21.2356 28.4244H21.2367C22.2309 28.4726 23.2246 28.5158 23.2246 28.4099V26.1495L25.7006 26.2533C25.0207 24.9604 21.2365 21.3216 21.2365 21.3216V21.3205L21.236 21.3209L21.2356 21.3205Z" fill="#DBDCE4"/>
</svg>
