<svg width="54" height="50" viewBox="0 0 54 50" fill="none" xmlns="http://www.w3.org/2000/svg">
<path d="M6.92149 0.309212C4.60574 1.74871 0.0432728 7.23601 0 8.67505V11.0571C0 14.0765 2.6959 16.7303 5.14362 16.7303C8.08271 16.7303 10.5315 14.1802 10.5317 11.1536C10.5317 14.1802 12.8966 16.7303 15.8359 16.7303C18.7754 16.7303 21.0643 14.1802 21.0643 11.1536C21.0643 14.1802 23.5789 16.7303 26.5182 16.7303H26.5715C29.511 16.7303 32.0256 14.1802 32.0256 11.1536C32.0256 14.1802 34.3147 16.7303 37.2538 16.7303C40.1931 16.7303 42.5579 14.1802 42.5579 11.1536C42.5579 14.1802 45.0072 16.7303 47.9461 16.7303C50.3938 16.7303 53.0897 14.077 53.0897 11.0571V8.67505C53.0464 7.23578 48.4839 1.74826 46.1686 0.309212C38.9711 0.0446435 33.9813 -0.00111235 26.5446 2.02243e-05C19.1082 0.000699766 8.9698 0.122338 6.92105 0.309212H6.92149ZM21.0271 15.3083C20.7461 15.8212 20.398 16.2904 19.9929 16.7025C18.8834 17.8382 17.3626 18.5422 15.686 18.5422C14.0726 18.5438 12.523 17.883 11.3699 16.7016C10.9679 16.2893 10.6624 15.8485 10.3827 15.3352L10.3814 15.3362C10.1018 15.8503 9.71237 16.2909 9.3095 16.7036C8.15599 17.8841 6.60656 18.5444 4.99347 18.5429C4.79138 18.5429 4.58108 18.4845 4.41101 18.4233C4.17474 20.9992 4.075 23.461 4.03973 25.2559L4.0393 25.2661C4.03497 26.1776 4.03065 26.9271 4.02632 27.9684C4.07175 33.373 3.51505 45.4856 6.30247 48.4618C10.622 49.5162 18.5703 49.9964 26.5444 49.9994H26.5457C34.5196 49.9964 42.4679 49.5162 46.7874 48.4618C49.5748 45.4854 49.0181 33.3728 49.0636 27.9682C49.0588 26.9271 49.0549 26.1776 49.0506 25.2658L49.0499 25.2557C49.0149 23.4603 48.9151 20.9988 48.6789 18.4229C48.5088 18.484 48.2987 18.5425 48.0964 18.5425C46.4833 18.544 44.9339 17.8837 43.7804 16.7032C43.3775 16.2905 42.9881 15.8501 42.7083 15.3357L42.707 15.3348C42.427 15.8481 42.1218 16.2891 41.7197 16.7011C40.5667 17.8824 39.0172 18.5432 37.4039 18.5416C35.7275 18.5416 34.2065 17.8371 33.097 16.7016C32.6919 16.2895 32.3438 15.8203 32.0628 15.3074C31.7847 15.8197 31.4399 16.289 31.0381 16.7016C29.8847 17.8827 28.335 18.5434 26.7216 18.5418C26.6632 18.5418 26.6048 18.5391 26.5464 18.5372H26.5448C26.4864 18.5391 26.428 18.5418 26.3689 18.5418C24.7556 18.5435 23.2058 17.8829 22.0525 16.7018C21.6507 16.2892 21.3058 15.8199 21.0278 15.3076L21.0271 15.3083ZM16.5947 21.3086L16.5943 21.3109H16.5975C18.3529 21.3148 19.9122 21.3109 21.8443 23.5185C23.3649 23.3516 24.9539 23.2682 26.5442 23.2707H26.5455C28.1358 23.2684 29.7247 23.3516 31.2456 23.5185C33.1777 21.3107 34.737 21.3145 36.4924 21.3109H36.4954L36.495 21.3086C37.3243 21.3086 40.6418 21.3086 42.9535 28.1057L45.4365 37.4301C47.2764 44.3669 44.8473 44.5365 41.8173 44.5426C37.3239 44.3675 34.8359 40.9513 34.8359 37.5354C32.3486 37.9622 29.4469 38.1756 26.5453 38.1758H26.544C23.6421 38.1758 20.7404 37.9622 18.2533 37.5354C18.2533 40.9513 15.7652 44.3675 11.2719 44.5426C8.24196 44.5365 5.81305 44.3671 7.65301 37.4301L10.1367 28.1059C12.4483 21.3089 15.7658 21.3089 16.5951 21.3089L16.5947 21.3086ZM26.5442 26.6503V26.6517C26.5399 26.6562 21.8138 31.2001 20.9642 32.8162L24.059 32.6864V35.512C24.059 35.6443 25.301 35.5904 26.5442 35.5301H26.5455C27.7883 35.5904 29.0304 35.6443 29.0304 35.512V32.6864L32.1253 32.8162C31.2754 31.2001 26.5453 26.6517 26.5453 26.6517V26.6503L26.5446 26.6508L26.5442 26.6503Z" fill="#98B8D2"/>
</svg>
