<svg width="200" height="189" viewBox="0 0 200 189" fill="none" xmlns="http://www.w3.org/2000/svg">
<g clip-path="url(#clip0)">
<path d="M26.0748 1.16475C17.3509 6.58767 0.163019 27.2596 0 32.6808V41.6544C0 53.0293 10.1561 63.0269 19.3772 63.0269C30.4494 63.0269 39.6747 53.4201 39.6755 42.0179C39.6755 53.4201 48.5844 63.0269 59.6575 63.0269C70.7313 63.0269 79.3542 53.4201 79.3542 42.0179C79.3542 53.4201 88.8272 63.0269 99.9003 63.0269H100.101C111.175 63.0269 120.648 53.4201 120.648 42.0179C120.648 53.4201 129.271 63.0269 140.344 63.0269C151.417 63.0269 160.326 53.4201 160.326 42.0179C160.326 53.4201 169.552 63.0269 180.624 63.0269C189.845 63.0269 200.001 53.031 200.001 41.6544V32.6808C199.838 27.2587 182.65 6.58596 173.928 1.16475C146.813 0.16806 128.015 -0.00431253 99.9997 -4.58806e-05C71.985 0.00251411 33.7913 0.460753 26.0732 1.16475H26.0748ZM79.214 57.6697C78.1553 59.6019 76.8439 61.3697 75.3179 62.922C71.1381 67.2006 65.4088 69.8527 59.0926 69.8527C53.0147 69.8587 47.177 67.3691 42.8331 62.9186C41.3187 61.3655 40.1678 59.7049 39.1139 57.7713L39.109 57.7747C38.0559 59.7118 36.5887 61.3715 35.071 62.9262C30.7255 67.3735 24.8884 69.861 18.8115 69.8553C18.0502 69.8553 17.258 69.6351 16.6173 69.4047C15.7272 79.1088 15.3515 88.3828 15.2186 95.1446L15.217 95.183C15.2007 98.6168 15.1844 101.44 15.1681 105.363C15.3392 125.724 13.242 171.355 23.7428 182.567C40.0154 186.539 69.9586 188.348 99.9989 188.359H100.004C130.043 188.348 159.986 186.539 176.259 182.567C186.76 171.354 184.663 125.723 184.834 105.362C184.816 101.44 184.801 98.6168 184.785 95.1821L184.782 95.1437C184.65 88.3802 184.275 79.1071 183.385 69.403C182.744 69.6334 181.952 69.8536 181.19 69.8536C175.113 69.8593 169.276 67.3718 164.931 62.9245C163.413 61.3698 161.946 59.7109 160.892 57.773L160.887 57.7696C159.832 59.7032 158.682 61.3647 157.168 62.9169C152.824 67.367 146.987 69.8563 140.909 69.8502C134.594 69.8502 128.864 67.1963 124.684 62.9186C123.158 61.3663 121.847 59.5985 120.788 57.6663C119.74 59.5964 118.441 61.3641 116.928 62.9186C112.583 67.3682 106.745 69.8572 100.666 69.851C100.446 69.851 100.226 69.8408 100.006 69.834H100.001C99.7804 69.8408 99.5604 69.851 99.3379 69.851C93.2599 69.8574 87.4218 67.3688 83.0767 62.9194C81.5631 61.365 80.2639 59.5972 79.2165 57.6672L79.214 57.6697ZM62.516 80.2745L62.5144 80.283H62.5266C69.1395 80.2975 75.0138 80.283 82.2926 88.5995C88.0211 87.9706 94.0071 87.6566 99.9981 87.666H100.003C105.994 87.6575 111.98 87.9706 117.709 88.5995C124.988 80.2821 130.862 80.2966 137.475 80.283H137.487L137.485 80.2745C140.609 80.2745 153.107 80.2745 161.816 105.88L171.17 141.008C178.101 167.14 168.95 167.779 157.536 167.802C140.608 167.143 131.235 154.273 131.235 141.404C121.865 143.012 110.933 143.816 100.002 143.817H99.9973C89.0652 143.817 78.134 143.012 68.7645 141.404C68.7645 154.273 59.391 167.143 42.4639 167.802C31.0493 167.779 21.8991 167.141 28.8307 141.008L38.1871 105.881C46.8956 80.2753 59.3934 80.2753 62.5176 80.2753L62.516 80.2745ZM99.9981 100.398V100.403C99.9818 100.42 82.1777 117.538 78.9768 123.626L90.6359 123.137V133.782C90.6359 134.28 95.3146 134.077 99.9981 133.85H100.003C104.685 134.077 109.364 134.28 109.364 133.782V123.137L121.023 123.626C117.822 117.538 100.002 100.403 100.002 100.403V100.398L99.9997 100.399L99.9981 100.398Z" fill="#E5E9F0"/>
</g>
<defs>
<clipPath id="clip0">
<rect width="200" height="188.361" fill="white"/>
</clipPath>
</defs>
</svg>
