<svg width="253" height="250" viewBox="0 0 253 250" fill="none" xmlns="http://www.w3.org/2000/svg">
<rect width="253" height="250" rx="30" fill="#F7DF1E"/>
<path d="M118.643 110.359H132.778V185.872C132.778 196.077 129.702 204.061 123.55 209.822C117.446 215.584 109.292 218.465 99.0869 218.465C88.4912 218.465 80.2393 215.755 74.3311 210.335C68.4229 204.915 65.4688 197.322 65.4688 187.557H79.5312C79.5312 193.66 81.1914 198.421 84.5117 201.839C87.8809 205.257 92.7393 206.966 99.0869 206.966C104.897 206.966 109.585 205.135 113.149 201.473C116.763 197.811 118.594 192.684 118.643 186.092V110.359ZM188.149 169.466C176.089 165.999 167.3 161.751 161.782 156.722C156.313 151.644 153.579 145.394 153.579 137.972C153.579 129.573 156.924 122.64 163.613 117.171C170.352 111.653 179.092 108.895 189.834 108.895C197.158 108.895 203.677 110.311 209.39 113.143C215.151 115.975 219.595 119.881 222.72 124.861C225.894 129.842 227.48 135.286 227.48 141.194H213.345C213.345 134.749 211.294 129.695 207.192 126.033C203.091 122.322 197.305 120.467 189.834 120.467C182.9 120.467 177.48 122.005 173.574 125.081C169.717 128.108 167.788 132.332 167.788 137.752C167.788 142.098 169.619 145.784 173.281 148.812C176.992 151.79 183.267 154.524 192.104 157.015C200.991 159.505 207.925 162.264 212.905 165.291C217.935 168.27 221.646 171.761 224.038 175.765C226.479 179.769 227.7 184.48 227.7 189.9C227.7 198.543 224.331 205.477 217.593 210.701C210.854 215.877 201.846 218.465 190.566 218.465C183.242 218.465 176.406 217.073 170.059 214.29C163.711 211.458 158.804 207.601 155.337 202.718C151.919 197.835 150.21 192.293 150.21 186.092H164.346C164.346 192.537 166.714 197.64 171.45 201.399C176.235 205.11 182.607 206.966 190.566 206.966C197.988 206.966 203.677 205.452 207.632 202.425C211.587 199.397 213.564 195.271 213.564 190.047C213.564 184.822 211.733 180.794 208.071 177.962C204.409 175.081 197.769 172.249 188.149 169.466Z" fill="black"/>
<path d="M118.643 110.359V109.359H117.643V110.359H118.643ZM132.778 110.359H133.778V109.359H132.778V110.359ZM123.55 209.822L122.866 209.092L122.863 209.095L123.55 209.822ZM65.4688 187.557V186.557H64.4688V187.557H65.4688ZM79.5312 187.557H80.5312V186.557H79.5312V187.557ZM84.5117 201.839L83.7944 202.536L83.7995 202.541L84.5117 201.839ZM113.149 201.473L112.438 200.77L112.433 200.775L113.149 201.473ZM118.643 186.092L119.643 186.099V186.092H118.643ZM118.643 111.359H132.778V109.359H118.643V111.359ZM131.778 110.359V185.872H133.778V110.359H131.778ZM131.778 185.872C131.778 195.863 128.775 203.559 122.866 209.092L124.233 210.552C130.629 204.562 133.778 196.291 133.778 185.872H131.778ZM122.863 209.095C116.984 214.645 109.095 217.465 99.0869 217.465V219.465C109.489 219.465 117.909 216.523 124.236 210.549L122.863 209.095ZM99.0869 217.465C88.6592 217.465 80.678 214.8 75.0071 209.598L73.6551 211.072C79.8005 216.709 88.3232 219.465 99.0869 219.465V217.465ZM75.0071 209.598C69.3494 204.408 66.4688 197.108 66.4688 187.557H64.4688C64.4688 197.536 67.4963 205.422 73.6551 211.072L75.0071 209.598ZM65.4688 188.557H79.5312V186.557H65.4688V188.557ZM78.5312 187.557C78.5312 193.844 80.2459 198.883 83.7944 202.536L85.229 201.142C82.1369 197.959 80.5312 193.476 80.5312 187.557H78.5312ZM83.7995 202.541C87.4114 206.205 92.5612 207.966 99.0869 207.966V205.966C92.9173 205.966 88.3503 204.309 85.2239 201.137L83.7995 202.541ZM99.0869 207.966C105.127 207.966 110.087 206.053 113.866 202.17L112.433 200.775C109.083 204.217 104.668 205.966 99.0869 205.966V207.966ZM113.861 202.175C117.705 198.28 119.592 192.875 119.643 186.099L117.643 186.084C117.595 192.492 115.821 197.342 112.438 200.77L113.861 202.175ZM119.643 186.092V110.359H117.643V186.092H119.643ZM188.149 169.466L188.427 168.505L188.426 168.505L188.149 169.466ZM161.782 156.722L161.102 157.455L161.109 157.461L161.782 156.722ZM163.613 117.171L164.246 117.945L164.247 117.945L163.613 117.171ZM209.39 113.143L208.945 114.039L208.949 114.04L209.39 113.143ZM222.72 124.861L221.873 125.393L221.876 125.399L222.72 124.861ZM227.48 141.194V142.194H228.48V141.194H227.48ZM213.345 141.194H212.345V142.194H213.345V141.194ZM207.192 126.033L206.521 126.775L206.526 126.779L207.192 126.033ZM173.574 125.081L174.192 125.868L174.193 125.867L173.574 125.081ZM173.281 148.812L172.644 149.582L172.65 149.587L172.655 149.591L173.281 148.812ZM192.104 157.015L191.833 157.977L191.835 157.978L192.104 157.015ZM212.905 165.291L212.386 166.146L212.396 166.151L212.905 165.291ZM224.038 175.765L223.18 176.278L223.184 176.285L224.038 175.765ZM217.593 210.701L218.202 211.494L218.206 211.491L217.593 210.701ZM170.059 214.29L169.651 215.203L169.657 215.206L170.059 214.29ZM155.337 202.718L154.518 203.291L154.522 203.297L155.337 202.718ZM150.21 186.092V185.092H149.21V186.092H150.21ZM164.346 186.092H165.346V185.092H164.346V186.092ZM171.45 201.399L170.828 202.183L170.837 202.19L171.45 201.399ZM208.071 177.962L207.453 178.748L207.46 178.753L208.071 177.962ZM188.426 168.505C176.425 165.055 167.807 160.861 162.456 155.983L161.109 157.461C166.792 162.641 175.753 166.943 187.873 170.427L188.426 168.505ZM162.463 155.989C157.196 151.099 154.579 145.114 154.579 137.972H152.579C152.579 145.673 155.431 152.188 161.102 157.454L162.463 155.989ZM154.579 137.972C154.579 129.883 157.781 123.23 164.246 117.945L162.98 116.397C156.066 122.049 152.579 129.263 152.579 137.972H154.579ZM164.247 117.945C170.768 112.605 179.267 109.895 189.834 109.895V107.895C178.916 107.895 169.935 110.702 162.98 116.397L164.247 117.945ZM189.834 109.895C197.027 109.895 203.39 111.284 208.945 114.039L209.834 112.247C203.964 109.337 197.289 107.895 189.834 107.895V109.895ZM208.949 114.04C214.559 116.798 218.855 120.584 221.873 125.393L223.567 124.33C220.334 119.178 215.743 115.151 209.831 112.245L208.949 114.04ZM221.876 125.399C224.948 130.219 226.48 135.476 226.48 141.194H228.48C228.48 135.096 226.839 129.465 223.563 124.324L221.876 125.399ZM227.48 140.194H213.345V142.194H227.48V140.194ZM214.345 141.194C214.345 134.518 212.21 129.172 207.858 125.287L206.526 126.779C210.378 130.218 212.345 134.98 212.345 141.194H214.345ZM207.863 125.292C203.522 121.363 197.465 119.467 189.834 119.467V121.467C197.145 121.467 202.66 123.281 206.521 126.775L207.863 125.292ZM189.834 119.467C182.763 119.467 177.096 121.035 172.956 124.295L174.193 125.867C177.865 122.975 183.038 121.467 189.834 121.467V119.467ZM172.957 124.294C168.83 127.533 166.788 132.062 166.788 137.752H168.788C168.788 132.602 170.603 128.684 174.192 125.868L172.957 124.294ZM166.788 137.752C166.788 142.426 168.777 146.385 172.644 149.582L173.918 148.041C170.462 145.183 168.788 141.769 168.788 137.752H166.788ZM172.655 149.591C176.529 152.7 182.964 155.478 191.833 157.977L192.376 156.052C183.569 153.571 177.456 150.88 173.907 148.032L172.655 149.591ZM191.835 157.978C200.678 160.456 207.515 163.185 212.386 166.146L213.425 164.436C208.335 161.343 201.304 158.554 192.374 156.052L191.835 157.978ZM212.396 166.151C217.317 169.066 220.892 172.449 223.18 176.278L224.896 175.252C222.399 171.073 218.552 167.473 213.415 164.431L212.396 166.151ZM223.184 176.285C225.516 180.109 226.7 184.635 226.7 189.9H228.7C228.7 184.326 227.443 179.428 224.892 175.244L223.184 176.285ZM226.7 189.9C226.7 198.239 223.47 204.879 216.98 209.911L218.206 211.491C225.192 206.074 228.7 198.847 228.7 189.9H226.7ZM216.984 209.908C210.47 214.912 201.697 217.465 190.566 217.465V219.465C201.994 219.465 211.239 216.842 218.202 211.494L216.984 209.908ZM190.566 217.465C183.372 217.465 176.674 216.099 170.46 213.374L169.657 215.206C176.138 218.048 183.112 219.465 190.566 219.465V217.465ZM170.466 213.377C164.255 210.606 159.5 206.854 156.152 202.139L154.522 203.297C158.108 208.348 163.167 212.31 169.651 215.203L170.466 213.377ZM156.156 202.144C152.861 197.437 151.21 192.097 151.21 186.092H149.21C149.21 192.489 150.977 198.233 154.518 203.291L156.156 202.144ZM150.21 187.092H164.346V185.092H150.21V187.092ZM163.346 186.092C163.346 192.819 165.836 198.219 170.828 202.183L172.072 200.616C167.592 197.06 165.346 192.255 165.346 186.092H163.346ZM170.837 202.19C175.846 206.074 182.455 207.966 190.566 207.966V205.966C182.759 205.966 176.625 204.147 172.063 200.609L170.837 202.19ZM190.566 207.966C198.105 207.966 204.043 206.431 208.24 203.219L207.024 201.631C203.31 204.473 197.871 205.966 190.566 205.966V207.966ZM208.24 203.219C212.456 199.992 214.564 195.565 214.564 190.047H212.564C212.564 194.978 210.718 198.803 207.024 201.631L208.24 203.219ZM214.564 190.047C214.564 184.558 212.624 180.218 208.683 177.171L207.46 178.753C210.843 181.37 212.564 185.086 212.564 190.047H214.564ZM208.69 177.176C204.864 174.167 198.061 171.293 188.427 168.505L187.871 170.426C197.476 173.206 203.954 175.995 207.453 178.748L208.69 177.176Z" fill="black"/>
</svg>
