<svg width="304" height="300" viewBox="0 0 304 300" fill="none" xmlns="http://www.w3.org/2000/svg">
<rect width="303.6" height="300" fill="#F7DF1E"/>
<path d="M144.295 146.141H160.315V231.722C160.315 243.287 156.829 252.335 149.856 258.865C142.939 265.395 133.698 268.66 122.132 268.66C110.123 268.66 100.771 265.589 94.0752 259.446C87.3792 253.304 84.0312 244.699 84.0312 233.631H99.9688C99.9688 240.548 101.85 245.944 105.613 249.817C109.432 253.691 114.938 255.628 122.132 255.628C128.717 255.628 134.03 253.553 138.069 249.402C142.164 245.252 144.24 239.441 144.295 231.971V146.141ZM223.069 213.128C209.401 209.199 199.44 204.384 193.187 198.685C186.989 192.929 183.89 185.846 183.89 177.435C183.89 167.916 187.68 160.058 195.262 153.86C202.898 147.607 212.804 144.48 224.979 144.48C233.279 144.48 240.667 146.085 247.142 149.295C253.672 152.505 258.707 156.932 262.249 162.576C265.846 168.221 267.645 174.391 267.645 181.087H251.624C251.624 173.782 249.3 168.055 244.651 163.904C240.003 159.699 233.445 157.596 224.979 157.596C217.12 157.596 210.978 159.339 206.551 162.825C202.179 166.256 199.993 171.043 199.993 177.186C199.993 182.111 202.068 186.289 206.219 189.72C210.424 193.095 217.535 196.194 227.552 199.017C237.623 201.839 245.481 204.965 251.126 208.396C256.826 211.772 261.032 215.729 263.743 220.267C266.51 224.804 267.894 230.145 267.894 236.287C267.894 246.082 264.075 253.94 256.438 259.861C248.802 265.727 238.592 268.66 225.809 268.66C217.508 268.66 209.76 267.083 202.566 263.929C195.372 260.719 189.811 256.347 185.882 250.813C182.008 245.28 180.071 238.999 180.071 231.971H196.092C196.092 239.275 198.776 245.058 204.144 249.319C209.567 253.525 216.788 255.628 225.809 255.628C234.22 255.628 240.667 253.912 245.149 250.481C249.632 247.05 251.873 242.374 251.873 236.453C251.873 230.532 249.798 225.966 245.647 222.757C241.497 219.492 233.971 216.282 223.069 213.128Z" fill="black"/>
<path d="M144.295 146.141V145.141H143.295V146.141H144.295ZM160.315 146.141H161.315V145.141H160.315V146.141ZM149.856 258.865L149.173 258.135L149.17 258.138L149.856 258.865ZM84.0312 233.631V232.631H83.0312V233.631H84.0312ZM99.9688 233.631H100.969V232.631H99.9688V233.631ZM105.613 249.817L104.896 250.514L104.901 250.519L105.613 249.817ZM138.069 249.402L137.357 248.7L137.353 248.705L138.069 249.402ZM144.295 231.971L145.295 231.978V231.971H144.295ZM144.295 147.141H160.315V145.141H144.295V147.141ZM159.315 146.141V231.722H161.315V146.141H159.315ZM159.315 231.722C159.315 243.074 155.902 251.834 149.173 258.135L150.54 259.595C157.756 252.837 161.315 243.501 161.315 231.722H159.315ZM149.17 258.138C142.477 264.457 133.501 267.66 122.132 267.66V269.66C133.895 269.66 143.402 266.334 150.543 259.592L149.17 258.138ZM122.132 267.66C110.291 267.66 101.21 264.634 94.7512 258.709L93.3992 260.183C100.332 266.543 109.955 269.66 122.132 269.66V267.66ZM94.7512 258.709C88.3058 252.797 85.0312 244.484 85.0312 233.631H83.0312C83.0312 244.913 86.4527 253.811 93.3992 260.183L94.7512 258.709ZM84.0312 234.631H99.9688V232.631H84.0312V234.631ZM98.9688 233.631C98.9688 240.732 100.905 246.406 104.896 250.514L106.331 249.121C102.796 245.482 100.969 240.364 100.969 233.631H98.9688ZM104.901 250.519C108.962 254.639 114.76 256.628 122.132 256.628V254.628C115.116 254.628 109.901 252.743 106.325 249.115L104.901 250.519ZM122.132 256.628C128.947 256.628 134.532 254.471 138.786 250.1L137.353 248.705C133.528 252.635 128.488 254.628 122.132 254.628V256.628ZM138.781 250.105C143.106 245.721 145.238 239.633 145.295 231.978L143.295 231.963C143.241 239.25 141.222 244.783 137.357 248.7L138.781 250.105ZM145.295 231.971V146.141H143.295V231.971H145.295ZM223.069 213.128L223.347 212.167L223.346 212.167L223.069 213.128ZM193.187 198.685L192.506 199.417L192.513 199.424L193.187 198.685ZM195.262 153.86L195.895 154.635L195.895 154.634L195.262 153.86ZM247.142 149.295L246.697 150.191L246.7 150.192L247.142 149.295ZM262.249 162.576L261.402 163.108L261.406 163.114L262.249 162.576ZM267.645 181.087V182.087H268.645V181.087H267.645ZM251.624 181.087H250.624V182.087H251.624V181.087ZM244.651 163.904L243.98 164.646L243.985 164.65L244.651 163.904ZM206.551 162.825L207.168 163.612L207.169 163.611L206.551 162.825ZM206.219 189.72L205.582 190.49L205.587 190.495L205.593 190.5L206.219 189.72ZM227.552 199.017L227.281 199.979L227.282 199.98L227.552 199.017ZM251.126 208.396L250.607 209.251L250.616 209.257L251.126 208.396ZM263.743 220.267L262.885 220.78L262.889 220.787L263.743 220.267ZM256.438 259.861L257.048 260.654L257.051 260.652L256.438 259.861ZM202.566 263.929L202.159 264.842L202.165 264.845L202.566 263.929ZM185.882 250.813L185.063 251.387L185.066 251.392L185.882 250.813ZM180.071 231.971V230.971H179.071V231.971H180.071ZM196.092 231.971H197.092V230.971H196.092V231.971ZM204.144 249.319L203.522 250.103L203.531 250.11L204.144 249.319ZM245.647 222.757L245.029 223.543L245.036 223.548L245.647 222.757ZM223.346 212.167C209.737 208.255 199.947 203.494 193.86 197.946L192.513 199.424C198.932 205.275 209.065 210.143 222.793 214.089L223.346 212.167ZM193.867 197.952C187.872 192.385 184.89 185.566 184.89 177.435H182.89C182.89 186.126 186.106 193.474 192.506 199.417L193.867 197.952ZM184.89 177.435C184.89 168.226 188.538 160.649 195.895 154.635L194.629 153.086C186.823 159.468 182.89 167.606 182.89 177.435H184.89ZM195.895 154.634C203.315 148.559 212.979 145.48 224.979 145.48V143.48C212.629 143.48 202.482 146.655 194.628 153.087L195.895 154.634ZM224.979 145.48C233.148 145.48 240.38 147.059 246.697 150.191L247.586 148.399C240.954 145.111 233.41 143.48 224.979 143.48V145.48ZM246.7 150.192C253.08 153.328 257.968 157.635 261.402 163.108L263.096 162.045C259.447 156.229 254.263 151.681 247.583 148.397L246.7 150.192ZM261.406 163.114C264.9 168.597 266.645 174.581 266.645 181.087H268.645C268.645 174.201 266.792 167.844 263.092 162.039L261.406 163.114ZM267.645 180.087H251.624V182.087H267.645V180.087ZM252.624 181.087C252.624 173.551 250.215 167.532 245.317 163.158L243.985 164.65C248.384 168.578 250.624 174.013 250.624 181.087H252.624ZM245.322 163.163C240.434 158.74 233.605 156.596 224.979 156.596V158.596C233.285 158.596 239.572 160.657 243.98 164.646L245.322 163.163ZM224.979 156.596C216.983 156.596 210.593 158.369 205.932 162.04L207.169 163.611C211.362 160.309 217.258 158.596 224.979 158.596V156.596ZM205.933 162.039C201.292 165.681 198.993 170.773 198.993 177.186H200.993C200.993 171.313 203.066 166.832 207.168 163.612L205.933 162.039ZM198.993 177.186C198.993 182.439 201.226 186.89 205.582 190.49L206.856 188.949C202.911 185.688 200.993 181.782 200.993 177.186H198.993ZM205.593 190.5C209.961 194.006 217.233 197.148 227.281 199.979L227.823 198.054C217.838 195.241 210.888 192.185 206.845 188.94L205.593 190.5ZM227.282 199.98C237.311 202.79 245.072 205.887 250.607 209.251L251.645 207.542C245.891 204.044 237.936 200.888 227.822 198.054L227.282 199.98ZM250.616 209.257C256.209 212.569 260.278 216.417 262.885 220.78L264.602 219.754C261.785 215.041 257.443 210.976 251.636 207.536L250.616 209.257ZM262.889 220.787C265.547 225.145 266.894 230.299 266.894 236.287H268.894C268.894 229.99 267.474 224.464 264.597 219.746L262.889 220.787ZM266.894 236.287C266.894 245.778 263.214 253.342 255.826 259.071L257.051 260.652C264.936 254.538 268.894 246.386 268.894 236.287H266.894ZM255.829 259.068C248.417 264.762 238.443 267.66 225.809 267.66V269.66C238.74 269.66 249.187 266.693 257.048 260.654L255.829 259.068ZM225.809 267.66C217.638 267.66 210.028 266.109 202.968 263.013L202.165 264.845C209.493 268.057 217.378 269.66 225.809 269.66V267.66ZM202.974 263.015C195.917 259.867 190.507 255.6 186.697 250.235L185.066 251.392C189.115 257.094 194.828 261.571 202.159 264.842L202.974 263.015ZM186.701 250.24C182.95 244.881 181.071 238.802 181.071 231.971H179.071C179.071 239.195 181.066 245.678 185.063 251.387L186.701 250.24ZM180.071 232.971H196.092V230.971H180.071V232.971ZM195.092 231.971C195.092 239.557 197.897 245.638 203.522 250.103L204.765 248.536C199.654 244.479 197.092 238.993 197.092 231.971H195.092ZM203.531 250.11C209.177 254.489 216.636 256.628 225.809 256.628V254.628C216.94 254.628 209.956 252.561 204.756 248.529L203.531 250.11ZM225.809 256.628C234.337 256.628 241.033 254.891 245.757 251.276L244.542 249.687C240.301 252.933 234.103 254.628 225.809 254.628V256.628ZM245.757 251.276C250.501 247.645 252.873 242.668 252.873 236.453H250.873C250.873 242.081 248.763 246.456 244.542 249.687L245.757 251.276ZM252.873 236.453C252.873 230.268 250.688 225.391 246.259 221.966L245.036 223.548C248.907 226.542 250.873 230.796 250.873 236.453H252.873ZM246.266 221.971C241.952 218.578 234.263 215.326 223.347 212.167L222.791 214.089C233.679 217.239 241.042 220.406 245.029 223.543L246.266 221.971Z" fill="black"/>
</svg>
