<svg width="172" height="177" viewBox="0 0 172 177" fill="none" xmlns="http://www.w3.org/2000/svg">
<path d="M35.3419 111.162C35.3419 121.156 36.7839 128.35 26.6345 128.35C15.3661 129.375 0 115.94 0 101.086C0 91.0922 6.27059 83.2659 16.9647 86.3445C27.6589 89.4231 35.3419 101.168 35.3419 111.162Z" fill="#B9906A"/>
<path d="M26.8272 125.073H26.8046L26.782 125.075C22.3885 125.474 17.0983 123.045 12.879 118.957C8.66959 114.878 5.62207 109.237 5.62207 103.354C5.62207 99.3761 6.8709 95.8909 9.11484 93.7114C11.3368 91.5532 14.6007 90.61 18.8088 91.8214C23.0359 93.0383 26.6924 95.977 29.2961 99.6298C31.9008 103.284 33.4232 107.613 33.4232 111.565C33.4232 112.526 33.4389 113.434 33.4539 114.301C33.4714 115.311 33.4879 116.265 33.4776 117.184C33.4586 118.87 33.3469 120.308 32.9977 121.48C32.6528 122.638 32.0838 123.512 31.1549 124.109C30.213 124.714 28.8431 125.073 26.8272 125.073Z" fill="#A27C59" stroke="#A17C59"/>
<path d="M133.684 111.332C133.684 121.392 132.242 128.635 142.391 128.635C153.66 129.667 169.027 116.142 169.027 101.189C169.027 91.1284 162.756 83.2499 152.061 86.349C141.367 89.4482 133.684 101.271 133.684 111.332Z" fill="#B9906A"/>
<path d="M87.4837 96.0225C87.4837 118.621 95.2123 140.666 87.4837 147.15C77.7951 154.847 106.79 173.674 85.5378 176.838C68.2415 179.235 42.6482 154.297 37.8055 149.35C32.9628 144.402 19.9759 114.349 20.4881 90.5249C20.4881 47.1063 49.3294 11.9087 84.9069 11.9087C120.484 11.9087 87.4837 52.604 87.4837 96.0225Z" fill="#B9906A"/>
<path d="M142.374 125.101H142.397L142.418 125.103C146.818 125.492 152.11 123.13 156.327 119.16C160.536 115.198 163.579 109.723 163.579 104.019C163.579 100.162 162.333 96.7819 160.091 94.6674C157.87 92.5713 154.602 91.6528 150.389 92.831C146.159 94.0138 142.503 96.8693 139.902 100.415C137.299 103.963 135.779 108.164 135.779 111.995C135.779 112.93 135.763 113.812 135.748 114.654C135.731 115.634 135.714 116.56 135.724 117.453C135.743 119.09 135.855 120.484 136.203 121.618C136.546 122.737 137.113 123.584 138.041 124.164C138.985 124.753 140.357 125.101 142.374 125.101Z" fill="#A27C59" stroke="#A17C59"/>
<path d="M85.1442 124.593C85.1442 147.192 74.8388 140.666 82.5674 147.15C92.256 154.847 62.37 173.764 84.5133 176.838C101.81 179.238 127.403 154.297 132.246 149.35C137.088 144.402 149.563 116.91 149.563 90.5249C149.563 47.1063 120.722 11.9087 85.1442 11.9087C49.5667 11.9087 85.1442 81.1746 85.1442 124.593Z" fill="#B9906A"/>
<path d="M37.533 69.7484C31.7993 69.9344 27.405 73.4934 25.9246 75.2497C50.4975 71.2062 64.9145 76.5473 67.9695 75.9358C70.4135 75.4465 69.0035 70.9484 68.7609 68.7355L37.533 69.7484Z" fill="#231713"/>
<path d="M131.067 68.6328C136.8 68.4468 141.416 71.7136 143.007 73.3702C118.226 70.9276 104.187 77.1918 101.099 76.7794C98.6285 76.4496 99.7439 71.8695 99.8426 69.6456L131.067 68.6328Z" fill="#231713"/>
<path d="M44.0495 131.252C32.0613 124.077 26.6346 125.617 26.6346 125.617C26.6346 125.617 26.6346 128.022 29.7077 135.641C32.7809 143.261 36.8784 148.341 36.8784 148.341C36.8784 148.341 39.9516 152.522 51.2199 161.548C62.4882 170.574 64.537 170.691 64.537 170.691C64.537 170.691 63.9154 143.141 44.0495 131.252Z" fill="#A78261"/>
<path d="M126.001 131.373C137.99 124.221 143.416 125.756 143.416 125.756C143.416 125.756 143.417 128.153 140.343 135.749C137.27 143.345 133.172 148.409 133.172 148.409C133.172 148.409 130.099 152.577 118.831 161.576C107.562 170.574 105.514 170.691 105.514 170.691C105.514 170.691 106.135 143.226 126.001 131.373Z" fill="#A78261"/>
<path d="M80.2124 94.8052C81.4392 91.1825 86.563 91.1825 87.7897 94.8052L98.2227 125.615C98.8748 127.54 97.9765 129.644 96.0825 130.383C92.8565 131.641 87.8696 133.301 84.0011 133.301C80.1325 133.301 75.1456 131.641 71.9196 130.383C70.0256 129.644 69.1273 127.54 69.7794 125.615L80.2124 94.8052Z" fill="#B97D6A"/>
<path d="M81.1202 100.707C81.9579 97.8225 86.0443 97.8226 86.8821 100.707L93.5063 123.514C93.9284 124.967 93.2001 126.505 91.7718 127.005C89.616 127.76 86.4586 128.691 84.0011 128.691C81.5436 128.691 78.3862 127.76 76.2304 127.005C74.8022 126.505 74.0739 124.967 74.496 123.514L81.1202 100.707Z" fill="#C98E7B"/>
<path d="M17.4281 81.5681L79.9035 83.1048C79.9035 83.1048 79.9035 111.679 73.2097 119.43C66.5159 127.18 29.1423 127.314 23.0063 121.701C16.8703 116.089 17.4281 81.5681 17.4281 81.5681Z" fill="#2E2E2E"/>
<path d="M150.574 81.5681L88.0988 83.1048C88.0988 83.1048 88.0988 111.679 94.7926 119.43C101.486 127.18 138.86 127.314 144.996 121.701C151.132 116.089 150.574 81.5681 150.574 81.5681Z" fill="#2E2E2E"/>
<path d="M147.502 87.7146H91.3211C91.3211 87.7146 91.172 111.523 97.2074 117.652C103.243 123.78 136.94 123.886 142.473 119.448C148.005 115.01 147.502 87.7146 147.502 87.7146Z" fill="#B9906A"/>
<path d="M20.5001 87.7146H48.5882H76.6763C76.6763 87.7146 76.8255 111.523 70.7906 117.652C64.7557 123.78 31.0611 123.886 25.5291 119.448C19.9972 115.01 20.5001 87.7146 20.5001 87.7146Z" fill="#B9906A"/>
<path d="M16.3906 81.5684C16.899 80.544 84.0012 83.105 84.0012 83.105L151.612 81.5684L151.104 85.6661L150.087 87.7149H17.9157L16.899 85.6661C16.899 85.6661 15.8823 82.5928 16.3906 81.5684Z" fill="#2E2E2E"/>
<path d="M75.8059 86.6902H92.1964L91.0256 104.105C91.0256 104.105 87.1409 95.3976 84.0011 95.3976C80.8614 95.3976 76.9767 104.105 76.9767 104.105L75.8059 86.6902Z" fill="#2E2E2E"/>
<path d="M97.3184 87.7146C93.2208 88.1243 91.8549 94.0317 91.6842 96.9342H91.172V87.7146H97.3184Z" fill="#2E2E2E"/>
<path d="M25.6102 87.7146C22.1955 88.0788 20.6304 93.3298 20.4882 95.9098V87.7146H25.6102Z" fill="#2E2E2E"/>
<path d="M70.6839 87.7146C74.7815 88.1243 76.1474 94.0317 76.3181 96.9342H76.8303V87.7146H70.6839Z" fill="#2E2E2E"/>
<path d="M32.5 25C23.9709 30.3347 21.5125 76.4461 21.5125 76.4461C22.5668 73.325 26.2056 71.6449 27.5 68.5L27.6158 68.2186C34.5535 51.362 39.0331 40.4779 45 36.5C51 32.5 57.3033 31.2864 70 29.5C76.5235 27.7252 72.4357 19.4484 62 18.5C51.5643 17.5516 41.0291 19.6654 32.5 25Z" fill="#211411"/>
<path d="M85.7539 73.7673C91.4828 62.4414 92.37 51.808 89.7595 46.7384C94.7962 50.8975 99.6346 62.7009 93.4023 72.2746C84.7486 85.5678 86.7951 93.6508 86.8874 95.0326C85.3639 95.1373 80.025 85.0931 85.7539 73.7673Z" fill="#19110E"/>
<path d="M123.741 84.4181C125.246 74.7349 122.479 67.196 118.338 64.6502C124.429 65.7381 132.918 72.0938 130.353 80.7594C126.792 92.7915 131.426 97.5818 131.979 98.4897C130.597 99.0875 122.236 94.1013 123.741 84.4181Z" fill="#1F1410"/>
<path d="M126.514 83.617C126.104 66.8167 112.684 60.3971 109.099 58.0069C105.172 57.1532 96.3964 52.9873 92.7085 43.153C88.0987 30.8602 52.2446 27.2747 53.269 23.1771C54.0885 19.899 54.9763 16.6892 55.3178 15.4941C67.0984 -8.06718 128.05 0.640252 139.319 6.78667C150.587 12.9331 160.319 24.2015 159.807 62.6167C159.397 93.3488 165.783 99.8367 171.075 102.056C170.051 103.593 161.856 109.227 150.075 106.154C135.883 102.452 128.392 92.3244 126.514 83.617Z" fill="url(#paint0_linear)"/>
<path d="M71.9976 145.647C72.6377 145.262 73.3908 145.143 74.1304 145.245C76.2982 145.546 81.1115 146.149 84.5132 146.106C87.4464 146.068 91.573 145.521 93.5009 145.242C94.2005 145.141 94.9137 145.24 95.536 145.575C97.9194 146.859 103.29 150.203 94.572 150.203C85.7447 150.203 82.8023 150.203 72.9942 150.203C65.2125 150.203 69.7786 146.979 71.9976 145.647Z" fill="#8A5949"/>
<path d="M61.4643 97.9586C61.4643 101.636 59.6297 104.617 57.3667 104.617C55.1036 104.617 53.269 101.636 53.269 97.9586C53.269 94.2811 55.1036 92.1963 57.3667 92.1963C59.6297 92.1963 61.4643 94.2811 61.4643 97.9586Z" fill="#3D2B27"/>
<path d="M117.806 97.9586C117.806 101.636 115.972 104.617 113.709 104.617C111.446 104.617 109.611 101.636 109.611 97.9586C109.611 94.2811 111.446 92.1963 113.709 92.1963C115.972 92.1963 117.806 94.2811 117.806 97.9586Z" fill="#3D2B27"/>
<ellipse cx="110.123" cy="94.2451" rx="2.56102" ry="2.04881" fill="white"/>
<ellipse cx="53.7812" cy="94.2451" rx="2.56102" ry="2.04881" fill="white"/>
<path d="M89.3718 77.8446C96.8068 36.5391 74.7814 31.3724 74.7814 31.3724C91.1719 2.16828 148.787 25.7574 120.616 67.6005C92.445 109.444 121.64 108.064 114.47 109.089C107.299 110.113 84.762 103.455 89.3718 77.8446Z" fill="url(#paint1_linear)"/>
<defs>
<linearGradient id="paint0_linear" x1="102.44" y1="58.0069" x2="225.369" y2="-14.2136" gradientUnits="userSpaceOnUse">
<stop stop-color="#211411"/>
<stop offset="1" stop-color="#3D2B27"/>
</linearGradient>
<linearGradient id="paint1_linear" x1="57.8788" y1="88.2268" x2="137.782" y2="39.5676" gradientUnits="userSpaceOnUse">
<stop stop-color="#0F0A08"/>
<stop offset="1" stop-color="#30201B"/>
</linearGradient>
</defs>
</svg>
