<svg width="117" height="67" viewBox="0 0 117 67" fill="none" xmlns="http://www.w3.org/2000/svg">
<path d="M2.63154 35.7665C1.40251 34.9798 1.40252 33.1843 2.63154 32.3976L37.8607 9.84722C39.1919 8.9951 40.9389 9.95111 40.9389 11.5317V56.6325C40.9389 58.2131 39.1919 59.1691 37.8607 58.3169L2.63154 35.7665Z" fill="#DC486A"/>
<path d="M16.2751 35.7665C15.0461 34.9798 15.0461 33.1843 16.2751 32.3976L51.5043 9.84722C52.8355 8.9951 54.5825 9.95111 54.5825 11.5317V56.6325C54.5825 58.2131 52.8355 59.1691 51.5043 58.3169L16.2751 35.7665Z" fill="#1C1D25"/>
<path d="M113.378 35.7665C114.607 34.9798 114.607 33.1843 113.378 32.3976L78.149 9.84722C76.8178 8.9951 75.0708 9.95111 75.0708 11.5317V56.6325C75.0708 58.2131 76.8178 59.1691 78.149 58.3169L113.378 35.7665Z" fill="#DC486A"/>
<path d="M101.049 34.9243C101.664 34.531 101.664 33.6332 101.049 33.2398L62.9654 8.86202C62.2998 8.43596 61.4263 8.91396 61.4263 9.70425V58.4599C61.4263 59.2502 62.2998 59.7282 62.9654 59.3021L101.049 34.9243Z" fill="#1C1D25"/>
<path d="M67.999 3.19849C68.1593 2.8369 68.5176 2.60376 68.9132 2.60376L73.7328 2.60375C74.4561 2.60375 74.9401 3.34782 74.647 4.00901L48.1411 63.8015C47.9808 64.1631 47.6224 64.3962 47.2269 64.3962L42.4072 64.3962C41.684 64.3962 41.1999 63.6522 41.493 62.991L67.999 3.19849Z" fill="#DC486A"/>
</svg>
