<svg width="304" height="300" viewBox="0 0 304 300" fill="none" xmlns="http://www.w3.org/2000/svg">
<rect width="303.6" height="300" fill="#3776AB"/>
<g filter="url(#filter0_d)">
<path d="M149.704 44.4017C141.216 44.4414 133.109 45.1696 125.977 46.4393C104.965 50.1736 101.15 57.9897 101.15 72.404V91.4408H150.804V97.7865H101.15H82.5149C68.084 97.7865 55.4479 106.512 51.4955 123.111C46.9365 142.137 46.7343 154.009 51.4955 173.876C55.0251 188.663 63.4543 199.2 77.8851 199.2H94.9574V176.379C94.9574 159.892 109.138 145.35 125.977 145.35H175.573C189.379 145.35 200.4 133.915 200.4 119.967V72.404C200.4 58.8672 189.048 48.6985 175.573 46.4393C167.043 45.0109 158.193 44.362 149.704 44.4017ZM122.852 59.7127C127.981 59.7127 132.169 63.9949 132.169 69.2603C132.169 74.5069 127.981 78.7496 122.852 78.7496C117.704 78.7496 113.534 74.5069 113.534 69.2603C113.534 63.9949 117.704 59.7127 122.852 59.7127Z" fill="#3776AB"/>
<path d="M126.02 46.6854L126.021 46.6854C133.138 45.4185 141.23 44.6913 149.705 44.6517C158.181 44.6121 167.017 45.26 175.532 46.6859C188.924 48.9312 200.15 59.0241 200.15 72.404V119.967C200.15 133.783 189.234 145.1 175.573 145.1H125.977C108.998 145.1 94.7074 159.756 94.7074 176.379V198.95H77.8851C70.7376 198.95 65.0872 196.343 60.7817 191.909C56.4705 187.469 53.4969 181.184 51.7387 173.818L51.7386 173.817C46.9868 153.991 47.1885 142.158 51.7386 123.169L51.7387 123.169C55.6637 106.685 68.1972 98.0364 82.5149 98.0364H101.15H150.804H151.054V97.7864V91.4408V91.1908H150.804H101.4V72.404C101.4 65.2099 102.354 59.7299 105.874 55.5783C109.397 51.4235 115.532 48.5495 126.02 46.6854ZM132.419 69.2603C132.419 63.8625 128.124 59.4627 122.852 59.4627C117.56 59.4627 113.284 63.8628 113.284 69.2603C113.284 74.6407 117.562 78.9996 122.852 78.9996C128.123 78.9996 132.419 74.641 132.419 69.2603Z" stroke="#FFD43B" stroke-width="0.5"/>
</g>
<path d="M210 100.8V122.812C210 139.877 195.65 154.241 179.287 154.241H130.182C116.731 154.241 105.6 165.848 105.6 179.43V226.631C105.6 240.065 117.186 247.966 130.182 251.821C145.744 256.434 160.667 257.268 179.287 251.821C191.664 248.207 203.869 240.936 203.869 226.631V207.739H154.763V201.442H203.869H228.45C242.739 201.442 248.063 191.393 253.032 176.31C258.165 160.783 257.946 145.851 253.032 125.932C249.501 111.59 242.757 100.8 228.45 100.8H210ZM182.381 220.334C187.478 220.334 191.607 224.544 191.607 229.751C191.607 234.976 187.478 239.226 182.381 239.226C177.303 239.226 173.156 234.976 173.156 229.751C173.156 224.544 177.303 220.334 182.381 220.334Z" fill="#FFD43B"/>
<defs>
<filter id="filter0_d" x="47" y="44.4" width="154.4" height="159.8" filterUnits="userSpaceOnUse" color-interpolation-filters="sRGB">
<feFlood flood-opacity="0" result="BackgroundImageFix"/>
<feColorMatrix in="SourceAlpha" type="matrix" values="0 0 0 0 0 0 0 0 0 0 0 0 0 0 0 0 0 0 127 0"/>
<feOffset dy="4"/>
<feGaussianBlur stdDeviation="0.5"/>
<feColorMatrix type="matrix" values="0 0 0 0 0 0 0 0 0 0 0 0 0 0 0 0 0 0 0.25 0"/>
<feBlend mode="normal" in2="BackgroundImageFix" result="effect1_dropShadow"/>
<feBlend mode="normal" in="SourceGraphic" in2="effect1_dropShadow" result="shape"/>
</filter>
</defs>
</svg>
