<svg width="253" height="250" viewBox="0 0 253 250" fill="none" xmlns="http://www.w3.org/2000/svg">
<rect width="253" height="250" rx="30" fill="#3776AB"/>
<g filter="url(#filter0_d)">
<path d="M124.753 37.0014C117.68 37.0345 110.925 37.6414 104.981 38.6994C87.4705 41.8113 84.2914 48.3247 84.2914 60.3366V76.2007H125.67V81.4887H84.2914H68.7624C56.7367 81.4887 46.2066 88.7599 42.9129 102.592C39.1137 118.447 38.9452 128.341 42.9129 144.896C45.8543 157.22 52.8786 166 64.9043 166H79.1311V146.983C79.1311 133.244 90.948 121.125 104.981 121.125H146.311C157.816 121.125 167 111.595 167 99.9725V60.3366C167 49.056 157.54 40.5821 146.311 38.6994C139.203 37.5091 131.827 36.9684 124.753 37.0014ZM102.376 49.7606C106.65 49.7606 110.141 53.3291 110.141 57.7169C110.141 62.0891 106.65 65.6247 102.376 65.6247C98.0869 65.6247 94.6119 62.0891 94.6119 57.7169C94.6119 53.3291 98.0869 49.7606 102.376 49.7606Z" fill="#3776AB"/>
<path d="M105.024 38.9456L105.024 38.9455C110.953 37.8902 117.694 37.2844 124.755 37.2514C131.815 37.2184 139.176 37.7582 146.269 38.946C157.416 40.8148 166.75 49.2128 166.75 60.3366V99.9725C166.75 111.464 157.671 120.875 146.311 120.875H104.981C90.808 120.875 78.8811 133.107 78.8811 146.983V165.75H64.9043C58.9593 165.75 54.2614 163.582 50.6813 159.895C47.0955 156.202 44.6202 150.972 43.1561 144.838L43.1561 144.838C39.1978 128.322 39.3658 118.468 43.1561 102.651L43.1561 102.65C46.4224 88.933 56.8498 81.7387 68.7624 81.7387H84.2914H125.67H125.92V81.4887V76.2007V75.9507H125.67H84.5414V60.3366C84.5414 54.3438 85.337 49.7901 88.2604 46.3422C91.1865 42.8911 96.2866 40.4984 105.024 38.9456ZM110.391 57.7169C110.391 53.1967 106.794 49.5106 102.376 49.5106C97.943 49.5106 94.3619 53.197 94.3619 57.7169C94.3619 62.2229 97.9446 65.8747 102.376 65.8747C106.792 65.8747 110.391 62.2232 110.391 57.7169Z" stroke="#FFD43B" stroke-width="0.5"/>
</g>
<path d="M175 84V102.343C175 116.564 163.042 128.534 149.406 128.534H108.485C97.2755 128.534 88 138.207 88 149.525V188.859C88 200.054 97.6547 206.639 108.485 209.85C121.453 213.695 133.889 214.39 149.406 209.85C159.72 206.839 169.891 200.78 169.891 188.859V173.116H128.969V167.868H169.891H190.375C202.282 167.868 206.719 159.494 210.86 146.925C215.137 133.986 214.955 121.542 210.86 104.943C207.917 92.9916 202.297 84 190.375 84H175ZM151.985 183.612C156.232 183.612 159.672 187.12 159.672 191.459C159.672 195.813 156.232 199.355 151.985 199.355C147.753 199.355 144.297 195.813 144.297 191.459C144.297 187.12 147.753 183.612 151.985 183.612Z" fill="#FFD43B"/>
<defs>
<filter id="filter0_d" x="39" y="37" width="129" height="134" filterUnits="userSpaceOnUse" color-interpolation-filters="sRGB">
<feFlood flood-opacity="0" result="BackgroundImageFix"/>
<feColorMatrix in="SourceAlpha" type="matrix" values="0 0 0 0 0 0 0 0 0 0 0 0 0 0 0 0 0 0 127 0"/>
<feOffset dy="4"/>
<feGaussianBlur stdDeviation="0.5"/>
<feColorMatrix type="matrix" values="0 0 0 0 0 0 0 0 0 0 0 0 0 0 0 0 0 0 0.25 0"/>
<feBlend mode="normal" in2="BackgroundImageFix" result="effect1_dropShadow"/>
<feBlend mode="normal" in="SourceGraphic" in2="effect1_dropShadow" result="shape"/>
</filter>
</defs>
</svg>
